<mxfile host="app.diagrams.net" agent="Mozilla/5.0 (X11; Ubuntu; Linux x86_64; rv:132.0) Gecko/20100101 Firefox/132.0" version="24.8.9">
  <diagram name="Page-1" id="vzEjXfgID9UDjDZ3INs3">
    <mxGraphModel dx="1368" dy="790" grid="1" gridSize="10" guides="1" tooltips="1" connect="1" arrows="1" fold="1" page="1" pageScale="1" pageWidth="850" pageHeight="1100" math="1" shadow="0">
      <root>
        <mxCell id="0" />
        <mxCell id="1" parent="0" />
        <mxCell id="B2emX07kh6PidSc0l1N5-35" value="" style="endArrow=none;html=1;rounded=0;strokeWidth=2;" parent="1" edge="1">
          <mxGeometry width="50" height="50" relative="1" as="geometry">
            <mxPoint x="119.58" y="370" as="sourcePoint" />
            <mxPoint x="120" y="134" as="targetPoint" />
          </mxGeometry>
        </mxCell>
        <mxCell id="B2emX07kh6PidSc0l1N5-36" value="" style="endArrow=none;dashed=1;html=1;dashPattern=1 3;strokeWidth=2;rounded=0;" parent="1" edge="1">
          <mxGeometry width="50" height="50" relative="1" as="geometry">
            <mxPoint x="90" y="130" as="sourcePoint" />
            <mxPoint x="710" y="130" as="targetPoint" />
          </mxGeometry>
        </mxCell>
        <mxCell id="B2emX07kh6PidSc0l1N5-37" value="" style="shape=image;verticalLabelPosition=bottom;labelBackgroundColor=default;verticalAlign=top;aspect=fixed;imageAspect=0;image=data:image/png,iVBORw0KGgoAAAANSUhEUgAAAaEAAAKQCAYAAAA2ZsVXAAAABHNCSVQICAgIfAhkiAAAABl0RVh0U29mdHdhcmUAZ25vbWUtc2NyZWVuc2hvdO8Dvz4AAAAudEVYdENyZWF0aW9uIFRpbWUARnJpIDI1IE9jdCAyMDI0IDEwOjA1OjEzIEFNIEVFU1Su9rvpAAAgAElEQVR4nOy9eZQkV33n+72R1QK1BPY5770zPnPOnPPejI16qeraZTBgS14eAgxCFi31Vl371hJiMZuxQd0DZgcJS+qq6tp779aKABv7GdOYscHqrq27qrqF33l+9jx7zhjPYAHDgLrz3vdHxI24ERmRGZkZmZFZ9f2crq6qzMiIyKx77/f+fvf3+12hlFIgZfGTn/wI/8/fvQgls1BKAUraTygFQHk/wvuoRch5hAg8KgAReqTz+sDxwceEfQLvN5FztPG60MvkudvAEcJ+d4WPjEsRZ3LeZvHXL+1V5aCM//McUOb5C5yw6Gso/0vyvl6F/xb6GuPTUFGPmb8Hzh3oU2HH5H9cuS83j/EPicL4pn/2vgthIbNlC3Y13h72BkkMrLRvgBBC6pHqTV02NhQhwt5ENils+LUARYgQQkhqUIQIIYSkBkWIEEJIalCECCGEpAZFiBBCSGpQhAghhKQGRYgQQkhqUISqBDMSCCEkF4oQKR8qLNmEsN5ZMlCECCGkLDgLKweKECGEkNSgCJECcJZHCKkcFCFCCCGpQREihJASoI8gGShCZBPD+CZSCmw3SUIRIoSQoqANlCQUIUIIIalBESKEEJIaFCFCCCGpQREi9Q3d84TUNRQhQgghqUERIgVgOCohpHJQhAghhKQGRSgFuIxBCCE2FCFCCCGpQREihBCSGhQhQgghqUERIoQQkhoUIUIIIalBEappGEdHCNnYUIQIIcSHyPsrSRaKECGEkNSgCBFCSKnQSiobilAKsBobIXUKRSdxKEKEEEJSgyJECCEkNShChBBCUoMiRAghJDUoQoQQQlKDIkQI2eAwHrWWoQiRxGD0KiGkWChCFYdDMyGEREERIoQQkhoUIUIIIalBESKEEJIaFCFCyIaAq6/1CUWohmGnqiT8dAmpBShCFWfj5yhwOCeElApFiBBCSGpQhAghhKQGRYgQQkhqUIQIIYSkBkWIEEJIalCE6hbGpBFC6h+KUApQPgghxIYiRAghJDUoQiQRNn5KLiGkElCECCGEpAZFiBBCSGpQhKoIAxIIIcQPRYgQQkhqUIQIIYSkBkWIEEJIalCECCGEpAZFiBBSJzC0ZyNCEapXBNNDCSH1D0Wo4nD2RqoHWxupNyhChBBCUoMiVNPQ5UYI2dhQhAghhKQGRWhDwRUBQkh9QREihBCSGhQhQgghqUERIpscujAJSROKECnARh+kGYFISJpQhEgNUk3h2+giS0htQxEihBCSGhShWoETckLIJoQiRAghJDUoQjUNzSNCyof9qJahCJHyYP8mhJQBRajKcMwmhBAPihAhhJQEp5RJQBEiNQY7NiGbCYoQIYSQ1KAIEUIISQ2K0EaGni1CSI1DESIbBmouIfUHRYgQQkhqUIQIIYSkBkWIEEJIalCECCGEpAZFiBBCSGpQhAghhKQGRYiQqsNgckI0FCFCCCGpQREihBCSGhQhkgh0MJF6hu03PShCicKmTAghxUARIoQQkhoUIUIIIalBESKEEJIaFCFCCCGpQREihBCSGhQhQgghqUER2iREBY8zqJwQkiYUoaTgaE4IIUVDESJlQe0lhJQDRShRVNo3QAghdQVFiBBCSGpQhAghhKQGRYgQQkhqUIQIIYSkBkUoUaoZK8a4NEJI/UMRIoQQkhoUIUIIIalBESKEEJIaFCFCCCGpQREihBCSGhQhQgghqUERIoRsfJjRULNQhAghhKQGRYgQQkhqUIQIIYSkBkWIlA13USKElApFiBBCSGpQhAghhKQGRYgQQkhqUIQIqSWYz0I2GRQhQgghqUERIpsUxvQRUgtQhAjZbGwUl99GeR+bHIoQ2YRw9CKkVqAIEUIISQ2KECGEkNSgCBFCCEkNihAhhJDUoAjVIVxWz6VeAq75tyPED0WIEEJIalCECCGbElqltQFFiBBCSGpQhAghhKQGRYgQQkhqUIQIIYSkBkWIEEJIalCECNnQMAaM1DYUIUIIIalBESKEEJIaFCFCCCGpQREihBCSGhQhsonhoj0haUMRIoQQkhoUIUIIIalBESKEEJIaFCFCCCGpQREihBCSGhQhQgghqUERIoQQkhoUIUIIIalBESKEEJIaFCFCCCGpQREihBCSGhQhQgghqUERIoQQkhoUIUIIIalBESKEEJIaFCFCNjzcN4nULhQhUkNspsFyM71XQqKhCBFCCEkNihApm7Tn9GlfnxBSOhQhQgghqUERImQDUgvWoUr7BkhdQBEihBCSGhQhssmoBRuh8tAKIfUCRYhsQjhE1xubY+qwOaEIEUI2JZyK1AYUIUKqBAc9QnKhCBFCCEkNihAhhJDUoAiR0uFqMSGkTChChBBCUoMiREiVoOFISC4UIUIIIalBESKEEJIaFCFCSOWhL5JEQBEihBCSGhQhQjY8rNVAaheKECGEkNSgCBFCCsAFHVI5KEKEEEJSgyJECCEkNShChBBCUoMiRAghJDUoQmSTwsV2QmoBihAhhJDUoAgRssGgjUfqCYoQqV842hJS91CECCGEpAZFiJRMLRkitXQvhJD4UIQ2EhyJCSF1BkWIkCrDuQIhHhQhQgghqUERIoQQkhoUIVLfcL82QuoaihAhhJDUoAgRQghJDYoQIYSQ1KAIEUIISQ2KECGEkNSgCCUKQ7UIIaQYKEKE1BosqUA2ERQhQgghqUERIoQQkhoUIUIIIalBESKEEJIaFCFS33ARPwb8kEjtQhEihBCSGhQhsomgRUBIrUERIoQQkhoUIbLJYFULQmoJihAhhJDUoAgRQghJDYoQIanBQAlCKEKEEEJSgyJECCEkNShCdQujvAgh9Q9FiBBCSGpQhEiNwEV6QjYjFCFCCCGpQREipIpwJW/jIaVM+xbqmoa0b4BUDiklLIvzjEoRNfjwM08eKRWUAgAFy6od162UCkJRhMpBKKU4OSuTn/zkR7jjjjuhoJypbpyPVB+T26HK7mLCf4bKd9kEr1A740t9kVgvrvxwUPAKsftQnvOVOKwV9yoB2L0eC5eWSroeoSWUGEopKCiIMkfRJMZgc15hdxNAiEqN7gmct06Fp9D8rXKfedjFjJ9rfFqp22Rcwj7ngp+tECULUbHcuJGtynU2KhShhDg6/igywkJDQ8Zp/MroBM73PJ3C7lMBCyaiownvBQAcl4DzhFLK+V34TpexLEB457SsjHGuQu8uxFpLdHwt4WQi7qtcGS7+GgG0+00PilIq53fPHSOE7YqzLOH7++Vz0Snj/4gny0KF/FT8+ZX/0MjXqejfcl5jvHPlPSalhAKgpN2PpDKPs3+2hHD+qro929+jJgaelyL6cRVyHX9DE16HEYCAhRvZLP7+H/6/0GuSeNB5nQC33PJq/PjH/yPVe1BKugI0PjGDvqGH0Nz2RoyNz0ApaQyYegClH7sYTAGS0v56YmwS3X2jaGz+FTQ2/wqeGJvCE2OT7udNT3fx5Ai9UlBSIpvNYnDwIbR13IHB4fdgbGLWOU46r0vpsxbA97//L+lce4NAEUqIH770r6lc1+x8UipkZRbjx+YwefQzeOGv/hg3rv8ULe2/hr+5uIBs1nYbcHAsn527XoujY9OAMwgufvdPIW9cx9GxafT0P5AjRLUh+vXh99SfWTabRTabxdjEHDpu/3UoJXHpO19HR1sTJo7NQSrbSkpHiLzP8rOfeQSHDx+u4rU3FnTHJcQPfvBD/Lt/V91ObrqDlLIHvPbOOzEydBBQtuutr2cvpAImjs2io70FQnjRRVJK201HYqGUwndfWEBv3yF0tDdj4onPAgDaX/smKKUw1H8AQwMH0f7a34KUCpYlIaWFTKY+Bv/qkisYplBLaQvMxOQ8Jqfm8e2/eBZbGrZACGBk4CCEyKC94w4sXPxmNW4tLy9ffzn5e9hEcARKiDOnz6d9CxgYejdGhrox1N+NrLI95pZlobdrNy4tLOPipSV31rh5rKHy36c5OF68uICRwW4cG/sCAOFbH7K/JCae+Dx2tb7eu4NY1hCFCvDcncYD6O/dB8uyYGUsKCWgIDA80IWO9haolC1MIQRuXL+R6j3UOxShBLjjjjvws5/9LJX8BVdUpMTC4gqGBrqRldIZEAEIC2/8jd8BAEwcmwNQnttisw6VenA8OjaNoaFuAMJ2BzmfZefr34yss6De3t6MjvZm9PQ/kOo91zNKSSipMDl1HNOzp/H6O+6GEBkoJZCVCsoZuoYP/W56LjkBZDIZ/PM/f5/uuDKgCCXEyy+/DCHKDdAuDR091NnRCgULCgISFrJS4bVveIt73MLicnoLuBsImVW4kZU4NnUCt7/+zVBK4eGHH8Zr3/gWKAUoJTA00INLzB0pCVdQAkmgww98ALAygMhAWAIzU49jYWG5zIuV93JSPhShhMhm069OoODkKynAjiH17ufhhx9O7DrJCW192lVS2V8Li5dxxx13AIA3ExYZQAi0t7ckc7H6/IjKQgh/P9KfsZ0XoEOxN5NLeWNDEUqITEMm9QioS5eWcPPWW/Dqn/9f8L/+b7+AV259FVpbdgEAjhw5kuq9bSTssc/CY3/0OVy4cAGHDx/GnXfeCcBe95FKcYKdAJYjRhcuXAAAtLU2A5aFzJabkNlyE8aPzad4dyQpKEIJcdOWLanNzCwjKfJGNouX/vUH+Of/+l/w4x+9hO7uve5zQ4M9sCxRU7W36nGqPzl9HEopCCHQ39eFI0eO4KV//QGeeOzzToKqwMSxeRwa7fe9LspSrr9PoPIIYUEY7bSlZRcOHtyHl69fx89++jNcf/m6HZE42J3iXaaYn7SBoAglxCte+Qo7L6SK17Sz8u0/obAstLc1o7dvFHZ8NgClMDt32j1+ZMjrsFUtKVMhqt39LUvggUMDmJqex9LyZSgAfX1dAIC2tl32TF1YmJo+jsmpOQghcionkGgsy3I/M8CeXLW3NQMAlpcvY3b2JJRUEJa9bjQ+Me0e552jup+1YvHSsqEIJcQtW29J+xYwMtyLxcVlTE3PAwqYnT+NlZUraGluwtLFb9mzS8PfnvYaVj2hheTQyABWV/4ahx54n/15Ol1ICAEI4QjQPNYufxcPHhp0X8/PujgsS0BYFibGH3Efm507iaWlFSwsrKDzl+9Ee3sLhod6AOSuI1ULrkuVD6toJ4AQAnv37cb73/8eNGQsr3ZcsKp2BWrHue4AJSGVPTNr7bjDd3xHewsmx7+ETEPGmJnbOUTF1o4TuQ+VSRknKqp+XHkEy/Y8MTZpV0wI0NHRhl++vc0VIK9WX/5BspL143TlvNBrpFY7LlDRzvlVSruqh1R235FKQkmJts47feddeOEvAMuCBb8ARRmdkbXjjD7p1o7zFbOLqh1n96Mb2SwOHhzCL/ybf4tvfrMCibObAIpQAvzkJz/ExYW/watuvQVbMpbTmKsjQoBXwFRBOaVipJsTNDLcCwCwRAaWk7lvuzxKK2BaMyIkinl15YqXPjE26R7zwKgtPNolFLeAKbBxRcj3SAwRMguYwplU6RSECade3JBr/diVss2isUUXME1AhF566Sf4zd94c+h1SWEoQgnwk//xQ6y/eAWWEKmIEOBUHBZGR5L+02Us/0IvRah4zOjHoBgB/vWIuBaQez7j/4gnS6aeLCH9Q1ZKo9voCUDu68quop2ACAFb0NnxK6HXJYVh7biEaGjYAqj09hWxLDuDXw9+woJv7C1mVk7CsSzLFSJPZLzng5MGfs6m+BWHZVm2O07KwHpPUETT3WlVANh6y9bUrr8RoAglgFIKmYwFmU06UkbPYeOhBz274yLHWtowg2KKwWbmZwxEW6sb5rNOGa/YbriUpSVA+qqW1YBMJpPKPWwUKEKJoJyZmwVIWfr0LyG8gAPTjcYw4SShyMQjqW5gr/eEnDux1YTSzmNZgiJUJuxJCXDLrT/v/cKxvobgHwNI91Ool79AOVLGCUl58NMjdUm9DG6kFkjeLeE/I1tjOVCEkoaxhoSUSJ12HmpQWVCECCGkSHy6U6faWStQhJKGsyJSg0SOkzXdXmtsdI/6rGr6M6x9KEKkbmHfT4AaG+fJ5oMilBSslFyD1NsIm0IbYrMtHxadKQuKUFKwIRKyQSiuL99y66srdB+bA4oQIYREQUux4lCECKl1Nu1AWEtvvJbuZWNBESKEkDKgPJUHRWhDUW/rUuy+mnr4JNK/x3pr3yQOFCGywUl/6CR1DHWv4lCEEoOtlZB0SasPcqJTDhShpKAGEUJI0VCEEuKWW38uxlGcMRFSOdJJ9rUEZ6DlQBGqEdiMCQlSqFew12wEKEKEEBJFHOOKDo6yoAgRskkQxv8kKQT4mZYHRYjQq0FIGVCCyoMiRAghJDUoQkkhcn6oMDRfCCH1D0WobqETID/8fEi14ISwHChCSaGA6g58bPgkPpTkynHzVu4nVA4UoaRIuZdTkggpA3ag1KAIEVJT0Gapbfj3SRqKUEIoKdO+BUI2OTRn6hGKUEJcv3EDUmarczFOxgih5mwQKEIJ8bOfvoxstkoiRGLAEYqQeoAilBAv/eu/pn0LPjgEbzBo/dYs/NOUB0UoIb7//e+nfQtFKg9lihCSPhShhPjvP3gp7VsghFQd2kHlQhFKiL//f/8+7VuoM9h5Sbok4gtgMy4bilBC/N3f/R2ECH6cbKHpUl+ff33d7Wag0F9E8G+WABShhPjHf/wnWBabJCE1SYWWQJUCFNdXy4IilBD/7V/+BZlMJu3bIIRUEwHG+JQJRSghXnrph2nfAiGkyti+D6pQOVCEEuJHP6IIVRN2e1IrbGUV7bKgCCXE9763lufZ0taKIgdajsCEJAA7Ui1AESJkk6CM/0k4/HSqD0UoIezGWzvRcRW9k5TfpuBIUQa100brFn6EiUIRSgq1iUbGTfRWCSGVhSKUGJtoZE57JijSvwVCSDJQhKoJR84qUe8fdL3fPyHxoQglxSYyhEj9QnlLGn6i5UIRSoitt/5c2rdASGlwHCUpQhEi9QUHTFJB2LyqD0UoMRRbMKksZbYvNs8KwA+1bChCSVGLa0K1eE9VYdO+cULqDopQReD0iJAND7t5IlCECKkhOK6RzQZFiKQAh1pCiA1FKClEmQNrwssYXBWh0NUUVWiQSVyi6HNspnJdFYIilBRKgQMfIZuLW1/F/MByoQglBmdEpF7gZInUDg1p38BGQdEsJ6QukFLvrKTcuaNSCpZVjDiLwHdSKrSEkiJHhNg480PRri/Sbc+11VrYt5OElhBJCXbk/AjU2tBbb2iLB1Cx4gekVBAxrCER8TMpDVpCSeO2ytoaQGrrbgipZ9ibkoQiVDE4RyKEkEJQhBLillt/3kkVCogPtYiUDBtPLaL4d0kUihApnpr2RnCAIFVAAIJtLREoQomScKOs6cGeVJ6QBsBxj2wwKEIkxsBGNSSbAy+iLhpfdym3XBehCBFCCEkP5glVAGZ4pAk/+TiwjUbjs4YCSUHFVVUgcaAlVFNwWCCbgQ3Uzlmuq2woQpsGdpZ6oZJzbbvWO9tCUtxyy6vTvoW6hyK0kaHngARgk0gYfqBlQxFKFGX8TwipKux4dQlFKEF82znUwgxp03bKWvjwk6BS76MOPp8abbtSKl/gQh18kjUPRYgQQkqGMlQuFKEKwGZJCCHxYJ5QohSWn3wZ2YJ5CKRKBFuhlDLWq4S1SeetgW4ppYIQNeozrDMoQgmSLwEwTjmQ4HFJCtJGkTZhxxiTBAkKUHCresHSNKSCbNJpTWW45dbwnAFTWJSSkV/5Xkc2K9UTAKUUlFLu4rtuf/px+zkZ02pK/O5q8jqWxT5aLrSEKkxQgOzvCkOj78OxsS8C8GaaSkkIkSnp3HTjkVLQgqLFx/5Zom/gXQCAzs5WCAiMjvSjHE+cX7gCllZaLj7qR01AS6hKBAUISmJo5D0YGn2vO8s0jysEraTNQuX+zkEBUkqit/9B7Gp9A5TKAioLlb2Bo+PTODo25Ryj3NemYxHVGpz8lQstoSpgCpCUCgsLy1j47p/hxo3r+OU3vBWXFpbR1tocas2EiU3YBq5SKmRoDW0OKlR9dFfrG9DW2oTxxz6Dzs4WAAqZTANGh3vQ3PHrGB3phZIWLGsDb+imivtwN+inUFVoCSWK3ST1LNHvirP96ROT8+hobwYgkGloQFvLLkxMztuvq0AxRO9e/F/pwW5bS2jLZmxi2v7+2KfQ3rbLmTgJQNnHTE08il2tb0zxTitJif2OTTkRKEKVwGicpntNKYXFpRW0t7XAnktaODb2eSwursR2wxGSNFIqHB2bxne//TXIrELn69+Mjte9GVACUglICbS17kJHewv6+h8EkBtBtyHJIzKWJbgOmxAUoUoQ6J/aCgKAxcUVAIBU9pdyrSfH165UyYIUdN3ls3jStYgqNYBxUCiHyZkzeN2vvQ3rV74DAGh/3f+JrJR2GxUCI0O9uLSw5GtnlWpD2pMQjNSrDGw3aUIRqiK6Iw30dwPCAkTG/nJQDDYgDmkMiwpAZ0cbYHxXsOzJkgI6OlpTuCsboWpUKJhDVTYUoYSRUuYdQVpbm3Fsah5KKWSlRDab7Ewyat1Huf+FHJ+tpTUjkhatLU24eGkRANzvtmVe2WjmuO0taBkV+qoGN998a1Wus5GhCCVKvIa/uLhsuzmUwrGp+UTOmfxrK0kZs8dNN/Gs3huWSqL74F7saHodAOCvvv1nUEoLkcDY+CxGh/uKP28Mkam3SVA1hW6jQxGqIpYlnMgjABBOQ5buc3GpRtOvl8HADweFUrAsgc6ONszOnkZv7348+sinAdhBNdJIL5iYnE3zNisI202aUIQS5Pr16wWjhtpam7G4tAKlspiamsfc/CkM9ncBAASjbUiV0dU6ZqYfx/LKFczNn0FrSzMAO2jGEhYWl1Zw+2vvxMhQL0ZH+9OJCqtasdDoElub0AyvCkJtiljL6rB2dQU//Z8/QkPGssVIwck8d2aVUkJJiZEH3g8lFZaWLwMAXvjO/wUhLFgZu9MDgHC/A2GNP+zx4EPCO9D5XQReYqQcRvQvyy2pIvyH5STL5lpNVmg5lvI6crx14I0xWKiQn/I9VOy5pczaPztJ1JcuLaG3/wHfcW1tzVhcXMHywrftsj3CgmUJt+Xk/o1zbywrZeBh/zHK/59zT7l3HHwsOHRFD2W5r/Uf7z1vnkOZ9ykEAAEhLFu4hYCwLGzb1oytXBcqC4pQglxeXcT1l/8nGjLCFSFAQUlpf1cKMqvdGxIjD/wuxp/4gi1Ali0QFKH8FBahjSFAQOVFCPDcwbq9SqlwdHwKFy8uuUfNTD0OwLaatLVuipCU0vhbb0QREm7nogglD0UoQc6cO4nX/NL/kVeE9GNhxUft704nr5IIhb3OJI4IRa0dJS5CwduPOmiDEDJUR/5a2rm9OnCAlyJgFjLV7RCAYwkJ3/W1COW7sdzIzOJFSCE3RK8WLKHt25oZIVcmXBNKkH/6x3/K+7y5L4vOuNYCVKt7tkSV/amnSCaSi3DTpL3Jgm6Dul1mMhlfO/W3X8s3ydC/m1+ExIEtJUGWnTWefAghQr/yvCK5GyR1SuWdFVo4otpnoUlS9ScndOBsFFhFO0Feeuklz1uhnDTzkM4ihOWW5jF/NvGej7+/UK3hXysg9YD59woKiWVZXmtOXAO0C9D/3aVGPQWkfChCCfIP//Cf7XI8MXqo6WsnpBaJE/mWe1zl68pVHwpgJaEIJcj3//n7dni2E/qaBMHF4XivUTW5xmQPSv51BVL/FApMKAg9a5sailCC/PjHP67IeQsJUa47T5QkREEXSBJCtnFmwzVGhTa2K4UwS6ie/u5hH6NSki7AKsEQ7QSxLAsdHa1GuGehjmjkIRhENf0oUQj9E/pCs+OdqzQRKqKj1kCfrsYt1GSHKvqmKvcu8p1ZRYhXvrYYGhRepkEWNSzq+xBOyPZf/uW3GKJdJrSEEuQDH3gffvijl9yABFuDzIwM/0+a8O6V+2iwWoqvnxjJPuZhYxMz6OxoRYdTml8/H9andU0797gEvWVxhbD4syR3eKk89vgxvOvBodJPkNB4nze5NZkThz5Y8o7AwdwghCSpOg8E0pP8Jykql9d/vD99KexVIbl1OnHVsihACUBLKEH+5V/+Cf/0X/4zlHTqTelZnZEUF7mnAiISUE1xMVRBiBDLxf8iCABNrW/E7NRj6OhoDUlWtY+KSlb1i0T+ignxKWNNqEaTVV+zvQPfu3qpIucOTmFCnkzuzAXPZ6RvRghT6BYieS4UTFTNGx2nTO9CMAFVITzjREV2OfdahjB51zfdcX7hEc4mf5mGBrQ0vy7kmqQYaAlVGbvB2+s1tRpAQGqNGloACsETngq68FSw9E/EMQFK6V8sVlpdKEKJk2+tReU8plx3Q+FGHxaAEAddoNK0eOJUQg67NxX7qoTEp1IOGaWkawklkRbhX2llT0gCilCCbN36qlSuq33ybpdw+jO7CKlllIp2lUUhjQld0B0n2OLrEopQhSh2ZhflmjMXfS3zeQXIKrto6D4kpeLvD8W3Wxljj/FC0Z1BT0JwTSiOpSSVhFXHVUxqEYpQ0uREsMXvcGFRRmY/Mp8PVsjOR747iHMGxq6QjUdInJ2SRbX1wikYJA4UoU2KlMq3LhS2tUQYZietLauothfvyyfp97fRPy/dVpWzjplMW2W5reShCFWM8E4unQ2+LEvkCEGxKCkhLMuX4CeKCHt2gxX07ea/Ws5BdM+RSpMvBymY2KpU9AQq11VnPlnEDSkJ0B2XKBShihHesi3LcvOGYkWoBeqt+URHiJCOKHMqb9ebTIRVbyYkSZQK3+iuEKYldOurfi7BO9q8UIQSx0hwK9PdoaTMWfaJKmviO6aEoqek1qk911ma9eGiPo24bmWzfxaTJpF7DlIuHKkqSNAF4G34pXK+fK+TMpbY5C1OYiyaXry0XNR9B++HEE0pm9YVG3FtVBgAACAASURBVNgipYJUyu+K0xUNnL4Rp3/kb8eltXG3X1F/EoOWUIJs3fqqku0fKZVTHaS4aDorqTWZFLJQzYGsfJcb02g3AvmEI97ELPd8oox11yA+DwOjRhOBIlQhbDGy/5cxSo6E4SbzGVhCQCqv+oE5W8wUyIswH89x1wX6adygiaSCE+qp9P9GoVaGUFt48t9NKQJknj/OZC2OxeZbc+WcJxEoQkkjwsUjKfJFC0VZRnb+gz/AIUeIyjAkSvepE1Jb5BOiYPtmhYZk4JrQBqPksvqEFKCerdXgGmw2Yj02Hrb43HXX25K9yU0KLaGE8Ta0K+BeiMy2TsC1FXOtKKxacOWj6ko3ucQmXPbJu8ZYpXzTehIf08K327cquDFWsfl6SkkIMFcoKShClUALQJUGCWXM5kTGvra7blTsuYxOXG4ybTibTEUSY+NXONAUlTsaUtA0t0achEjM6SOcf6yinRQUoSqjlEokqkY50XRhj5vRQO3tLWVdJ3kh2oTmTB1S69aPilHQ1H98cLM9f9HSUtp5OcESxIMiVEHsEj25ewhF+qHdEG3hlvWJ8qrl6y7aMtJipJRRoqeI/YS89+G/30yB0igMUKg/dDmpMGqtPFPcdU8ddaeAHPe0titNl3S+/hZ9flIuFKGEueWWV+FHP/yB7zFz1mY23PCdIDM5x8UlqyQysFyhUXnOoc8fJij6vlh1YeNjWjz51jF9xUCLGKmjzqnbX/BZbxO6YoTGPlMxDgbfxhKFKoxEvF1W0U4GilAVcTue03iDQmNlRMkCIPU5nZmdZbw+X8B4JZxjtIjqj6CVHtYOdT6xUoU3kAsTH1Mwwl8TPaiHWT/FTNRyqpI47jjL9RbYQuQr+5Nh+60GnOpWAClVpL9YKa9sz4Pv/hCy2axTTNEfMqpze2SeL/d6IZ03+Jh9jZDjSrC4ygttZccunWQ/O20FmW1PKYkXLi6ib+BB9A08iCfGJr226LPiA4O604b1V+61SnddaQFSUrlfMpuMK8z3nvI8ByDnvd3IZhO5h80ORahK6A5uf1d4/a++GUpm8dB7PowH3/1BSClzZqMFzxkQI412w0klbReFb10qTRcCfei1hru7qJLIZrPY1foGHB075tZnG5+YdR6bzhGiSmPWj8vnWi77OoGJX/C5qEnXyvILFbunzQTdcRVER8LpBqwFSM9AH3/kk7iRvYE7futeLC1fQWtrE4QlSnJjmZ1UQsGSen6hsLB4GVJKCAjX5ZfOeg+toFrBXAuSUmFsfAZj4zMY7NuHwf4DELDr+Qlh4djMSYwfm8XIcC+EJSGlBUuIRHfczRn8A+KTM9nKuXbUmpDjjFYhj7qPCV+NubDtUEjloAhVCW8dSGJm7hT6e/cDloWMaEDLrp2YnT+NluZPApZ2jzgvFOFDtxmGbXZUve23+7N9hGFl2X7wJPKBKpNHRKqGMUEaG5/BX3/rKxDCaU+WsAd1AQwNdAMQaGn/Vawsfbvit2UKkBafoCWk23MS7U9H/9k15vRj+SdqDEpIDrrjqojuOHPzZ+ClCwk89ugnsbx8BQAgZXl+Zu0zf93r34TJ6RNYXFzxWV9KhbsWGG66eQjmAB0dmwJgt8dDD/0efvmNb8Xk9ClcWrqMFxZWMDjyPowfm3deW5zLOM6xyre+6Rcg3Z6npk9gavoEXveGN2HBadPF3oc+Pp+LzX1cFBAazr0SgyKUOMIJMzVdcJ4v3Rc5JiwoJaCcP0No/kNU7oaxSGu/VjodV2Fy+gQAYHrmpHt8Vto+fz0A6fsyCXbMMB95ofsilaQyH/rFi8vo7z2A6bnTWFpeBQBMzpzCyAMfxOgDHwAAHBv7IjraWzA49FBRVkDerRmi2pchQNJZq1pYWsH0rN2eH3zog/aaVUhAT9heXYVFR58rd13WvEff69n+E4MilBJ9vQfsmlb6K4AZiZOzwVcepmdPYXbuFHq696Glpck7l5ROoII/wqeSm3RFRUqR2kMBmJk743usra0ZL3znGxg/+gja21tRVCZnuffjEyKFlma7LX/pS58BALzrPR/OsejiWEVeIEZ02wx7PEcsaQklBkUoaYzGmXcWCNsfJ4RAvr5jdogoIfJyhBRm504BAA527cXBrr3OOWCHghu7Yka55YqFbryNwdLSijtp0bS1NEPnWevF/Y721rKuo1Q2PArNmWhp8dEClM1mkc1msbR8GT3d+9Dc1Iie7v1YWr6CpaXLzjmj2qBfcEwB8u5HWz7h6QuhOx8757p566tL+gyIH4pQwlhC+BZRw8JaW1qa8K6HPggpFW5kJebmTvqez+0QfiHyf3kLt6YASSnR1LgDzc2NAOxjzZwk39lD3HJkkyEEHv3ip9xf/+rbf4re3gPOxMfO77q0sFSVW3Fda04bn509hZWVVehtv7WVPzt/2rfWGcR9LG9zNoN2jP4UOF/QrU6SgyKUOF4dqtBnHZeGgoByOoBUCi0tTSVv1a2kwvTcSczMnsLBrr3oOnA/slnbl97UuNP9Wbr+c88ainX+ItcAgl+FEhlJdTG3UrcsgdmZx7G0dBlz86dx4Zt/jL+88CeOda5cF9yxSTswYXS0L3Z4f64FEd6OTAvfnFTpXKXlFTtop6trj2sZHezai6XlK+7EK0iY1aPPH5bw7bzKfw9umw27b25plxQUoaQxqoRGdbre7n1YXr4MqSRuXL+O4yfOomVXY+QpdWcM/m5/2R1nZkZbQXvcWduJk+dw8tQ5KAXcuHHDsYT860JRiXrFRj+VXkWBFKJSg52Zj3Zl5a8xN38a8/OnAWEPsErZ3yen53FschYjQ70Fz1lOW3CrITjBCPaXRFPTTgDA777/I+5kqqlpJ5qbGzEzdxqLjlsOiF7riUrsdl1/KhDoE/BGaPe1bQ0xPDtJmCeUMLdufRX+G/5r3mNaW3ahpaUJ733vR9yO0duzD4CZs+DU7nL/Q2QpIB011H1wrztzy2azOHX6vHOEwo3rWVjCgmVlIYQFISSEEMhkhJ07VMN1sqSUvtn75iX5PYXspFQ7R2Z0pA9j4zNYXr6M1rYWLC+tAAJYXFzB8sJf2jk5eaygUktABVHSs2LMiM7Ll9ewvHIFLc2216DrwB6srPwBZuZOoa3105FWdpj4kNqBPTthFACpvFyfqI75pS9+Eo8+8klkMha++Y3n854v5zFjTWhp+TJmZu1ouK4De9xZqBagPffdYwcmSCcwwXAv2IIVPHe4NcTkvI2JtoYsS+DQyAAuL/0nvPa1Hbi8cgWWJTAz+TguL/0nWJaIdMMlYQWbAQnSFR8vfLqxcQf27bkXp06dc62h5uYm2y23dBkzs6djX0dJBZVVCCbAmsfY7yu80LD5HCkfilBFEL7oMy+fIXfR85EvfDLn1VGLrGGuhsXFFQBA98F97mMnT53D6TNP4f777tHxQchmvYgjWcTaTOy8oSIodl2IVlAeEjRgtdAcGhnA7PQTmJl63H3MX03b2+8qrvjEaTeuBeQIj3bJ2f1G4T5nQnXy5Dn3ua6uPWhubsT07Eksr6y655JmJGggpy54TTccPCSCznx/tesrqG/YuxNHldRag+HX+RbzpbMeNDNzCjNzp9HTvd94ncTpM09iz333YPc77waUcjbvMoVIurNMM1w77vpQUmJEagMhhM8i0l+m+JiPF0uUGznKFacDaLTQ6D6QzWZx/+534MzZp7CysuqKik5FmJ496bbpKILRpaH3GxHUYP6WybC2XFJQhCpAqTOmOAmpZgebnT+NlpZd6OnZ73bUEyfPAQDu2/0Oe5anFNbXr9mLvUYgQw5Knz++laLFqBRBKsYaouujOphiBBQWnlJEKRi4YCZSa1ecMgJobtzQImTnum3f9hrs3Lkdp8886QYwtDQ3ofug7ZbTkXTmBC6f6GivgDImZSZmVYYg3N47GShCSROxxmI3bq/ysFcjy4t0s49TPldC8EszO29nt/f27nfPv7xyBadOn8fe+3/HO79zP2vrLxolfvzrQpFvpcRouSDlrhfQHWdSeaeQFqPgVykUO0FRPsvcFqX19WsAlJu8euRjH8Lq6jpOnjznWk4Hu/aipaUJD73n9/IKT7C/FXPfQuh8IU6MkoS9O2EskW8RM5CHEJx1SenOAPMxN38Gs/On0dd7AM27mtyOu7Kyin177rV950biHeAFM/iuV+TaTL46XJV00RXu8PTWx6WQu6q4c+VfEyqmPQTXbNy9t6SyJ1DKC6c23XJLy5eRdTaX0265d7/395xzypwv/zW9z8JXmcR9LGgVeb8LIbD1FlZMSAKGaCfM7t378aMfvWQLgDIbd5QA6O/+gdT3mxC2SePMRnXF7Z7u/a474fiJMzh56hy+/MxJt1OaPPXUc2jIZPDkk88FZrhmvohwL1cc/rlM6OsjzlmpLcCrLUtd3cN5n6+JDKqibiJPBYI4rw49VBn/B491ggeMAIHt22/DPe/4be84bclbErvf+Q6srr+I02eeRGvLLifh2059WF6+gve89yN534uHsLe4j2wwwT5hwbLsbc8vXVrMc14SF4pQwnTe3oYf/OC/u1aNLURmoqmC1J0iUFbE1xGMRm8+tHzZjgDq6z3gnM+ezZ04eQ779t4b6ftWCtix/TY0Nm5HQ0MGGWfDMm8BOkwQ/Ntx50uUN1/r+znkJ//ros9p3kekWNWAEfQ3Lyzg9tvbq3fBkhUtfiHcsGv6X6p8N6KUirytUPFScCvNQ7vfnERQXeFj+7bX4Kmnw9MXpJK4b/c78PDhT2F55Qra25qBTAZfevSz+LU73oyVy6s42HV/4H79P7rTv5z0Ky08ltu+7P6RAYTtHs5kOHQmBT/JhDn88GFcWV2CzN7AjRvXHReAgsza3+0OaSzMBlwEeqwVlhd9o8fZ4yfOYXn5Cvr6utDbsx/ZrD1rnD9+BruadmDP/b+DbFYXM/Wf1/arA/fffw9ufuUrsaWhAZlMBg2ZDDKZjCNIdqcLLk4HcbqoF7Yr/MeF5ZPknkd39Ahxgj0u6GTd8HWhEhTId+LcM4U8VfBajz1+DA89OFSetVOmqRRqY+Q5Z1R9QhV2GhUQHAAyG7Tsw/fB8h/rFy1A568po0JCFi+//DKuX7+Bn/70Z1i5vObds/MaSwJKKOzcfhvuv+8e/N5HDuPrf/KMPfETAo8+8mm8570fBgB07d/tXC/4nuzvluVZYr6/sRBOmxNun2hoaAAgkGlowCtu3hr6fknxcE2oEgjAXNvx9ivRa0L2YTp5NOzL58t2BEVH/vT27Hdra83Nn8aJk2exZ8+97mNRrK5fg5JeGKx9bypnQPL7x5Px+dcD0QIUlxJenZCfLu6Vk1wT0uRrB6FRZcGUg+CmdobVdfXqtdxzKi+x9b7d70Bj4w588EMfdftOa2szWlp24fiJc1i5vI5sTv/yojqzWW+NM2v0U53X531ewovgkwrlbj5JPChCieOFdGpXWdh2DFFi4SXP+V0n8yfOYnllFX19Xb7jj584g/1734nGndt85fBNdu7c7l3fWEzWUXK61I85OAWFKHcwKT6oIfT9luoeKoUIKyjeC/Njn7aEk1fZnWhZVuxow/gFZ8OCcew2E3x7YQEAgH/PLLfOm7CjOt17N6xmMwF1z3332CV9lr0acjpq9PiJc75jwwIgfPdt3EcwedVNpoXCzTffWvhjIbGgCFUAu/ijtCtlGyHZwXHY3Mo4p3MYYgQA88fPor/vIPp7u9zXzs3bRUv35rGCdL9tbNyO8+eftV/rZpGbIdjS9z0Mtyq28VjorpN1RpI64AmR+VU7xLWEipscxBDpiKhPr+171bMBe6BfdwRo9713h55Ti9XOHbdh3557ceLkWdd70NbSjL6+Lly+soZTp5/MyWlzozzdiZg/ii6nCrxvJ1du6ZAkFKGE2br11Z7YGA02p5EbAqQJKzOvpMLccTsBtb/fs4Lm5k5h/vgZHNi3203yi4u5D5HOTrdv13Mf6t9DKxInGJqbj2oO3+W74sw4x+BnUztiVIwlFEWhATjOFg5hQmj3i6z7+tW1q+5zejJlCZFjEUmlsHfvO3H58hrm5r0acn29B9DW1oyTp57E5SveuXLdgSHu8IBgafFxhSi7sVzRaUIRqhCmKATdcUEBCoqOWc/qxOnzOHHyHAYHur3zSYXllcvoOnAf9u/b7Tt3VEWET/zH38ea06lNd5x9f9LXyexj/K65ODPjShY8DUvYLZo8AQnRxBMPM7DB/j3s88pzrkQ0qvBJwj/D0mf1wYTmYgRIuWs7fvezgtc3du7YZgTr+N+fV2vOtlQ+/cmHceLkWSwurbjn0lGkp04/mVupIUabjmrH0bGApFgoQhUgbCDXpr97jCFA+vcwATl50q6GPWCI0OzcKSwvX0HX/vvcoqRBV5wlLFhOlJoQnj99bf1q6D3GqRQcttuk/Xg8Yci3LlRsGZ8kF9eTGU6M2bn7SMoDVQWMr7gTjdz6g/5JhFJ+ATHdcbofnDv/LBp3bovIOXLOa1j0TY3bsWvXTswfP+2er621Bf19B3FldR1XVvUkzEseD1sv8q3JOkFGdtAC3LXeV77i5iI+NZIPilAFEJblpQAp/+zQt3GWIUD278qI5JE4ecoWoMGBbt9rZudOortrTywXXFgItFIS2RvSd13vXvNXbCgkFvEGqfDRsfgKDkVEKBUYkJMYr0UsIaoNt1ySFHLPxq607Vj/QStDmJtqhZ1feS7u/ft2Y2VlFXPzp9z2PdB/EG1tzTh95qmc10V9eds52N/NqyulkGV0XGJQhCrALVtvAeCY7HpDOuUvGxImQM6LoKTE6dNP4dTppzA42OO3gmZPoufgXhzYf1+k9RRFY+MOnDv/jH09eOXr9f2ZmJZSjuVhhptLHVJbjGVSG66MSshBmkJUaXmLnmAUdsGFny/XFQdl940rV9YBALt3vyPeuZzggabG7eg6cB/m5k9jcXnFfX6g37aGtBAF8+iCfcn1MOhI18Ca0L/9hX8T675IYShCFUCIjOHm8j8XXP+xH9OuCU+oTp99GgAwZAjQ1PRxzMyexMGuPaEdPShIQR+67z5uhEXGFbJy6ngxNuKt5Q9IKG1YF0ZknA5SLuiaSyIyogDV+PvlWyMKbk0Sli9kHy98QQkay0iCDkaW6seUVDiw/z40NzdidvakO9Fqb2tFW1sLTp99GleuXM0N2dYaGPBU6Ne766j13AdqFIpQBchkCn+sYQIE2OPQ6bO2tTI42OMeL5XEzMwJ9Bzc60XtGOXv87vm7NFt3557sbrqdW6ZjXbJ6Z+TzuNJOrS1qEEhNU9YjAvXkJcuKiKyGMLEx/+8V8RXuSkD9nH6o2jcuS3nvFETK722pIXo4IH7sbx8BQuLy+71xo8+AsCb4PnuB/79u4JWkfk+7L5SG9b8RoAiVAGEsAKDuScUwZkb4E9cvbJ2FWfOPo2hwR4MDXS7r5mePoHWliYc7NqTE+RQ4GbcH5uadtjXWF33Mr8jXHJRg7v/8frtiJUe831rCM4jfmuohlSnAJWaOASrGACAUragrK1dQ+PO7b5w7JzzGMmtGr03UWPjdnR37cG73/0hn4iMjz2KK6vrOHPuaX9ItgysCQX6qt/zILB1KytoJwVFqALceuurCkaOBQVIdwbXDTfU6x47OTWP6ZnjaGluch8rtB6UzxWnyRoRSaZLLrgeFGURVbXaQR0SJkQbmThrQWFbJ3jPeYv9q2tXcf/9vwMAbrX3IKZAmblyum90dd2PlpYmTE+fcK/X0d6C9vYWnDn7DFZXr/lc4LnvR+f3ebu96u0luKFdclCEKoAu+OhuzmXMqrzoG+kTIAA4d+4ZrK5exdBgj8+1MD1zHH09+9B9cE9O6GuUEEU93ti4A6urtk88m83CzJvQSXqmEOW+L0+8oigUIVcr2ebVuIvcsq218d6jiArD9x8jc56P2gAx30Qp6IrTXFlbDz0+zsTKVx9OKnR37cHs3EksLi27ieODAz0AgLPnnnGP9cTFXzeOVB6KUAW45eZXhD4eFpBgutXOnHsG7e2tPitoanoeANB9cG/BUFiTYIcVRpa8zhUC7CrGbq5FRF5QoQ5ZaCAKJ7nBuJxE1mpXZch7xQrqU7UG1Jy1IITnCAVdcaZ72Fy3LBZT2KSSaN6107aGZk64x3S0t2BosAera1exvpZbINX8G+lqJ8GnuaFdclCEKoBd3FD4yvXki4gDbCsIAIaMYITFxRVMTdtWkInpQy+WXY1eMVMzF0JvKCaN70DuzDgsEbcQ9V1tu3xliLaGasc9lz8IJfzxYpOV9XWizqtgR8AJIdDUaK8HCXsHudjn953P8UI88oU/xNLSZUxOz7veiaHBHrS3t+BjRz5dxL3XczuuXShCFSJYITiYie1t06Bw5uzTOHPuGQwP9aK9vcV9zeTUHPp699tbN6iQGZmB3WGjO6sWO9cd5+QwXb+RdQInpLs2JA1xinpP+hlfvhCKtYbqgWSFoqA1VDu6FErcgrX51gu99h9Y/HctoXU0Ne4o/t4CHga9FbiSEo9+8ZOYmTmBSwvebqhDg7bH4eEjnwm8TuWIss+tuBGadQ1BEaoUIrdagmcN2VnhupGfc6pb65BsJSUmJ+ewuLiC3u59PmEodTYmQopWmqGo+Wp+5Q9AqL8eWVw1uCpeM2EBSqTeXgLXB3ItLR3m7LrijE3yrpThjgu9D6XQ3NyIlpZdmJo+7vbL9rZmDA32YG3tGlbX/EEKOdGnZtJ5Hbb5WoYiVCFst4L98eoZnv2zf0A4++RzAIBhZx1IByRMTR9Hv97CW4ULRT6CC8KuJeTkXqyueXW0XBecTswLXXj2+/qLHS9z9m2JCqjYwBF3/t1bK/U+K2dKle6O8otP2ECv21+QqBDtfKHbAHIsLSUlerv3YmnpMo5NzrntTLu/zz/15ZjvRWDr1lfFPJbEgSJUQXJK4QQG9LPnn8X5889ieKjXFSEAmJqaR3/vAfT27PPlGgXPUwymJaRdcnqmmpXe/inuABGyIGvmPtnHSHhTxKJvKfw+S/T/a4qZ+deG56s27iIJCq0j+h4LioRzyGWnXM+ePb+TzD0ZCd0tzY3o69mP6ZnjvvudGP8S1tev4amnn3fvzX6tGeHq9RGSLBShChA2UwoKEACcD1hBAHBscg6TU/Nobd1VkgUURTAfYm39qusiyWazbuh32HYQYWtD3vuIF8IbfLzSFBKitIYSEfJTPVPKpoY5UXFGSPXqanh4dln3aKwV9fTsQ2vrLow+8F4jd6gV7e0tePLp57F+9Xt+a82pnu2yMf5sNQVFqEKYE/owN8PZc/Y60Mhwn3OM3fAnp+Yx0HcALc2NAJJ3T0ml0LjjNl/HkllzlufPQi80yPj3ICpOcMJzUGppppnCvdTQ24/+m+fJ/ckTPWkO7vbB4VZ9kxPBGScvKC7mlhG9PfuwuLiChcUl1+LXQQpPPv1l4zV+74N+b5/73BcTuy9CEaoYUnnmfBjnn3wOI8N9vpDsY1N2TlCvsxYUh1I6amPjDqyvX3OFJyv9lkuU8ASTWOPWGEvDGip399BKIlC5daFKTdRDC+YqCSDaRWUGI0jjezabdb+kUsjeuIFs1raIVlevonHndl80aamYVr1ZY7GluQn9vfsxNX3cPbajvRXDQ71YX38RTz/1vK+Wol6nlUpCAGjINJR8TySX2u2pdc7WV94SeMQbHs460XBagKRSmDg2i8nJOQz0ecEIcdY28mek51/8X1/3EvXsTbuM9aCAcASj5QpteBeXSllDOZ8d3ShFkdTah0B4jUT799zyNzpgRlh2ykGhAATAq64dnJCZaQtmBW4A6OvrAgAcm5x1HxsZ7kN7eyueeuZ5XF1/0Z5ISuUKkf9dkaSgCFUK4Q+B1px/8jmcP/+s64bTTE7OYbC/C/1O54h9mUKWkPJcbJpgdeIwS0VHKwWfyw3l9lfdNs9X2Oop7NYplWQsoWqWOa3iZYskbu5XnERms6KBJhsiRkkTLHKqpHStoYuXltz3ODxsu+WeeuZ5/30bVt3k5NGK3utmgyJUIUz3g1JGRNy5Z9DR0YrhIU+Ejh2zZ2P9/bYAFeqQSfjKd+7cjjXDErpxw6sjF8cFImNaamkRdW8i8D0tIq+f9o3FIU/zyJmQGKkJwVI9ehdhb2tv+/tOo6pH4rdutIu21ma0tTVj0nGDS6nQ2d6KkeE+rK+/iPX1a+7ES+9zVBd/nzqDIlQhdMMV8GaSeldT0wq6eGkJxxwrqFwfeN77UbnnXr/6Yuh9+/M64oWm1poglWcJVWek8daF6mdkK6Z1SimhgByRMXN3zN1Vzz5pu6mbdpYvQmHJ2b57c6559LHPYXFxGROTc+5zI8P96Ohoxcc/8bnc96OArVtvLfv+iAdFqEJsvXmrL0Tu3LmncfbcM7bfua3VFaaFhSUMDhx0raBKYQm/fz3okgurnhwWqh10yUmZu17kP29ukEPcxNVKUUMBaHVHlFwWcp+a60LBPXvMczfmEaBS8uPy3Qtg3/dgfxcmJ+dwaWHZfXxkuB8A8PFPfD7kRhK5DeJAEaog9qKstoLsWZ7phps4NutYQQerfm+NO7f7AhMALzghCf98IrlNeaILC1+/3PdQvyNN2nZVVM214MaOWpB0e1sztvROIjqu4H061+3v60JbWwuOTc64z3W0t6KjoxVXr77oqzqf9me7EaEIVYj/8O//d/fns85GdXp2pZk4NovBgYM5eUR6sT9Ye64cojqzFqKccGxlbugVvidQjvWULX2fodLeZ30PCcL430f96p9LsIBvFMGntIWuo+MqRbB00GB/FxYWlvHCRS9IYWbqCQDAU08/7yV2S8VtHBKGIlQhtm59FZST92BHw/VjdMRvBbW3NbtWUNSsz6pARxSW5XPH6U6ngxPc4pKB4qvu5l+hOSP584eiKXxsKdZQLecJ1ReF9wcb9AAAIABJREFU1gKDrtlwKygYFacDE8z1otW1a/b+QwFrCRHnzHvXIZZwVB9TyilmOnAQwyMP+Z6bnnoCV6++6JX04XYOicOeWmH0PkGmAI1PTDtWUHfO8cHOU+n1krX1kE29lLGIXKDTxc1nikPke1XFC1GtBUpEUam/bq28/2CVBD2ZAeC+eVMYdu7wr1UGyd2sMTwPKCwwoVDe0eBAN9rbWzAw9C537bOzw3bLPf30l7G+frXObe/ahCJUIZSSOHvmSaytrYe64YYGutHWuqvg5nSVsIQ0O3duw/pVI2E16ywWK+lWfDC3PTYJyxmqPuHXtyyrriyh0MoJZfzZi/2r5Bf48BvJNznxC6AX9h+0QsKsEtNC9wcQON8TbHNaIHW6gVIKQwPdWFhYxkUjSGF0ZAAAcP78czXQ5jce9dNT64wLFy7gzJknfW44KRXGJ6YBAIODhYMR4laUjpNVDhTyzXs+cjfZNKY1VCqVOm+hStpp7CdUFCVeujL7B5XmLlUhogP4w7PNcz8Z2EohGMFmP1be+9LuuHyBN22tuzA02I2JiWmfNTQy3I+1tav4ylf+tKx7ILlQhCrECy/YOzj614FmXCvI7y+vYASQUojSnsYd27C+7s8Vyma1jz4LIF7iqnMl+/hAHbokieuSi7KEatGVkkRV7WpuXFfsap+2NIJVEoDcoIRCrri4RE3KtDsuaoNHbQ0ND/ZgYWEZ4xN2tJyUCodG7dyh2dl5XLhwIZH7JDYUoQpw+PBhHDlyxOeGk1Lh0sIShge7XSvIt3lcxGyykjQGtlBWSkJms+4s1q36IP2Rcq6lFPM6+SyeYq2hylfZ1uVF64NyxKfYEPjcSUWR63TG1g26VI9uY2vr13Jy1+zX5F6j3LBt/xpVrmUkpcTE2COYODaLFy5524Frt9yRI0fKuj7xQxGqALqRBq2gS5eWMDSYG4wQRT53XJyF2LiY1pBdtNFfZysu1dqGodDgmeaW1qWRjo0mhAhtY0lWPTfXXfyuOD9hATKeOxgwBS+u+9nE7C/5+oq2hjraW9De3oIJwxrq7GjF6Eg/Lly4QGsoQShCCXP48GEAyLGCxidmMDzYnbNpXDCM1STvQJuza6ss6nkgt2pC8Lph2zCXS3gJIOV73v8IqRQ6CKX41+VWwfDy2oww7TwTgVpb4A9uuyKldIIUljA2PuU+Pjpiu+VoDSUHN8ZIEO2GGx3p99WHmzhmC9CQI0ImwhKuEAnL8omFECJSiCxhIYuscR4LyGbd8wUtpSDmtZ565svYcdVJEgSQachg3557gYztksvAHjQsSwLSgnS+W5aElBZ8E0sdxaRU2Vt1R957gfPWU2Qc4NWQU8EHK0ywfVXykq4rVylcvrKOy5fXbBGEZwfuMNaEzDpzQaRSRVtDUklkkHHPLS0LlpR5raKO9hYMD/Zg4tgsOjvb0dHeCssSGB0ZQP/AAzh8+LA76SSlQxFKEM8N1+927rHxaYxPzGDhhb/wCZBXXbg0SyiKYoMcdu7chrW1a1DKLHUnsG/Pva4AKSmBTCbveaSUsKzcY2zxEu7sWTjiqB8H7Jm1EPnPb6I/lygx0q64ehOjZIj/9w9tXxVQIl01G3CSVpVy3G/K1+52OpZ5IRdwPgGKEpWgOy4qQCHI0GA3Li0uY2x8GtOTjwOAmzt05MgR3HHHHbjjjjsKnodEQxFKCD0jGh3x5wRpN1w1sISAtLxZp4fnXtMdz+zoO3bchj/4/Q+4nTtjWe7MUQuQVAqQgGVJCMQRpOIEwBYiT6Ds+yjNkqo38SnVXgxf94oXWJHU+l3UeYJh/vbP9mM7d2zDxz72Qff3p59+HmvrIRXdtVs48H5KsYTiol2KlmW534cHezA08h5cWljC7Z1tAOySPrtafsUVIlI69dVbaxTTDWeK0Nj4DDraW3zBCEmGYydRW6vRcYGYnVrfoldiReUMJtLNKwoZCMt8i3HeVT6XXL7AhNpaiShAQuOsDuQwv4pFi4oo4QMMS3YWxpeCF54dtf6oVHl9J6ydxgm6kVKiva0Zw4M9GBh80LeWNTJsBynQJVceFKEE+Na3vgXAs4KUUo4bbhod7S0Akl3cLwZ3jdgINvBZQTu35+QK2ccp3+uCPwPewOR1TGeAizl4BoMU3F1d4708knqrmBBKAgJUThVy5ww5j4QXsw0fzLNhxzquOeWcPeruvE0hCwuFV7onfjSp/br4bWR4qAft7a0Yn5h226zOHTpy5Aij5cqgzntq+hw+fBgXLlzwCRBgu+FGhnqcKtm1Mf/Odx+mECklc/z47jnyzEbLC4su9TMq7nWFx/Y0/1bpp9P6JwXBSUb4cfrYQn9/t/0pAMaGj+vr17Bzx205E59iLZ987TuOJRR8fVDAhwe7MT4xg0sLS+77Z+5Q+VCEyuTIkSPo7GzLccMBwNBQT0p3VT5hYdr5yvjEnXFXowpx+XlC6YtBISqRB1Vc2HS4laW3HzHbja9oqfNak/WrL0ZW9XBOGuuOyrWEol7vzx1qdUtvAWDuUAJQhMogLBjh0sISxiemMTLUkxvtlmJuhLlJmPkVmStU4F7jvJeombRS0vel3XLBbSJqLZeksqQnfGFuUfvvEO4utR8Tzs/+/CDf8WHbKVTQK1ANj8P0sUdx6dKST4gOjQ6gs7MNd955Z8WvvxGhCJWIDkY4NDqAjvZW9/Gx8WmMDPWGWkHFBhIkkWcTjCwKEw+7mrZ/Xcg8zLSCgmHmUUIhXavJE6KoL3PQs18jfQNesWJUj2tCOleoEHGtvKQH+2CCql94PAFyJxaGS82slGBPhLzzrl/9HgA7QtN3PSf4JWeL+QTfV5Q7znQthn2Ok8e+hPGJGVy8tOQ+pt1yFKLiqa+eWkNoH/Ch0QH3sbHxabs0z1B4SHa1LSHlDhj+fVzC7sPc0gFwopYCod4ywrJxz6vspeZ87zMsUssUo2hRi//ZhQ3UtV45O+6V4whsOfXgwizRoAvV/ptlQwXI28Lbv64Yem3jPrUIhUXSmZguM7sgqRX6nPl81OQvKjCh0OSvs70FHR2tvkoKdMuVDvOESkC74UwBAjwrKAl0nkLSSCVhCaugIK6tX8ORj38m8etvVH5pW3vat1AztDQ3AnDCqqGgNyVUUNh9793YdtsvuQJ0NSQyMx++LR6kgrS8SgiVxhZbe4+v4aEeDA69G0fHpnFotB9CCBwaHcDY+DRzh4pEqGpVndwgmG44LUJSSoyNTwNKYnioxxcODYRH+wStEv/Cv3LP65tlGjPTbFa67opsNptTKFI/99Qzz7tbE9crnZ1tmJ16AgBgZYRrNYTPWL3HquWSe832Dnzv6qXEzxuwUfyTkgK9Nn+3tp20rhWkvwVcbuMTMxg/NlvEHVeO7dtvw0c/8rtuX9JWj7AEMpkMLGEhk7F81RAyGcu1hLzvIqdiQvBnwG5buv3k/mwfM3FsDmMTs7i8/NduW7x4aQl9/Yfw8MMPM38oJrSEiiTohtMCNDY+jaljX0rz1sJRCjt23IaP/v77AXhRQua2yKvr13D4yKdx9vS076V79vXjE//xI9jVtNPtuJlMBsKy0JCxYDmd33I6uWUJp5NmAOGJhLbqJqeO49jUPAb69qHv4B7ckFnIbBZ3/NY70dbWjPEnvgjhXEOfc/zYDI6Oz+DiwiI629sgpXIrKUTVp6u39aA0iOPe1AK0dOmCPRECkL2Rdd1xU9MnMDN3CruaduALn/kYMhkLSgG/cdd9+POvP4usyiKbzboTpbffsx+7770b77z37a6YPP3MV7C+fg1HHv6w//6MrUOefvorWL/2vdC6i4VqJAaJkxsUXlk8twrIyHAfLi4so2/gAcxOHwVgu+U6O9tY0qcI2FuLIJ8bbnS4Fx3tLZFWUFKYi755jzPWc8zDcy0woxJCILlxx45tuLJ6tcQbNa5pCNALf/V19PfutxfibU8N/vzr57C4uOJafqbVNzJkF4I9Ojadew1SElHRiibjx+w0g+HBXl8wgvcahZm5Uziw7158/lN/AMuyoJSAgMAXP/sf8Zt33eOLyLx8ZR2AVx9Os75+LScoIUiSzppitiaJwvRIjA734tKlJbxwkfsOlQotoZhcuHDBdcONDPe5rpGxcXtwHI7ICbKESFSIhLBgQSIbM6nSzQ90K3UL37qQMIqLrq+/GBgQFNbWrtq1ukKKmGqfvBXmkw/xlA30dTmRUUK/Gbz3dx/G5z71UXzhs4fx2tf/Fl74zjeMe7fryR0a6cPR8Rk0Nr8u1ntOg9ds70j7FirCyHB3biCKlJieOQnAduydPPsMurvuh4CAUgLNu3Zi166d+OCHD+NTf/hRKClxZdUWoe3bXuPrD+tXX8zZUdW0gjwXdv72Hgw+iN5dNXreXUo9uo72VowO92JsfAq3d3rW0OhIP8bGp1lpOwYUoZiYbjhTgAoFI6RhCeWLSNLCYwpRcBDQM88d27fh2rVg6LYqaRn42NQ8/uav/8y2dgBICLzx19+BlpZd+K237sHBrvvs80vpuOS81x4a6cfFhWUAwNy0szbkDjrhG7PZxxiVk4saXwT+6PEJPPb4MfzttYWCR//StvZYxxUmGFCPHIsy1lmcsjjh5whewZ+blZX23lfjE7MYDmnXum3YVtBurK5dxfLKKlYuX8MjX/g4VFbZrljkysbOAhZPPRDmAh4Z7sPFoYdwdGzK9ZIcGh3ApYUluuViQHdcDHRpnig33MhwT+Rrk6r2K9w1F6vgOaP85MHcjaBYrQcEZ8eO27C6ZpfczzmXGWSh94qROuQ6PMdCiIzz1QAIe/7T2tKI3p59WLm8jubmRkzNHLePDVzv0Gg/Ll5cjOWWCwtjrvfom/iRkirvr3EYn7DXgkYCqQZe8VL7h5Onn8QjX/hDAMDK5VVAZGA1NECIDJpbmuz7dkK219auYceObaETKNP6DrZJ6UTVuVeO+TlEFkJNKOI0KOaHRvowNj7tyx06NDoIgG65QlCEYqBL8wRzggC/Gy6s4adRNy60yKRbEDL8fnbsCK+cAACrzrpQcL0r7z2ECNHC4rJRtNKWmeXlVczOnUbX/vuxsrIKEZExc3tHGzo72/DE2JRz/ujPtfyyPfUrWeWun4w721mPDMdLNbjzN+8GALS0NNnrQnA+vcDHv7p2Naf6ztVr38t77rA0grhFR8NzhnL3EEpqkqj3GDJzh253xgzmDuWHIlSAYDCClBKXFpZcKyiMpGZblSJY9cDu7CqnmvaO7aW6T1TOON7e1ozJqeMAhLuV8je/8TUsLV9G14H70NS0HQAwOHDQcLX5OTRql0cKWkNhA+9Gi5CLk6BaSIBiRcQ5VpBZBSSM1pYm7N3zTuzdcy8A4LOf/jiuZyUAO5z5+MmzaGra4XtNVABCVLWEesAMa5+desyx1vVESeKBQ4Ms6VOAjdVTE8bMCersaHMfv3hx0XHDeVt4J2HxFFNa3v+6+LM5f0HSwve8Y8dtOHvumdCov7BipNolF2T86BexuLSCyel529oRAnPzpwAAB7v24tSpp+z3IoTf9ajfm/JbQy+4bo+oCgvGNukF32XtU4xlF/aJhAlQsHbfE2Pauu9Fe9uuwLH+PKXWll04c/YpNDbaQrO0vAKVzeLG9RuYnbODFvbtudcOStCRcYFJTdgWInnfVxmTOx2lV+kJ4uhwrluOJX3yQxHKQ76coOGhnqpUhC4Xr5SOzNsBw6yeoJiEFqQ0opgKzV4vfvcbmJk5YQuaAuaPn0b3wb14/wc+iuMnz2Ji7IvOeo7w7TUjjDUuzxqaCt12QLPZLKEoiqm951lBLaHPm5Ok/r4D+PaFP8bv/8HHsW/vbpw8dR4SwAc/9FGcOHkOX//ak+6xq2vRYf6VCFYIm8xFuePiku/zN8eBQ6N9PreclNLNHaJbLpyN1VMTpFBOUCWolhsvapfUq1dzZ6bvvPduJzjBoxyrb2igG2/81TfhV++4CwAwf/wMMg0ZXPzuN9DR3upGHvmsIANtDV28uGhYQ/lR8Xa8TplCrrT4bUN/avnEJziBGnPWgoaHeiNFSGNZlvt36u3Zj9NnnsSVK2u46657IATw+c99POc1wQjMOGsxyRYrrbwlpAX/0EgfLl5c9FlDczNjABikEAZDtEPIV5qns6MVI8N9FbGChGXF7iTCEkDW+90SwvwVQHEFU3fsuA14OjczXFsYV66soXlXoy9EW0oVTB3yEZZlPjhwEIMDB3OO1QObdsNpREik39z0E9i563UYG5vC7R1PhIqV79o1L0CFqVgtQalw8dKyERHXk/N89D0J9PXsR2/3Xl/ZqOyNG77Xra1dw86d2+yqG8Z7sDez88QpcuM5paBUtLs6XxFTTbGWkFmmp1g6O1oxOtyHvv5DuLLyHffx2Zkx9PaNMncoAC2hEKIqZI+NT2NkuDdHgPxFFXOrTtuPJ5wvVEKJex0ua79eht6fjljSA57ppgvbIjz3s5CR60ImupPrcGqzJpf9eIFKxp1teCFgDbEMYmH822TY3y9esrP9g3lBSe3nlM8dB0SnFACO8CQUwVZJgv3g0GgfOjvb0DfwgPvY7Z1tbkkfuuU8KEIBwqLhtBVkl+bJjRryl5cPn5UVu5dQIeJmiANwtnIwI+KCaz25GfEmXr5QxPkj9n6JwhQgwF8U0nTDhVlBGp20OjY2FXnMRiJpK0gLzNHxGUwcC7eCNKa4m80sOHGwD/b/qsv1vPPeu43tHeyD9B5WwW1GzLakLSH9cznutGLccfn2E4pLmFuOuUO5UIQMzNI8YTlBUW64NCyhcjHdJ0B0+KzGns0Gt2023l/OK5y8JKceXBTh7g4zkyiaB0YH8MLFRTx+dNJ7ZcS16mJZqMqYbTmsOkI+/NUorBxXl3QqexSygopBWFZed1ohV5tZQTvyHEbRXfP3Uuhob3GSWKdcUTNzh+iSs6EIGWgTubPTDsc2o+EqFYwQhyjXVJwKwma2eZwkzrDghO3bvQ3HgIBVlWcTOpUnei0JDo324/bONjxxdAoXjQKSG5H80VnxPtvgVg1jE3OuFTSap+qHn2IH5Yj2EXPyU++MOtaQHc1pf/46d4jWkA1FyCEqJ+jSwlJOTlCQpN1xSWzrnY8oIdJiY1mWb6zZsf02rIW448x1oWJCtZN0LY06FqtpDZnXqcRifhoUfh9mUHvIsznbc5tWUA+yvi3Xzb2rPIvWtmr960m+a4Q9BjsyLm7193xUI3o0iclScGI2O/14ZEkf5g5RhFz0rERXyNZW0MWLi3kFKC2itt42t2jwWyyBAIKIDr1+1Q5MCLOyTNdKUgNCuZ3+9o5W3O4EKWhrKHjOjSBEhfOEipu4jE3MulbQ8GBPSfcU9rez122U8yWxtpp/qwbzuTgTmHztLuq5YvYcqsQEUOcJRbnlNnuQAkUI6eQE5SN3EM1TJ81YxA0WKHVO5p4zTmmXsC4Y3APGf/3k3WzSEFLf2SMulc8a8lHErf7y7bW1XXc5QlrICop1jhjnD6LXhJTKbcNPPxO922+xOT1hk7Go59NAKYXR4V665SLY9CIUlhMEmBWyq28F5ZuNmW6NsK3B/ZFG0tGgQDRchHDs3P6ayOvudCLkihEdb3vyUiKNcgfMKMKsoY1GSRUTQj5upWS4FaTyh8WLiD+dNNqg/SWR1UEJTuHbgpvW5Z1kqZzCp4XOERSvYndfzUdU38wXyQnY1lBUpe3NHqSw6UUof05Q7bjhzN1GgbAdUpXhBlEwo9eUClhH7jmKs2LWnAi54OvtvKDi1oWClJuT8uAh28euraGckkNlnX1j4QpQzMTUUq2wK477dse219jRiY4lrodxnYMWd700LLWgVCvHXLuNiqpL2jV3aLTfdctpmDu0yUWo1txwcQmKSZQVBPij48JeG3x8PSQ6DgC2b99mHCtDf06CoOsoOAxYlgj96uxswwOHBp2Q7fDcodpPeYwmqQKmujICkLsWVChBOM69mOtB+fFfK0xQorZGiUq0jsqFC92jKMbnWZGITida7m9e8DZB3OwlfTatCOVzw+nSPLXIiZPn3Z+jZoGeBZQvWspIBnTYnmfrhp2BhNWwASL0as6DQZdcqbPraItJ4cFD9t/xiYhIuc1E2PoPAIyHWEGRn2iB9iMD7uCcCY7K3bVXR4yaFbT9rjSV10I3c33sUjwWhCXcsjzB6+Q7R9h9meSzhOIKdhDtluvrP+R7fDPnDm3a2nHf+ta3APitoKNjUzVhBUV1/uMnz+LEqfM4cep86PP56B96CG9/2124+21vyXlOKpW35pbJ6upV7Graad+nlJCWBaEUIAHLkoBTWU5JBWlJ+3Fhl+UJqyUXB6VkQZ+75vjsGA72juLxo1N41wODRV8rbZJIqg0KkJsXNO7tw1RsRJwy/vc9bopc4Om1tavuxCZqR9Voy1zi2ot/i+ee+xquvfi3AIDu3kOhx0bxx189V9Tx1eLQqL1d/RNHJ/GA40Z+4NAgLl5a3JTbgW9KEYrarvvo2FRqwQgmQohQITpx8jz27d0NKIXTZ+39d+65+7fx9re/GdlsFkopZLNZZJ3yJnrzOCUVvv71P8fzX/k6nv/K13H329+Md9z91tzrBgTH/H17zKRCLT5JLgYH0YNq2Gy0s7PNSWCdxIOHBnyzWSklRMaqD7ecQuL+wzAryCTf1hj6sUIWpU4NsCPjrmHbtnjtJlj26dkvfw3PPvc1/OIv/nu868EhvOYX/wMAu00K4VlAGaeKgiUEPvuFP8K1a3+Lxp3bcd999+Atv30/PvPpw2hpboxx/eiJWCU4NNKH3v4H0dnZjtud5PhDo4PovTjqCtFmYVO648K269a7IaYtQFG87/0fxf599+HA/vtxYP/9+Nrz57Fvz248++Wv4vmv/Am2bLkJmYYGNDRswZYtW7Bly01oaNiChkwDMg0NeMtb34Q/+tJncdddv4kvP/8nePF7/zcAhJYx0e6NMOwIuWq5tsxBMf41dZBCd+9oaM7QxnTNBV1h/l/HJ6KtoHxDb1hkY5hA2cITrOPuRcZZwu8uW78aXYvw2We/imef+xre+pY34X3vfQDbbnsNMlsasOWmLWhoaMCWm27Clpu2ON/tnz/3hcdw7drf4rlnTuETn/gYmnc1Yc+ee/GhDx+OnBDFdd9pkgxU0LlDR8c81/FmzR3adCIUFoxw8ZIdv39opDYEKNjJj584g5XLq+g6cD+EAKyMBZGxcODAfdi3dzeefe6r2HLTFty0xROgLVu24BU33YRXvvKVzmP219t/+81461vehE9/5lG86Lg5AFt4dm6PzgcC7Mz31dX13PvVhSljRrgVs+BbimtKW0OhIdv1FCZXwr0G/wZeiR5tBRVyNce7qI6IBMKDU3R4drGb1j3z7FfxzHNfxdt++y68/W13IWNZ2LLFm0xt2eK181c4AvSZzzyKq9e+h0/+4ceQaWhAxrJgWRns2/v/s/fmcXIUZ5rwE5HVEnjsmf12bBDst5/XRkcf1afUwmOPDYwPDoGE7rvVuhCSwMbH2PjARsbgaxjbgA50tO775pQxBmSPPYO61XdXtyTAM7/ZGSTsnZ3dGduouzLi+yMyMiOzIrMy6+iubtWjX6qrsjIjI694472edw4qK8vxxS9/U38OAaS+gwFZDlz1YV6J5cCvKCHkR80jBdDqAhFC6oyrraMLO3YdwKKFcwFCQA0DhFLxUhoGGhbPx6KFc7Fg4XK88cZbGDW6BKNGlSA2KoZYSQxGzMCoUda6ErFu2rQ7MH78WDz2vR+hzyrdADjmtyNH/BMJJQarAB/gDItRtKGd20XEUYNHGxoWprhcQDlRVQtavWqpHVEIZO5gl/AbvMMQl86aMdX1/fiJ53D0+LOYNvUOTJ92JwzDQEmsBDHDQElJDKNiMYwaNQolsZgQQCUxjC4ZhVgshu9/dx1qa6uFEIoZiJUYMCjFwgVz0NnZrT1+VE0oLKJc0+3bnsKGjVtxRpksXWmUPleUENLlBG3YKMgvV9+7LGf1U3KJnTv3o2HxPCxZskDM8AixZnoEsVgMsZiBJQ3zUVUVx+GjJzGqZJRrKSkpES9yLIYSQ5jrDGrgK3/9AADg6PHn7CijdCgrS42Q8wojbUkH7mPCCZnEmunwsNbOHdo6Iql8gqAK7I12wTq3FiQHS7+rn21EozcyTiJhTXxUky8lFEeOPYu7p03B3dOmgBoGYrESUMOAURKzzXDyr1ESw/Hjz2HW3CWorq5EXV0NYoaBUZa2FDNiMEpiqKmuwsIFc/Cpz0xHR2dPpP6HRdigGR2KZrkrSAj55QQVkhnOix0796O9oxtLGhY4DlhriZWUiFmfYSAWi+HHP/oeenp6ceToSVvzcS0l7u+xkhi++uAX0Nt7zi5kB+gpeqSAkqYVXdKrN3dDTVrVkl1qBrZQk4AI84T71qywgxSam1szzPsovIlJFEgtaPWqpVh97/JQ+4QJ7U+H7p5e61ki9iJLMaiTClv7tmh8Zs6YCkopDEMssZiBEusZj8UMlMRiKIkZGFVSggOHjqFh8XwsbVwofhsl/KDUqkllENFGgzVJ27HrgKuPQ22Ok1i7ernWLAdcGblDV4QQ8ssJKjQznIrtO/dh+859aFyyQAgeQhGzX8aY7eiV32OGgSd+/APsP3BEvJAlJYjFDMSMGEosp64RMxAzDBHAYBioKC9FWdkEHDn6rEsb6g1wGgNigNEJnjAIM5v2hhZnA5VJgcM9iI4cbSj1OsnZefPZDgDAvasCBFC6yxySNkdl5ZA+IYCDUEB0h1vf3cMOoQRHjj6DGdPvArWED7UEUCwmTMjyswhIEBMpAFi+vAEl9oSMwohRlFiaUywmTNeGQbGkYR46OrpcOUL5MsdFxeT6OqxdvdwOjpLY3rTxisgduiKEkJ8ZbsPGrZg0KbVSaiGgafteNC5ZgKWNi2AYhlhihghKoIrwkeaHWAnrAj3WAAAgAElEQVTq6wXpZm/vecuOLgSREDrWEnNeaCMWw+yZ05BI9Nns2QJCIHlNdO4wbT1XV5DgyHUGuiw9oOuThBqkIJkUVCLXkSOIHKjDaUuLOzAjnekok3skJiJOJpHbREtSF+sQ8vmSPshZM6eBgIBSw9b4qWFp/jH3s7t//xEsW7oYJbEYYtL8Rg1QKt4ValBhyjPEutqaajQ0zMdNf3UX2to6I59jtkgXWbd2zQrU19ehcdlqe92VQukz4oVQOjNcfY6EUJiaQn7wahNNO/YCAJY2LrJKKFOAwhYMhvWSGkbMXkaPHoVRo0Zh0sRa7Nl7QGhL1strUDmzFE5bSimMmHDcxuPlAIDDR05ow7K9gkgyJ3iZjr0kqrmoJCt8Ftm3I4MU1m/YgjMthUhwWngmP9UfJMLaTUVwc5tI177nyv12iEuFadf7LPQknKAFSigOHz2JWTOnOYKHUhjE+RszYrY1gBIDlFDs2nPQeaapZbYriTnbynfEWgghaGxYiOrqOLbv3Je/C5cBZNqANMvpghRGslluRAshv3LdUu0tNDMcZwxt7V1o2r4XSxsXglLqTs4jxPYBlZSUYNSoGEaNHoXRV12Fq6/+E7zvfX+KAwf2oL2jG13dCWHWoMQyyxnCTm69sDK4AUQMFrJoXdzHmawilyWbg6DTqqJEyKno6fwHAMBT668MSh//6xQhPD4i67lMVJXEpTLkP4igtCchnruK8lIQAhiUwKAE1CCW6Vg8t8IUbSAWo9iz/zAAYM29K0TgzagSywRXYgsjW/hYGpGIKiVoXLIA7e1dkbShjBjMM4BjltMHKYxUs9yIFkJBZrhcByO4CRWD65voIPdpa+uw1hDbriK1ISF4RmHU6NEoGTUaV1/9J3jPe/4E733vn+J9f/pnGH3V1ZDvO7X2oYYBEGIJMGrPDu0AB8PAI+u+BsDi88rANu53ji6NKENTXHS/kP/20ix3ZoSWe3BBuQyqydkrnPRkp/5CWTsx8PiDUhjMPfsQOJFzCUsIxeNlVkVfYmsyREaCGupioKOjC6tWLRdmuFgJDEMmZ8fsPLnRo0cL8x017Nw6g1LU1lSjuroSn/v8V93nFfB8Rp2kZOPLXKvhP1TrDo1Es9yIFUJB1Dz5CEbIpsQ3V0wfSxrmAwC279gjarwQofmMGn0VRo0ejdGjr8J7rn4P/uzP/h+8971/hlisBGayH3/843/i3T/+Hu+++0dMmjQRO3bts9gQxHL7lFm44845uHPqXOw/cMwWQo6t3kFPos+3r2VlQmvysibYCat+AkktQxEYLZdKvOllAg9qGxBCW10AYdqzgxRGqDZkXzvru1q3xg8u8lAf7cl79VVTnKwhpHQCgH8hRKnRS/QkzgmBRByGdGJp8MQQC7W0drl0dHQD3EmWjRnUnnBJS4FhiJyiUaNGwTBi9nF37NyHjo4u1NRUevoVRFYabZiMmnvlvIsCMkjhSjHLjVghFETNkw8zXBiNJ7UEg1rzh9tF4ACgpqYSn33gKxh91VUYPfpqvPd978N/+S9/jve8930wTYb//I//jX//99/h3T/8J/r738W7f/wjLl9+F/3979ovJ4FgW/jMbdMBAI2L56CxYS727T+sOH6dxMWDh49j3pzpdv90gqjCVY5ZHx0X1h8U3tzjof0PNMn5DwBquYcn1+vLPQxPOOfMOXOYDKzrWz+xJusjpLtXajn57u5eVGgY2aV/sTvhjr6MV5TBINQOSiDWP4PIz7DXEetc62qrrKKNDKZpCp+VnEgQ8ewKoRTDVaNH46rRVyEWK8GOnXuVPufGF+d9HrON6pQBCVdK7tCIFELSdqqyIuSbmicU91QAQSjgpsf/0eOPoq2tA+9735/BMAz84ff/gX/73SX8n//9W1y+/HskB5JIJgeQNAdgJpNgpglmJsGYiVUrl6C9vStlOF6+dBGWLpmPxoZ5mHLXHDuXggCoqCiz+hTukehRkla9CaveV1CdKWcUfZXlS63OvO9XcodGslmOMW5HxnHuFk7ZtOmFt1iiaZX0BtIHqBBKhE+IqNorbHMxIZbYIcQ2z0lzcV1dNTgzwUwTppmEmTQFea9pgpnMKi3hPt/tO/YAABob5nnOIXqqQS6h4zPc2bT+iqH0GXFCyC8nqLm5Na85QZlqQoCbndjLx/W7317Ef/zff8fld99F0kwimTTFQ8vFS2YmTXuA4WK0QV1ttTgAAXbu2g8AWNo4DxwEhMTQ2LgQgGVmIBBmD7tPwQNVWDbtdCSn3ugr+VmP7AcI1Tx331p/s1whIr2pMH8DqPfY6vPpmOKcQnaOaTm43bhirquMl9u+ICIkkiVwYIVoW34dqpjyJEO89R4wJiZhZnJATM6S/RgY6MfAwGUMDPSjv/8yTNNETXXc7puf8BmsQAT1eLpjBpnlRlKQwogTQkHBCIUWDeeFmvdil842kzCt8FhmmnJa63rL/TQFVRNq70jAKBE0KJQYqKmpxINffVjY3n329VsqyicompC7v0FCLKzfRfULqYmrLIT/IgxutOjzXz9z1vWCjzSG7TCT+zDiK4XyKOW7c80krVN5RXji0ni8DFLJ8S7g3P7MwV1xM3ZZ+RT/pKMNMUs74sxEa1s7qqvi1jmF7l7WyJR9W+YOec1yIy1IYUQJoaGk5snEHKfCL6JI5AFy62UkkF8Bbs8WnRxAp4aQFyuWNYCDiKasoUcWpwsDb76QY9dX/BFKzpA8B5dGFPDip/KUBWwcOICEG13uv+8eAGG0ocKmPNVqj9Yq+Ug60XEe4cE4JK+fN3nX3a7+mqqavTcopbysNNAU5yoN4XluvFD9Tf7tsRSBxJgSQAFxru0dXXkp250NgiY/utyhkVYOfMQIoSBqnvpJtQWvBXnBbOeyKbQATXIg50wIJ88/OfrIQaiyshxl5aVgJgM1YigpGY329i5YB7CnhZx7Q83z87IO5SAgjzy5vg73rV2J18+cRUPj6sB98mfuCmg3S9lHKUHz2XbRFCEWU0K0RhljaU+dMw5uOlF56XLICCUuf2LKMZWoO93zp0aSiuKP4rmVplbbUAC4NCgRtSf7WVhCKAgyd2jpMvczOpIofUaMEBoOZrhMBnVTBhyYJrgp/EGmmbSJQUVEnQnOTciXbPOWHQDEC11THQdnHJcvX0Z//wAu91/G5i1NAIAF82eqvUvbV6kNlbnqDqWfJadoRBkhyrULqQ2tXYkbJ09MMctlftyo8ASm5OJohKbImkkTw7GCBPnmUszEKZq74w8qL/fXgrzPBQAcOHhM2Z+7Fun7lIt8jlrOtlkTMzERM00nSk76h5IDA0gODIBZQQsNi+cpTNpuxo9Cxkin9BkRQmiwqHmyRVB0nNduvHv3QTQsmmO9eCbMZBIDltPVtGzdUgiJF5DBNK0wb3DU1FSCAPjx44+iu6cXyWQSSTOJ7dv3YMfOfTj1/CEQWIMHF6WY4yGCDiihiFeU+s5mo0QZhfW/5MUgZnVz6IMUfMxpoS+j/4YtnjyhbCuDeoNmpBBQ73lUNo2K8lL0JPrAmPB3ctOaWNl/xXopXLgp+8CtiFATSTMpQrWtKNFkMik+W0EvJhfvSk2VMD93KiUdwkaDDjVGMqXP8LgDARhO1Dx+s0Pd4LBnn6AmsaPgLG3ItCOARIg2M9XoOPGitrZ2oLY6DlgmuyWL5+KuqXNx2+0zsHvPASxeNAewBBn3zAajaGs9iWC27bBIZ57Lpy6imuWeHFRBlHpWQ+F9yv6YqZqRLkfIizJ7G24/g1KoyYmXd51cDwBnW9uFoLEmYsw0HaHIGExpKeBCoMnJ1pLFc33rCuWyfHeuMZIpfUaEEAJEIqJEvqh5soWeINS9rsOqAtmwaA4WL5hlh2EzxmGaSVsgcbVej5IfwRhDa6ug/pEv8uKFs/HyqSP42QuH8NPnD2Lh3OnOy80dW3mZhjeOUGIvYcEZA4dfmHZmIiWfguh+SxtKKQVuI1Mi1cH3PUQdRrnmk+v3tJqth20jwN+jorx8AhhnKC8rRU/inDiWFDRW7hFj4hm3n/+kCTPJUF1Vgda2DpicibQFM4mkaYolaVrbCesBSwptSbRtYknDXNRUiwg577tXaAELXqxds8I3d2g4a0PDWgj5letubslvTlCmCNIyJDWJnI1VxcvsqCUGDpOJF2sgmbRMb0llYUIAcYazljO6YdFsF9O1TOQTi/jOOYdpmth/6DgAQV4qBcehIyd8++pXMTPdOYtZqpMbBXiL2g2OfV72SGVthrIudwgSCTnQQUIMmkG8cWHb0B6bOblB3raCHP/eyUy5ZQLu6umFyRhM5hUsSXsR2o1pvRvCX6oKHDPpvBPSVGcqGhIHBzdNtHd0o8YK1RZ9EhWLVU0oilaUTWXVqNjRtH7ElQMf1kIoXbnu4QLVLl1THcdLLx7Blx5cB5M5szhmmkIQWS9esj+pCBXn5Ttr5UK415vuv8z5DHAcPHQSs2dOSxs8oA4gFeWlrlLfTkRTcLitCFQKPk4Qj1wYqCHHwRuGbjHS8dPvw0Nsk6b1oPPj4XjjVOhKeXMuxEk6xgp5z+0coZAJzQBQVjoeAHD4yDOuAARHsFjPuxVkMDAwgPLy8ejo7MbZlnb7HbAnZwNJ4RNSn39m2u3u3HMIDYvmYomHNSGXiModFwUjkdJn2AqhocoJymbWE2TScjL6qX2Mr3ztEXBwa0bHLI3HFMEJpomBgSTMpKPlJAeS2L5jP6oqy5BMJtFvvbTuv4J1QfiUTOw/IDQebme9c1RUlPom86nn0N2dAJCeHSEFg2L1CD5IOo3nxskTszx2FgNRFrvqeON0CZ1BgsU9SXAmAkHVdNV9ykv9NWVddNzM6Xch0Xveo907gsR53oUvtHTCOMTjpdi5+wDMgQH3IvcZGIBpWoLUFBrUzj2HsGvPYVRXx9MGJBSyac6vHPhwNcsNSyE0HMt1B8FVZtga5L//3W+hs6sXnZ0JyzErgg6k+W3AejmTAwPov9yP/sv9aNohinXNnT0V/f3ihR2wZobO3wH7ZR4YELNEAJg54y4lNyl833UmRjVZVXz3cIiFGGQLcxAI06cgARQy7C0LDU2u8VZUVRFkEvXbNgz8AlVUjkKvlsA4Q2mZ0IYSvefBGLOpqUwzaT2rJi5f7ref3YGBAcyefhc6uxK43D+AgWTSWgYwYAksBhHEwJgpJlicY8++o1i8cA6qLZ+QNMO5+yqGxCBzXD41nTBQy4F7zXLDMUhhWAqhocwJ8jMNZcId54V8ASglqK6OY8H8mdh74JgIUbVCUIUWM2CHol4eGMCAKV7CXXsOYe7saSIn6PJlKzfI/dd5kftx+OizOHr8ecy4+05bC0qn1chz8Jpccp1zke9IpegiLtv+qEdMDXSwxVOGsje9sPAJBQ8B3TPvRKK5meDLNf5C7lm8KC8dj7LS8Xj0ez+xo91UgdPff9n624/+y5fRf7kf48b+D5SXjceDX38E/f1SQJkYSFqTNcuMJyPn9uw/ikULZmPRojmh2E0KHSOJ0ic21B2IiqGk5gGEOU73UlJC0goiQklqgS9rHaEUYMw2yVFCsHDBbDz41XXYd+A45syeJl5ia6A3TROGYQAwYQLYf0iY1aZPvQ2X3+1XzCc8VROxcPzkC5g+bQqmTbsDjHPl5XQ0GMqo1oxYXjYBh4+cVLYBAHENDNlPwwDjDAYM7fWQWe/ez+p3xrjCb6doGR6FQ24XGUo7r585i0UNq1w/e7/7YVHDPdGPnQHUu6jTFnWPoHhmzcC2ZHtuYlm9lus8S87EQ/jhxDo5kfFSPfmBcY67756C3u+dx3e//wS+9PnVzrGsE7LrQhECQikMg2LaXbfiuz94Eh2dPYJ/zrqZnBKAc/HcmsChw89g38HjOPX8YbtPYQVROrOt1zw/mFrS2tXL0bhsLc40t2KyFR28o2kjKipvxLp163DzzTcPWl+ywbASQoVAzZNrTci7jlJqDcCiGN38+bPwta8/gvKy8SgrG+cwAHPANBkIgEPHnsXhI89g+rTbcfnyZevllSHcqcEClBA8+8LLAICx4z4MxpgQopSCWqcnKl5O1faRcWZrQjNnN6Y97yJyh7DB4tIct/Hp7dj49Pa89knFrBl32XMD9S9BsE+0bMI43D31Dpx45gX0nruAcWM/pNXMKRGTIjNJMPbDH8SE8Tfg4Ud+iAN7nrZoeigYswrkcWEC3HfwOBbOn6WkGziCSGeSG2xkGpGpUvr0dL1ur1+zegU2bNyKhx9+eFiY5oaVEDp9+jSAwSnX7Yd8aUJSCHDTtOqniHLc1VUVmD93Bh5a9wMcPbDVCTVlYpZ49NjzOHL8OWx/+nEwzjEwMGBHNsmZrAzHlnjxpVfxwqlXcNeUWzHuhg+LbTkHtbQXzsMbn7798IOoqCgFJYYoJEYIDKvCJaFUVL0k1NLarGJjFrWMSs3v/SyutfxuBWzA/cJ6ncveWajYX38momyA3BAYVzoJN06eiD27nra3GVc6Cfffd48mSMHd5rhSdT/1t2i2NT9znJ/Pxk3W6Wiv4MDSFfejpaUVHa1/Z21rpm5r/3WeD5cmZHLLn+IEJZhWKoAdldY/YIf6z563zH0JUqRQ8PkLjZzh8R8/jSm3/RVuv/UWmKb73OUzYRgGTNPEFz97D+657ytY953HMWvGFFSUT4BBqU38+411P0Q8Xo6FC2cDcDSg4cKUkA5r16zAmZY2rN+wBWutysFr16xEc0urrQ0VukY0bO7EYJfr9kO+NSH1JZPa0MIFsxGvKMO3vv1D8RJZxnXGOI4cfw5Tp3wa/Vb0W/9AvxIJ14/Ltj1dLD95ahteOPUK1j/5Q0yZ8hm7D5JxOGpxLyf4wExhVXb/7rlutkY3dAEIWQRIZ7HNUMy6uTaqM0pP1PpB3hwhr9mOm9x+RgkhoLAmGBqnkPf5n3rX7bhryq14/tQreO7FV0RaArNCsJnIG7L/miYGzCQ2PvEYmJnEI4/9yGGk5hwHDj+D7p4+LJw/y54I+Wk+6XyQhcymoA9SEOPkcIiWGzaa0GCX6x5KUEphmqatDTHOMG/eDHzjoUfR03sOnHMcOvIsEr3nMXXKpzHl9k86tVWkCY5bs1Zr/Ztv/RNe+vkv8OZb/4Tbb/uUYoJjIJyA8NSXbN23f2AxcXt/cwaOQ0dOoidxDnPn3m2vk34hPzDOQCkVfVBmpF6/kOuInAGEunw/nLNBTRTUwxtw4F0XtH2GR0yTIwR4o+P0RjyRAxScwCq1IBUqZ5zgHUzg8JGTAICe3vPo6X1cHNV6dty3VH9/1WPceeetYJzj+Rdewhtv/AYf/vAHceunbwLnsCdh8owoEQf64udX4fEfb8aChjWYNeNOxCsm4ODhk5g/dwaqqyvcPI0yOXWEaENq7tDk+o3Wuom2We61114raG1oWAghXTBCvst1+yHIHAc4LxOh1J4pSlOdao6jRAgXnYlOHEfmDHEYhoGaqjiOH92Nbzz0HZvmBADOv/kbnH9yq5KtDsBKMoTlLH7jzd8AAG644UO4b+1KjL3hQ3ZfDWVQkIIJABK9zjEAYPz4sco3caxx425AT6IPPYk+HDpyAnPnTMf8eTNtAeQNTggKdBhSZCQXhjqEXNE6M4mMU3/1JKjKNlOLxXHX0tmVwIGDx2yqnnFjb0ByICk2JlLcCCF07vwbac9IFYhT7vg0xo79EF544Wd46eXTeOnl02n3lzhy7DkcOfYc5s2ZjgULpBlOCB4//0/QBCjM70ONnU3rUV75F1qz3C233FKgKQ8CBS+E/Kh5hmtOUDrIKDlA+Dg4F4v0qVTGyxGvKLMHCcaE3R6c2zNTcCc35/yFNzF27IexdvVy13G4Yi7jRCzEEC9Z2YRx6O09h1kzp4KA4PDRkxg/7gacv/BmSn/HjbsBAHDhwps4eOg4Dh46jgXzZmLhgtmA4ehDIgJQEXichY6eciMoD8ez5ZAMHFm87DkeJyRlj853FGZQ4kq5A2mKk8tddy9wbTtu3A1O/30E0OxZ0wDA1prsvDSNNkYIxYTxYzH2hg/hiSc3A4TgC58TUXOEiveBEmqV/6bWd8cfaRjOOhnMkI3mU8gCSGJH03o0LluLeqtyMCByh5Y2r8Ytt9yCV199dYh7qEfBC6Egap6mLU8Men+CKGTcBeGYdn1QcIIKaa4ihKpjORYtnGPTlHDGbW4s5zN3ccQ9++yLOP/GW1bBL49ZhTFQVVB4fEKzZ04TLy8RZrdUzjhnW/kbIcC+A0dRXV2J6qoKmJwjphMa4WWJc52ibZ75gTJC2Lg1PTIIYUiBzNtpOetQ9vg+rxG7qj6fd06dj3i8zNa0ZWPy0VFNuD2JPsyeNQ1zZglzreQkDMqZEwO++N0wDIwfdwMuvPkbV3CLFDZqyLb0+0gB5ATIDK0AGazJkN4sV1fwZrmCFkJDnROkg585DnBHyOnMcanbU5fDXrcdpQSMSbOce3/TNG0BJj+nRBNZUWdSqGkLlnHhF5L5PJKAUprR5syejkNHTmLdww+m7Hv48AnMnu34gyghmDF7iWsbzjhUJ5GtFSld8fqHMoEuV8hvAJDHGywRlUvoJhQ6TKqrcX0Py37g3U4NMunsFFRN3/n21+1oua6eBBI95wEAs2eLsH6p5T787e+JPmsEgfRf6iCfe7GzE6wDIEX7UTUjKYAIldoPcZniRoofyA8yd8hrltuwcWvB5g4V7B0ZjtQ8USPL0u3vDlu2fETKLDBWErNnfvJzSSyGkljMmQV63n3vgOwt5+11VOtzNQhmzWnErDmNOHj4BGbNaUx5yTu7ujO/DgEVPt2d0+3LXYtsJ1Ob+OtnzobccjBt7poBXblHTkkK/2vhBCXo+62GZQNquflULX7dt3+Aw0dP4PDRE5gzb5ktgITgURKQGUfC8meG4RukVKQqSIZrQgmoQRGznnOvxmMY1BI+1DbDhTXFZaqpRCXXzTdUSh8VhVwOvGCFUBA1z6QCqZTqRbZJb+r+6kshBRClBAZ1mxtKYjHESmIpwscwDFGmgFCbHDVI03CZR7hmndLHbz78XcyZfTdOHN6O50/sxsL5MzBj9hL0JM6BEiJMNT7H8A4+Ou3Mj78ryjAvSTtzJYyGA7zBBFwmLUvBo5x72rIZ6uPg8xwQSjFz9hLMnzsDJ4/uxNGDWzFrxhTMmtuIHk9gS1ToyioYhoGYouW4BZDy3Fu+oUg1sEbQczHcyoEXpBAaLuW6cw0/TUomr0pBRBSzQ+qi2MUptSeiXgHknwCZGo6r4uDhE+ju6cOiudNQMioGI1aCxQvnojJejoOHj9vbdXUJs43q1E49scDLEQB3CLFukcLHqTirp6EZnggXDcc5nMqjnsUOJg85+MoJRGe3U5VUTpoWzJsJasQwatRoLJw3A+Xl43H48AnXpEql+im3qqrK5535TA7k5El8dlP2eM1v3t+kGU4mUKsImyekm7SlJkQX5BA6rMqBF9wVHE7luqPApeVEmKG5C665BZG0hzsmB2LPEsU6GmhmkFxh3oTSoIFJtlYyejQMo8QyEQpmh+7uXk8EHA+UMzrB5OUvC+6Fpz3F9CSFkWmaLg2BMWfAs48T0MdCB/NosIxxNFuFDTnnWLXmC6j/yCdR/5FPYtXqL2Dz1l0+7YQ3K1XGy0Eoxf4Dx1BZWQEqtW7DwOjRVyGROI/unt4Mz8dvsmKZpT3vkZrz4xUu+Q5ICCuAhiKybjiVAy84IRRkhiuUct2hH76ITtAgSpFCCBGlhKC7pw9VlWW4/a4FoMYoGLESGEYMNTWV9nZV8XL7c+AAn8Hor0uwlILnTHMrlq+8H1W1f4nquk/Yy4ZNTdq8l+EJTdIpZ9rz27JtFzhj+NVrJ/H3v3gGdbUV2LJ1p91KsBbkaCl+/pvunl50dfVgytR5mDJ1PqZMXYA7pi3E/LnTAVjPMYHtz4l8pjZRonu99PUUGnTkpUP53q5dI8ZQv7pDhWKWK6g7WSjUPGFQqGp4GGRl/yZAZ5c1yyUERqwEHAQdVtSURGeX850j1a9gf1dCfKMg1eHOsOKez4Ixhol1VZhYV4nmX72A1//ueWx6usk1UKvaUMEgh92RJd5/8fIxPPGjR8RASAhWLF2I5l+fQv1HPonNljBydSHENenuct/nqqo4Tr14DK+9dgq/+uXPUVkZx/6Dx332ToW2PLhinnP6FP4CqQIvnZ92qMlL8w2/ukNA4ZjlCmokvZKoeaIi34OmkzgYfJzKijKUlU3A8WN70d/fj3cvXxZhzpRgwbyZAIDyCv/KmnroAzJ0s0jdkME5Q3XdJ3DvygZs2fBDbHryBzjb2oWW1k4wxrH+J4+huu7j2LBpW0H6hXLSIynTrfvYuHguODiath+waG4oCDEAUDT/+qfYus0xy0UxxQFAvKIMnDHEK8pgWIS3//F//w9+97t38PC3voIZ0+9CpaINa7urVljlqVGZuUK6iNVsI1oLHcOhHHjBCCFpo1RZEYaKmicsBlMbKgRzHABUxMvQ23tOFBJLmkiaJlrOtmPXrv2YN2+Ga9suz6xZJtWmmneyGwiaW8TMf8XyBpgMAAHqaiux+v4HwZiJ6qoKLF+6EJuebkrZN1+D32DDS/3HAdz0qZnYvusAPnrzVGzdsV8pLOfmuNM54HV3RFL1SMTjZWhr68Dld98FMxmSA6LS77Hjz+LRR76ekZbhjuALfi5cFYkV/6j4Hq5uUD41oUJ5Z3c2rfctB37LLbcMYc8ECkII+eUENTe3FpwZTsVw9jGE0ax0s8TKijIsmDcTc+ctxb59h5AcGMDXvvYwnjmx1+YUiwTv4Ml5yufAwYgDLS1t1vaizyYDWtu6QCnFx26eBg6Kutoqpd3he9+CQgoZ4zjb2q7drrW1E5aDBiD+kZLqtXazfrjNZoxzVFSUYt6cGbh7xgLs3X8IBw4dw9z5y/DM8b2hzkRGTnr7oRnzrAIAACAASURBVJpZB9N0mi5ZWvX5DDdzfJBZbqiDFAriSg5lue5skO8HMR8zqaAXWgoQ7qOZyICJBfNn4bmT+3H4yAlMn7EQC+bPdG1XWSHzhCz2iAj905nj9NUqnT7aeWOEgoOCEw+1BKGora1W2i2Ixz5DhBuQq6rjru91tdUg1ACHGvYsr2+06xGPC3McZwxz59yN40d24dCh4zh85ATmz52ZukOBaARXMgq5HPiQv42FSM0TFrmYUbuzy3ML10xW1lkBUv5GgdrP507ux3Mn92PBvFl+W4foZMqHcJsrqJ8k6GlaWtvBIUqCL21cCMYYli5ZACAczU3hI1gjBJygBM44fvZTESBQW1OFxqULLQYEpIRppz4HejqdoBD+E8f24MSxPZjvMcnmG2GoePTh2/77eCd/+TSrZUtVFQW63KEdTYJjbiiDFIZUCBVCue5Cw2BH63hJS8PQqYSFpO5JO/yrqS4B5rggoT9xYg22bN0p+k+A7TuESWj5sgZwAB/7xO24d9UyH61K35dChZ9AVc+tq6sHAEF1ddwKQCQW4zqwZetOrFyxxL99l0lOb2KVBRDlomPCDgs/TsPhhLTPVQFALQeuYqgpfYZUCA1XM5xEVLOOX8JqrnIedO0M1cvtpe7Jdy+atjyB1tYONDXtQVPTbns9pQSfe+CrAIA19y7zvWepJbz16/KCgIsTVVuVs/aduw9gz96DaFyyEO3tnWCco629E3/xsU+h+e9/jpXLGzLrEIB4hOhHMuzoYaNjOAggiUKk9BkyIXSlUvMMNfxMcZEDCkLAGx2XK8ieUuqwSADA1s1PoKOjE9sUIfTRj9+KWIyis+3v7MFC7DN8Bo60UG6dZEt4esPfYueu/fj8F4QA/sRNt+G++7+ElSuW5GxCoNOS0oU8y5/9tivEEPqRhkKj9BmSUg4jlZonHbyM1c56TVEvtRSEVYYhG+jIOwdTSwoc8rOsKyRp/yfX19n+IXtbGaqrUB4VEnJxB8R5MavkhxN0cPbMq67nhlIKcMBMU9LbD/v2H009tud6ZmNOdhJUnf4N7yCS9MhFCZOoUCl9dHWHHn744UE1zQ3JHZYqX329u1LqcAhGyAb5MMeFIWcMK3xy6Q9yIuSiIPMhWdL+i5LozqKuFwKID6tgrUwHqEmTam3mdLm423Rf63SaoZw0qWZW+Qz7cbfpkItrr/IkFpEZ1q5Z4Zs7NNja0KDfRb9y3c0thZ0TlAtE0YRycYxMkSsNqbMrEc5pLU00mWp7SnftGjQeoSQ1IDHYDiMpZCMgtN5mSid2zpR6vuri20aIe66aV6XACVUozhVsEv24+YY+LYB6vg/HZyYYO5rW++YODWYS66ALoaBy3SNZAAGZaUJa6hqFSdvbRrrZqLayasDgzz3Ji/L7vgNHcOe0+bhz2nzsP3DUZvKWqPAEJghhFBxinI1ZwqsBeTUhsU3wtbEL2A32uBhhfIsyaKvnHgVBR4iXO/dVPmsHDhzD3TMWYer0hfj6Q4962kptLZFlraEicoNCofQZVCE0nHOCRgJUYeMtZxAEnfDYt/8onj2+E4sXzMTe/Ufw1a8/AsA/30m2kEutLwjeAbhgAxEkl44PvPdHex7W/s2WFiRMce4SIN79/QW+N9BA769UlwOHjuGFk3swf87d4NxMEURBbYWB7eei1Pf5UkuaON+Dc4NctD8RJkC59FMNtj/ICxmkMJRmuUG7AsOxXPdQIUib0dLF59BU4NV8dLhz2nzMnzMNJbEYGhbNwc9OHUZXdwJd3b0p/enq6kkxEWo1IuKlj3EnRqq5Qul0gdTCY97r4z/yD71xKBhRNCGvIIqqFTlF58S96OpOjXa8e8YiLFwwC4QYaFg0G995+Mvg4Nh/4Ji731lEvRWCyW6kQi0H7jXLDVbu0KAJoeGeE5QpojhP0wmTQpjNHzgoBpfFC2ehpGQ0KI2BgqJh0RwcUAYeGZiQ/wEk0/aH/lrm+sq0tIhBpH6iEyEYedaeplOVlYIdmxKCgwePozJejkXzZ4EYFMSIYfToqwDGfIvalZVPsD/nwn8ZNiCiCH8MNaXPoAihkWyGG+khpF50WYPLHdMWgxMKUAOgBqqrK7UzZQkvWaU/sh+YvLkmBT2TDhg/dabSlIlImlPzskwEbW7XW9IEk3RqghK6e3pBCMHeA8ewd98x7N13FHsPHAcoCXwW8o0gH2tRYOkxlJQ+eR9BrzRqHkpSbdHe34cCfkzJmSBu1YqhRszS9Ag6Onu023aGTVjNUk54B9vUoncRDzAYciuNP8i9ofUpwnmo14QxDmbKXLHM6/dUegJOOrt60NnVg46ubnR29WDPviPo7u4L6pT44/FPOubX4cxwPnwhzHIrUih9BqMceN6F0OnTpwHozXBXOitCFF9Ovh2YqpZy7vybgdt2dyfw7MmDGEgyUBpDrGQ0DCM179lL3QPofQM2XX/EgT9V42Epi9xOHsNdqTP9Ac/IiLkCQRiT7MS62pRzzxUkV5xEbW01tm7ehB89/n089t11eObEgZwdKxdIS24acD39IlNVjKTQ7bVrlqO+vm7Qy4HndWQbTuW6RzpyJcTmzRUsyX9894+4fPldvPvuH/GHP/we23fssSurisJ1Qqj4UfdoI6Ws9zmj2TB3az9yMU3TFkiqMHIdMLWpvIP7Hj1iO1YjjHGcsaLj5HdV8KoC2Bv0EQadXW5Nl3GOuXOmo62tAxcv/Sv+8IffI9k/gMuXL2P27BkuZnVBkst8JiCpGrp6//yehXQWhyD4CaZMSluMNJqhoSgHnlchVCzXLRAUGhplPy9sJgA7hNVJIPRCZ37x449zVbfkTiVUxjkqyktRGS/Dw+u+h4H+AVy+3I9de/YDAObOme4IoKwQfXBRB4PmljYsX3k/lq+8Hxs2NsE0zZQBrRD8RN5qqD5bub95K4/yVKFdV1dlCx1ZwkNdIvdTYUvgjME0TZimiYryCYhXlOFrX3sYAwMDuNx/GQcOHsHhw8cwZ87d9kTE3X/9uRRRGBiK3KG8CSFdMEKhl+suVHjNAt5EVSA/9Yj8hMl3vv11UEowc/ZiTJs+H/v3H8HJY3tctP6cMZttWdr/I3gzwveRuf0Jyyzh09zSBmYmsWlzE6rrPoENG7c5jndbYIV2yuQeOTq0FECcM5stwTRNbNq8AytXPYD6j3zSXjZv26Xspzu4XzlDBzLpmDMO02RY9/CDADhmzFqEOXMbcfTYszh+ZJf9DAAcnAeHaEct5RCV5krH6pBuIhg2EjVTc5yXSqmQMNjlwPNCYOpHzVM0w+UfhBLATL8dYxyGQbTEpn7gjIMTBkYpHln3NddvpikOKgUXJQQc+twSxhkMGEJrosweVOTMXb6c8jPnPGVQ8Jqz1Kiuzet/iKe37QZnHP/wy+exZdtebNq8HavvXQrTBAwDYIyCUjHYZEsOmwkIciCDuGjH9Ph9OOfYsnUnnvzRd7C0YTYmTawCIRQf+fidWLFskauJdGwZUnh0dSVQUV5mabrM/p1wgm8+9GWXYJDPALfqF0nRpppgdRMcOUGQgvVKizwtJOxoWo/GZWtRXz8Rky2OzzWrV2Jp82rccsstePXVV3N2rLzc5SuNmifMy5LWtJbHCquZYMKEcfZnORAxa6CX5hjVNGOaDKbJlG2F6U4iCodcOuj8BBuf3o7aSTdhy8bHUVdbiY1PfBet7V3gzETjkjl46sePobruExpH/RBc7xwqXxyp12PyX3wKP/6bdaiuqkBdTaV1PILX/+5F3PjRT2P12i8C0AigsNff8rUxrt7/1IVx5vACZuDns4WSrU35t+GljdJvM3j3uhBy+rLB5Po6TB4ks1zONaGRnBM0LOGxwYdxpNoOWutvb995AMC3H/kB9IO2t00dQ0FUhHfdc87Q0tqOiXXVSJomwAk4KGprKvEXN03F6Z8fR1VVBepqK7Fy1efQtPUpa+A2bC1r8uSJDndchj2OAh5KFQoyYblNiy1nHUfyyy8eRkdnNz77hYfw5N8+AhADFAScAxue+gHW3Pdl91HCkJd2J9DVnUB3d8IpuaD0z1u8To7BPYlzYvvpd4IzjtLSca7tolTPDQMpjDIVODoTWZDJjTE+oiLkVKxZvRyNy9biTHOrrQ2tXbMSGzZuxbp163DzzTfn5Dg51YSuVGqeMC9ONuWPVfjNsFJ5soIYk/V9kRT54jhC+Dz63cfxyKN/g7LScZYmZLoXZqY4vnsSffbyzPG9GQYqRHuxOeeoq6sGBwHjQNJkaGvvwp+85z246ZPTAUJRU1PlOn8x8FkGIyVyLFMHfrQO56AJJTKupaXdWc85vviVdejo7MHHPzkdTTsO2r/VWdcgKp49Icql9yT6kOg9B8ZM2+/DGbOeA2eR2lBZ6Tgkes9hwaJ7cPT4c6GOlZrjlVGXCxpDYQKOCr/coVyXA8+pJhREzdO09clcHmrYQS1Sly9QQsEJt01/jgkw+C0mnnDXc+cuAAAe+96PUFY6Hl9/8AGUl413zfi8M9dHv/cTAEBv3wVUlJciXlFqh3NnhuhBzK2tHeDLGsAJB4MBAPj9H/6Amuq41Vb69pqbW111rnKNXIVm2415UF0dR7sVFh+LxTAwMIDW9k6AWOW8PaSdUQbD40d3Yd/+Yzh85AT6zr2B0gljMX78DSgrHYcJ48eK5tUaQ0oJjeMnXsTR48/abfWdu2DvI6HT0oMmeJKyJ1sTdjYBAiNVC5JYu2Y5mlta0bhstc2goFL63HzzzVlrRDkTQsVy3YUF1VHMufOicc58fViU0JTIo96+83j0e+dDHbO8bAK+9Y2/RkW8zBZqMghBwuQcsRDDsC4YIQj1E2uxafN2cJ46mP3t44+BA2javgf33rNUc/6D6CvgYU1xIdryWc8tFSmZTAIAnvjxD8C5mGxke9i5s+/GrBl34dCRE+Cc49jx5/DMsz+N3I56b3XmQEczha0KqRp1oRS0G8nmOAmdWU4GKeTCLJcTIXSllusOAiUkJwSNmUK1i7/xxlv47AMPAgC+/91vif5pauyo5rg9uzbBMKhiY1ejn5gdJSUDERYsXoXy8gkoVwgqg8AZhyKblB+Q0q8wWL2qEZs2b8e2pl1YunQRtu/YAwCora2CYRjYsXOf2O7epVb7aqnvwblPthYUkaonzM9n2zoAAB0d3Vi4YDZefP4Ibp8yC0saFoBxDgoxlhshSzhIEEpAOEA4BWUcnHJwTjB75lQwJoTQ1x78PMpKxyv7OBqKGnAjn5W5C5Y729rF9lKPf+rUyzj10isAgPGW1kQJHbRyINkg6iSqkCHNcvkqB56T6USQGe5KDUYYSgGkgnOOG274EH78t48BAN586x+12xGPUKKEwDAMe3FKKjsDiyqYysrGpxjv1cHCxRUWIjhCX3zPk7gp+271Y+vmJ7B12y587C8/g6bte+ztHvj8V7F9x150tP7CI3ycY8nDaZ30ObqVJMePhGzOez579x5GLCZIZTs6uywtmKBp+2585KOfwsoVS7I+tp82rWO1Vmv9qM9ZukH61Euv4LZbP4nbb/uUa33YPCGdtqSuCyMk0mk5fr+PFAEksXbNchAgL5Q+WQuhIjWPHvkIBw1ju5YaEPWYOzjn+PCH/wde/vlp//aJk0CnDhyyPbVdtXhYOGiEiqJRqQLG8VOEJ9okhKJ+Yg22bn4C997TaK9va+uEYVCXAAqbf5JP31CucfasCEw48/cvo6OzG1/664ewpGE+2tu70NrWjm3bd2Nb0268/uufYeXyxakNeMgNvJMo1733pBMQKxnUNcC7np/USUtfr7+Jl3OOU6deBgB85tO3+Ebv5fIdCyM0ouQthYk4HA7BCSrW5InSJ2shVKTm8UcYNm2/Qdz5PRx1j7ctXRXKT/7VJ/DWW/+Y4uyllMIb2qp+V6toyuN4q1iKD7kWvNEi/AihmFxfh9X3LkNH6y/spWnrUzAMw6E5yrDsdVbgrj85g/c8DMPA0xv+FvX1dfjCF0VC8eceeBAd7Z1YuWKJ72AbVMZBBdE8t2VljglWNcN5zXHi93BDjp3wqvSHMRY5CKHQSzcMJ0GUr9yhrHxC0g6osiJcidQ8hNCCpaDnVvixaZrYslXQtrzx5m9SIpO8UAUQtUwnnHMwSkEZA6MAZSIaj3EGAoJE4hww02kjKr2KrvdhgwbEYGwFQ1hzK3dZ69R1eeqKft887CCfu7Otwh80cWINCCGYNKkWkybVYtXKJXZzhFIwFoJKIwQoJeAmFA0n9cJ4JyqUEDCqN8UKTV1l/WZ46WciI3/Dxm244YYPpe2T93iDhSshMEGFDFJYv2EL1q4RWtDaNSvR3NKKW27x11qDkPEo4ZcT1NzcekWb4VQE+YVyUlUyzSCvEpJKWh0AtklO5a8ilNhmFUBqQo4AEsdzBJPdB3W2S6w+DYI7zFu6WoDb36XWIxdV+xmu9nrvC+6d+Kj3iRBi3195j9OZc3NxVbxBLECqkFKZNHQ49dOf258//KEPilwkjXmwiMGHE6SgN8tlEqCQsRC6Ust1R0Gqg5Zqfwsze3NFsZH05iTZPudiMU2Gmz7xUSyYPwu/+c0/udpU+5Li84nwsqeTq7aJJW1DoQ+ZAlXwSKjCxztQS9y3ZjnyAq79mJM25TnKst6T6mpsYUvlpEJZgGBBpO+ff68PHzvp+u59jnXPtd+zrt4vxhhuvuljWPetB3HzLR93mea82o6f0HNPlKj2GQeyL3FyJWlBEmvXLNea5TINUsjoDhSpecIhrLYTJlrMtX2adlVfDSUEnDP09/fjYx+9EddfNwYA8OabvxHb5OiFLC8bb/VNJal0iC6tnjv2/dDmS5+hMcT+6bSfvJcSyGPzuqa9p+geIHXRhsz3N0AGjsjPFkO6Sv0U4vr5aSySCkqHl39+GqZpor+/HwP9/TBNE8SK1syVuU33PBQqq3UhYk0Oy4FHvuojuVx3rmc14esGuZ22QXWBAP0LJOsKqW0YhgFqCBbqgWQSA8kkGGf44Af/O156+TWXKU4i0Xsupf862vl8mUPCCgadKVJvogtqI3Wb15WXKrVzobqm3Tb8rhG2tNmm3b4v73XIzgypj6gI20vfiZjSFUdLI7Yp7iM31qO/fwDvvtuPZNJ0sXroSjMUMbjIJaVP5MCEIjVP7hFVE0oHmdBHLcH0z//8L3j0scdTtrvwxlsotdiypfDqtUJncyVkfJNSNfA6eYMS/iTzg/bKDXWK1iAf/4zFGzdpohMglMtgmWyeT68ZLJ114I033gIA/PBx91hSWjpeTKoUAZTO/BdkDg9CLnyGw9XvGAW5ovSJJITsaDhP/kSRmqdwIDLcCSijgvGAGrj++jGYcfftVrkFE5cvX8apl14L1V6mJgrGOAyVa45zWxYJbYc49YQYddUVEvsz17GlQNJFI8l1DiWRfrtBQf5yXfMCrql+Gmo/SzCVl4VjyFBRXjYB3Yle1zpKCRijuPDGW7jlpo/iQx/6/2BQA4ZB8cxzL4EQWOa43GlAtiXAjxS4mKiaFjpKn/pJdWhubg1N6RNJCJ0+LaKqmptbEa/6iEsYDWcz3FBDpTTR/+6Qn+pIJ8ULzD37SMYDCnAOcyAJ0zQxkEyCALh06bd48dTLtiakosKHeodS6oqyk2CcgXPHlGdrKZYW5BSxY4Dho70UFJx47NfPnHVHZweFaufwxHzzRzTceHZgwqSajPrEZMKwlZMjq6emRcTzTacFPf+C4KDrSZwDIQT/738bA0IprvnA+9GfTNqaEJCq5fiFi0etqFpENKi5Qxs2CtkgETZAIaNpxfneFtx/3z34yI2T7JDsKx2FVAVSvpAiQVP4hJLJJPoHBtDW0YMduw+jtqYSb7zxFs5feDOv+RWpAQhWpFMEE0/BJfRFGHwjhpxE7Ei4fYKLdovf/O5+LnnaVAHQq2FMeO75l6zwbYJXXvsV/vCHP+L3//l7mEz4hGIlsRRmhiKGHjuscuCEEOze+TR273wakydPDL1/xnfz/rX34P619wAoakESUQVRLmZlQYzYUhviAJKmiY7OBNo7erB82SLU1lThuuuuxQsv/swVCJEIiFrKJaKFaQdvrTWLDLa6NURmuGbpD8rYFB7ASsF8uP8yFExSE6qoUBgWrKCXc+ffBAB84Jr34+ab/xLXfOD9OP3L1wEAZtIEIRSGEc65WBRSQ4M9O5/GjZMn4sYIAgjIU3nvIqIjDK2J19bsHXxlhFxKW5yjraMHbR09qKt1ippdN+Zaezt325kLx3SVWyMl6Q5K0qs7j4YodjdXuYEh6JsWBK6S3nY0IRfroguIzE8kEcD/pkPQpOvC+TdwzTUfwDUfeD8A4BOf+Ch++7v/hZ7eC/Yzo/IXqs+4Tov3BkQMlmC6kvxBuUJRCBUIpHkqyPwRJa/FlWxKCNo7elBbU4ma6kr79zFjrsWFC2+i7/wFxCRbNhE+oagvbVn5eNd372Comt+4RR+jloLIBqmCL7cSwndY4f6HypeMYqaPP2iixh8UAWH6628WdS6EGPy5/TcIqqB49vmf4tpr3u8axD/x8Y+it+8Cfve7f8s9LaEP1HBx9/rcD5W61IcrEcUrUCDIRBNSob40KusBIQQXL74DAKj1lHa+7rprcd11Y/DMs6cUwlM3q0CYPuj6nJOXNuTAk48oOFdknvfHnB8uQJrl8iiZJudG2E1qLf6TKacxQoUG/uxzpwAAlZUVri0/8IE/x/vf/+f43f/6t0jdLWJ4oSiEhimiqv011XHtwFBXW4Vz5y7YBewSiT4A+Y8iCmo96mA56JaxNAfMR3/0odT+R+KcheuIzzbMxXzh4awLaE5lYVehTrLiFWUABGuC3H7MtdeAWj5MyXtHCHEVy9O1pa7T0fXo+ibbl5+B6KkI2U58ihqQg+KVGGEgPqGq1VXxlG0poXj+hZcAAH3nLjiOX4UAU3xNX4DMC+6pERSEsCZIP+Hke5wMpEGzD2NCeuNSxodEaNVKs1mzVUdIZbLPRY/CQickwkIS5p585kVcvPQOuroSANwD/PvfL7ShIkYuikIoz8hUo/BS9wT5aPwj5MS+1157jeY3iudeeAnXXXctrr/uWhw5+ozIKQJQGS9T2s5eI8oNI0QBZhcR5ME0FwzvVWhpaQMgcoS8lD1ye2/BQMH/Nvhh7976UwalOH/+DQBAdVU5Ojp70N3dm0I79P4//6/2fjqWhCATdn6KS2beZtEPlIri1Rhk5CJKJ/pD7B66KKFobevA229fxLQ7P4P/dv0YV99ULSi7fpLsHPdZyR3uGnyzJSvlnr/2F566TfSWQ+6ZczmsITXNA6mrH+t1ovccevvO47ox12JibRXGXHsNLr3zW7GdYpITE6H8EZcWMbQoCqFhhqCSDlFmaGdbOzBpYjWoYeDGyRPR09OHQ4eOi3YzILyM/nJz+1iBxe8GWQFSWUBurHfnO4y04StYMOuTisOaWNMhXlFqF0K8/vprQSlFbU0cly69g9/+9nd2KQogt4Ij78zpRURGUQgNAqKaBMKyaatQTRguk4xnV0IJWttEJc4b6+ss8wCROwIAqisrIjtsZSkHnSCU56HOsvMx4wY0iZQhD/PUelGS/r41K9JsqW8y87MJ+WxoghKamyVxqX+ialDruRzcvYUOdXDXqiJI9J5DovccJtZWA4Tg+uvGYMyYa9DZlVAq4QYnY/sdx8/iEHTOfr8VEhvKSETx6g4Cog643jo8Ufd3DcQcAIinAipB/aRaq9iXQ4Oyb/8R+3cgdxE8QT4hbvGW+UIzLuRqNi7x1PqteGrDFtxnlSv2A/f5nDkimOJ0QQktZwEA9QpnnH3vueuP/uica69lOB9etCvgx/kGCAFGLTqeutoqXLokUgpsbShLWZmJQCpi8FAUQoOAwdCEVLgc1MquUhC1nG3HjZPrrHpDBgzDzWPrdZ761RIK4psjJP3M2Gkv7GMYIMw0xw07UDa3tOK+NStx39r0WpB6JoOT3ZMKP1YEh0UhuFhdyn6e7677la8TVJ9LIlYQQhwWD6s8exEjH8W7PAgYTE0orF+IEKJ3tucA2QweudZy0uGp9Vvx+pmzabbimk+DDF2aUA7aBKxweu5UvdVpQrk0n1JCUFlRZrMgqJpQyoSHEhAQEAKrPhZ1TVqkWU6a4HzLeJNwJc698D7LQe9XUbPKDEUh5MFIrRkvX145y+WQ+T9u3rgqxR8Utt1sIel7vGY5NYw4bEixVksIGD+lGS6MFiSRmyck+0Fd5gipxezCHyH746tVeMNCmsbmz5uB7p4+uVbdwv4UOOAX2HtaFECZoyiENJAlkXMlkPKTq5C+lHU6jcSuI6OZ+XqJPYOQ1wi3gH3DkXX6N/DU+i0AkCKA0s2UOQY3Us6rmQzXAc+piOoux8CY9QxyuMpO5EIrLiRG7WJ+kB7FqzLEGKoiW/IFZ8yduFhdVeG3SyjkxY6f1VjkXF/OuR2ie6a5FU9t2BoqGk7XiewEUW5MW2qiKuDxBYIPef/CJpHK+2IyBmaGT6L1az+q4CkKh6FF8eqPIDhhrfrhR5q9rr/+Opw48TySSdOahQ5t0TjHru+1v/sHRwBhBZ4+TOyM5Qe6b21QRFyuDVoZDu4ZShNXNF8GPp1cFrSTkKUYXMeREyHO0drWmfNjFlHYKAqhHCMdhQ4QfqYWhronnWlGOnVVTJpYjX99+yIYYzBNhmTSVHcYVL9YqKHR1R2VBSGzQfKp9Vt8tSC3sPNeh2w1hFxcV3cftP4gTTdza8ILfx10xKJeMMbAAZiMgYNraaZS26TKZ31QQrGG0PBAUQiNcOhKO0tTXDKZRDKZxD//z3+xf8vWHBcdTkBCNoEJjAUVsXb/IgWQTgvKn1aYRSxiDiLjcsEUkC+2gRdefAkmM8HB0dHRjTHXfkC7nY47Lh8YqcFJhYqiECpApIs4CzPzki8S0cy+r79+DCbWVWNb5imxmwAAIABJREFU024wxvCv//K2/Zs60OQyOCOlf8TpnzxfSijcNETB5jhXe4H9dH6zmRF8zHDu4+SKGyELD5LP4aTGPbk+uJhdOobxTMVKThkvrISr9rYuAEBVVdzlsyxiZKMohK4gyDBozjjqaqtx3XVj8MILL+Htty9i8cI59nbeFz+/5oYQg0zW45DTwPqNUYIRcoHoPAthtbFJE+uwYVMTNj7dFHDMdH3KbLNsA2oY56iMlyMeL8PFS++grb0LHZ3dqKkWJUfkpCJqmLbOBKdlacgxK0gRmaN4B9JguKjmtuaj0aIuXnwHb1+8lPLS3nnHZ3Dx0ju4eOkdxCvLAQCV8XKf9r1FynL36LgKqIWY+QadaxDSaUHhEVYq2jwOofdJEUABj9+ae5cBADY9vd0WRJn6yRzoaHxSS7Vnqgkx7tnX+tzZ2Y3GJfNT6l4xxtGT6IMXXn/pUEWZFpE9ikKogBBk79a9ZFFmce0dXVY77n3qaqsBAJ0d3U4/4Jc+6Hwmns+pfYs+KARGYynjVmZ+Gx5KCwrfdo60jUiHcbdZX1+Dpi1PAXALoijQ6AiR28gEqmCrKJ9g0/X4g2gZE3KFYnDB0KEohPKAQuS8evvtS66IIrm8ffES5s6ZDg6hBXHGsrL3q36kMHWJBsvi/9SGbaivr8uBFqTCr/fq+nBakDZUXuO38Qr3+voabNv8BAApiHbY+0itUvr5ZEG74DOw9tERm6Y9i2ioKJ8AzoFZM6fh7YuXcPHiOynb9PSkakFe+JXxdm1TNL8VLIp3pMCRi2igMWOuxZgx1+K5F15Kae/tty+ivLwU3AqPVTnE0vaNOGaxdJoP0eSHOAgxvIW8DN6qnIAQQOs3bsWN9XX5I2CzP3sPkD8xawcnTK6zBdHTm7ej+WxH3hz6UXKHHDomj+CzJjrxeDl6En0oL5+A8rIJLm2EMY6u7gS6e3pRXl6KIWTtKyLPKAqhYYZMcoUAjprqSrz99kW0tnbYCYOtraKuUEXZBHR29yJeURpaAOUSHGHLB3j3CrsWWLt6RVpTnJc9fPJkUdTuTFqC06Aj5wrB7U+aVIutliBauepzONsqeOVULWgw+hGpJY9wam/vEpMgS9B1dSVQUV5q+428AtA7qXHXNCoObcMFxTs1wiBfYMbEy8yt8OAxY65FTXUVWs624+2LlwAALWfbMXP6XdbL7R4QhEaUhjGAS3NP+gHOO+CEMflJE5Woe8NSzEm643rXSS1IIFhYFwJ7RDaon1SLVfcsBQDcc+/nbUHkBg+kxlGJZNMFIJSXTciqv/KZ6+npw8wZd+Hti5dw6dI7IITi56+cxjXXvB8VFaVuDYmzSNqYK4E1haFbE0mnliKPwKBdROYoCqECQC4je9QXh3FnwDEMA9XVcdTUVOLkMy/irKUFTZ9+Jzjj6OnpQ1RXkGqOC7ut9jfNupTESO7+zc/c5O3LmZZWSwtajnSzeK8mNByx+p4ltiB6evMOAP5akLwa0gTrFTj5SgyV7AbxijJ7XVnZeJSVjkdHZzde+tkruHTpt7j5po+Dc4AaFIxxmKYZ0GoRwxXD+40rwgU5U7Md0hYnFyGAYRCUlMRQU12JJQ3z0dzShtLScWJ7a2YZryhNaTOwKmoETSgbSA2Ie8hW0x37qQ3b0NzcismTPdQ2w8G9kEUfhSBqxNnWDqxa/XmnSZcWyW1tWXdQxpj23qv1e3KN6dPvxKVLvwVjHLNn3Y2rrxqNP3nPe2BQAwCHqdHggoIS7IRor9kuDDN8yOCicInjw39yk08Ur0wIFKIanu7h55zBNE1r0CaiiiqliMUMeyCfMH6sCEjQDjYkLU1KlLDWTChfVNZr2WdpmvNqQ04kmDNQrd+4FWtXr8DkSbVqq5H7MZTgyv8hNwYA3LNiCe5ZuQRnWzuweu0XtZurd0+aX2UwgQ65EDxuDkWCiooJSCT6XMcsKx2P97znahiGgZKSGKhBBcu2aWbgO4zQt6AUiQIcA0YKYuk3KSJXoITYJg9CqTYIgFACzjgoobaG4qwT+6v7UkotbYdo/C4MJmN4++2L2LgpNYdk2tQ7wDiHYX3XaUJRwRh3vbCMMRiGEbCHRCq1zV98/DYAQE1NHO3tIo9pxfLFuGdFAxhjoJSAMYBSljJz3bBpGwBYZjgV/oMJU67pSMA9K5YA4Ni8ZRe2bN2FFcsXa7eTz9KuPQexa/fBlN+fO7kfyKMpLNF7HtOmcZSOH4sJ48fiF7/8NX7xy1+7tikvn2Cb4zjjgPJIFRNVhzeKQmgEgiuOZc44PvjB/44Vyxajv78fjHO8/g8tGH3VaHv7o8eezfhYlJLA8SnsgK5qXFu378G2pj1Y/5PHUFsdB+ccA8kkduw6iK3bdmPFskWWYPPnZFu/cRvWrtZFw2XB41bwSKVbumdFI86e7cCWbbvAOcfKFY4gYlZZb6kF7dp9EM8e3SFKbVss1HsPHMOd0+bjsUe+gbKy8eI+5UkeMc4x9a7b8cPHn8RDX/8SGGMoKYnhtdO/wqV3fmdrak6+W/RoOF2+UKaJqsUE19xgZEz5BgH5JPMEUs0UYRCUgCcHF8ZMEEIxalQJRo0aBUoIXn7ldEp5B9mOt+pluH6kr/Kaciy7PAVx6iBZf7c17cHf//IF1NZUWZk3HIQCSxbNRsPi2fjIx261zXI6+GtBEjmgpc4nAlgS/KBed+8eT2/8ESbWVWNr025s2bpbu/+nbp2OeXPvFtGUxKp+SggWL5yNqng59h88pn0ue/uil/gGHKERLy9zrZ8wYSwA4J//+V9w9dVX46qrrkZJLCbutw/behTkPmS9iGxRFEIFjGzpSThjIrqIEowePRqxWAy79x4GANw55VaXfb2i3B1uqxtwclWjxS7znCIJOZp27kVtTZXcEoQYIITipk/OxC23zkbDwtmororj3jXCz6HzNQktyE8AiXZ1GAkOZG9hQ3mNN65/HACwtWk3Wts7leAVhp279iMeL0V3dx+mzlwKSoX/ENQAMzm+/9hD6OpOpD221yzmDWLQ8bxVVJQi0SsEmbyXY2/4EH7xy1/j9C9+hauuGg0jFrP6mia6MaDulkSROaHwULwTIxhiNitePMMw8NWvfxv/+I//hNtu/aRru0TfeVTkwB8UFToB0traaf1GAELAOPCxm6eitqYSSxsX4FO3zUFjw1y0tnUqs1qnHen7WnNvkBDSD2aFlieUS2WNUopN6/8GALD2/i+jrb3T1pZ37T6I7u4+dPf0oTJejtunLoTJAGYycBDb+pYqBPKjTt5xx6fx1m/+CT97+TUYBs3I5+ONjPMTOjqTWjE/aHBRFEIjCEE2aldtHkJcs9Te3nPCB2AxKTgzVj1ZZCaDgt03rlnnrJE/gFADhMZAqOOBXta4EABQXV3pe5wNm5rSaEESmojAYa0J6c7HfX3r6qqx8akfAgCadux1/VZRUYaqynJUVgrzmLj24vqHDVf25hkFRdoBlmZtPQO9feft9WWljlZ+6qevOJOpojAYkRiub1wRaWC//NaLbhjU1oDuuvO2tOY2KXwytb+rAsZdnC5oIOFYvmwh2to67HLPjAOvvfI82tq78PGbp+CH31/nG+4dTgtyHS4UXj/TGm7DXCADf5DY1D/TX70XdbXVWLFsEdrau/DA579mr49XlKGzK4F9+49i/rxZMDmHyUXZ7X37jvgc1Gt+05vjdJDbqgmrsq+UEowb92EAwNS7brO2dRc/VNtRS3uTgICDYiBBYaIohCIirGpeKEzaBFLDES/qlNs/bQ8MRBE6lcpgoA4cmfqlVEHhLtPNtdtITLRKS8g8IFPJB1q8aC6qq+L4wl8/hBXLFyumFvF3w6YmrLl3mZZGdDhCVxXXHz65PZ5KtYQQLF+6CMsaF6K9owu7dh1AdVUFunsS2L9PBHTMnj0dZtIE54K2be/+wzhxTBfQEEzFlE4TApxn7VzfBYWBg+DOKbfan+3ndZhpQsNbsx48FK9QHpFOEEVx8nuLeKWDqsHIF/mFUy8DRKnLoswgKyvLXTPKoQJjHH//y1P42MdvFYMa43YkX011JfbsPYyOjm5MrBPCSv62yaqls9oq9BYOnkGz4HxC+ROlyxoXoqa6Ejt3HwAg+NuOHnsGFRWleOih78DkDGaS4cGvfsvdJ1l221WYLrOFEApwoKJigsscRylF6QTB5nHhwlu+Gkwun9Wi32foUMwTGsHgVhLr+fNvYOWqBwCIaqoAUmaXaqkFVfuJao771rrvO1+INNgQZZYr/nPWq3+VHQHcfMsdqKmutAfj3XsOoL2jG3W1Vdi6bTe2bttt79tytt2uNGr33ZM4q8fQ5g3lWuilE1tS+6SU4IkffxeffeBBtHd0o6qqAkeOnERFeSl6Er345je/g+7uXgCiztQ3vvkYwK07wUU7id7zKC8bH6l/cuKlJmoTEHCIZGxOKUzTBCEEE8aPxQ8ffxKASFYd6gmSRNGsl1sUhVAG8HK0DQUka4JkSqDWy8utBEQ/M8jq+76kXT91+qJ8djcynDBtMUjV1lSBEKCutsq1nRwPVq9aGlELssDJUMogN1zKRZRny39b5xl151XJtT/+0XfxwOe/Cs45qqoqAM7tEu9+pd7l3uVl45HoPY8FDasi9NUfDUvXBPzqzqMbSoEkBXlRGOUGRSF0BWDChHH48hfvt2lPDMMANShKSkpw8uQL6O07h+89+hBiJSVWSCy1qYLUwmSSaZkzQQekcrhx7qbOUUNjZYg4tRJT5WfDMKwBRRTFsx3PVO9Yl22BOJ9lm15JEoHVLsTWI8HDlAphDjPxo8cfFTyD8l4rfIL2/ba4CLnFZi3NcdyU1FLU5ht0Ii+dCEznd+fecibabO/sxjcf/h5279yEZDLpKtlhGAaeefZFnDv/pr6WloY1ISVAwqeEg9enaF+TtNetKHxyiaJPaASDcW7nCaklvSUoIUj0nUNlvCySPyib8t9RocvzoIR6BgJ9v8P3svCETKRhLmz3NdupzBWqGTZaEIDq7PF+91vn/KYL01bXRwvQcO+bKnCiDXlFX1H+URRCeUZK4lsOmYj9mQf0vhwZkEAosSh6CHp6+lL8QekGIL9zCEdrH56SSDeQ6MO9U0fXSGKFF95Ak0+xqGqRgFuLsTVT5bn160suqvB6nzU1Qs69vkhUOlJRFEJXCNSX2klKtcKzK4XtP+zsN6om5AiR6I+bTgDl3hzifz43WiW+845M84OyBCEUlDiCSJ2EqKY0L7KhcPIKk3h5qdWXVG1Fd6+D0gbCCqqiSa1wUBRCWaDQVXUqbHH2d9UcRyhFT2+f8hu1twnVrgZ+SaROLaCwM+f8DMKZ1DQaCgT1MrNgGGcfP5oaleYmVRv2sHN7tZcMhZH6zFVUTEBf7/msKHqKGJ4oCqEhBnH5OoJnfWE1FVXLcR1LUvNYx+xNCBt8VWWF61jujPT05jm1/XwgY6p9RBBnBSSfXMN/WsHJNZ/00PlDXE75NMIkW0Jdd1veQBKSkisUpPnmgki3iMJA8U5miUy0oVzO3FS/kN9gTYiOO87JzVH54txth+9nkPNYZ47TDWgcqRn+PgfTIFspUkBSKCQ4Z3a3M9GQogp3nZ8xrDDw0uuo6ymhqJAmOeoOOnGXONFzGfr1wy8qrojCQvGuFCjyRVFCFRMIIQTxeJnzvcDNizoE+ZmGjVgJ8AcNtu9CBijof8t8uND5EVUBE4+X2SUdgOBJlb1NgQuVQmPgKFQU84QGAYTQCP6QVASV+tYdy6/0JaVUmZFSdCfOoaenF1/52retF97RjpymrXwQmRdipcy7/4rPc+dMR3nZhNS8nlxDk9oTRiNN35fUhodCkIU9pniuxL2mlMAMqQ0JjZNaA2QQyzWFmaaM6tFjzyBhsbA7HVM0Y+uzZMZwWDTgYl+QybmUEHDl2ZYM2t5kVaePKumuPqLSCze5rn+OUKH7fEcKikJoEJCNAMoGfv4m+bmnpxeV8XJUV1W4EkEB2GMT5zx1AeyCeVyMIsiHz58x5m9CCXk86RcKNZwMLYOPFkE+IfW58jfHcdefVKTznAX8Zv1UXjYBgorJmcRITcbWaCyqJq+Gwxizn6fu7j70nbuA8ePHgqbRIKKatIumuMJFUQgNAqJoQtQ1CyR25rqqDXm3lRQ+6vHsz7A0HEnz44mCW7hgJupqqmAYBgzDcLXvsCUwmCYLZEyA1Q/f86L62ac/OCg1Utbqstzdv0cvNR6EoZZJkpYp3W9RNCE39PtILYhQCpj+2tDMGVMBi/fNXVKB2M8TJRSGQV35SPbRLQYG02TYf/CYc27qs2TnsKUmW+s+FzG8UJwejFDo7PqqAEr0ikgkogwa2R2wEAaBLJNWffY405zHekIR84NyIlgj3KtMFVw10lJfu8oJMiBW4nS8ohS9fee1wkXtsjdYwf6chSmuiKFDUQgNQ0QJ1fZ+ln8TPYIhuSperm0v02J22eTieHuhc+raJb0jHGfEDjVc+9EFmxUhB5Fw+YDr2SMQVX6pU+HX71n3NTVrBFAmprhcCKhiPaFwKF6hAkAuonyIzwOvm0FK7rW4xRnnbsfZZrARRqykM8dl07ZuQ566Kk/gusOn3T4PXQCQ2f2X5logmhCTAqeyohxAao6bXfgjj5pLWDaPItNC7lEUQgWOqDxuusGZECcEWy7diXOosuh6HLPI8H/BZLQYkLtSG4NzVaIeJbNehZ2ZZ6sJRRVihFLE42XoSfRZ3x0eO2sLu13HrBxM75NyjJCmuKKZbnBRFEIFgnTMCVEhbfHel1Pa4nssc5yukF0+kW7GqYqNwAEzMNor5KbRG88tsuKLy28foz4PutLeEulKfDvHFPdO+IVUAZN+3+FCyVREKopCaBgh7MCQOpNzmJFd/HHIXZKq1/eQqS08kvai3dQnksz3l8JCbufguTvjdBOjoN/9/Tpunjo7cVo1G7ui4fREquo+mSATYt0icoesrv7rZ84CADZuasLGTU056VAROYYS/SZf6ERCZKZXVVXk/Di5BGPBiZJ5w6BLqwwOGGWXDJoXmszgXQjpF4rHS5FI9LmEj4sBPtCMVhQmg40zza1oXLYWAPDk+s0ZtZFRntDrZ87iyfWbcebMWUyeVIOWllacaWnHhk1NWGOVWM6o1PIIRrasCRIyX8idQ5TKnuB+id37S1NcdVXc5Q9y8o5IWhNKin1ds7m3NkxUW3vaQUXTnJzV5tKun+/aPlBKb4fnPEj9RilJq0mGPReRJ8RAIJ4vOR0glNiEHH6sHfaxGAejDJRRwAh3PwgIehLnMHsWFfsWtZSCw5nmVmzYuM3+PHlSDRIdp1FefROefGoz7r/vnkjtZSSEFi9ZhcmTarBz609QX19jr1+/cTuaiwJpyBDEtxUUfJDNi+5OmKQpLAdRZ6eGH29ZiHYcs4qefqfQh7NoQeeyKql7ciMFkbgWoux6GOEUpk9SAFEiBAQ3vROf1EjLcEUSRXuEU1TGy9DRmbDXWyeZEuUZaP7TmIQHm6pnpGllOsEDwCUDEh2nsX7jDjz5VDSNKJIQevXVV+2bWT+pBmda2lxCaO3qpfbn9Ru3A2BYv2lHUSCFhMp84DfLjBb6SlOUBcmvVRkv983DCOtI1h4zwssna9eoYIx7BolMBgX/fcIz8+SZw4enfMhk50jbBLEvZNOFIOYCxqNpQpXxcuw7cMzWxgl1+NmHS/TmSBFAOsGz5t6lWLtqCerra1ImNs3N7WhuacPkSTU409Ie+jiRNaFXX30Vr732Gk6fPo3XXnsN6zftwNp7GwG4hZD8vHb10qJA0iCdKUNFOvqelO11tYSUF7irpw81VeURequHQ4KZKixSv+vzkVLbTD/DTY/cCZAb6+vwej4ZEyzIgcv8/9u71h65jrT8VLXDTeQHJJ/QsiKxPdOX6Z7Jigg0ltBmpWhh2QhIvLbH47HnlixZCUyEssKOgoiQUDag9Vx9m4TYa0GMYLWKVkKKuQhpZ7o997ETvoEUfsDyAYK7ig91qk5VnTq37nNmusfnka0+fS51qqdP11PvW8/7vh1kXXaLLry9OS/rCNKJTtkUBdv1K8MG9vY+xbFjz+hnaveDsV3E7mQHSTwyS4gkntmpMYxoBodEs7mBucWbinRGR0cBCJ6Q23FITUKjo6NG45cvXy4I6YAQtXZj/kB99wWhFDs7e6iWjyV2lyTqC/Ezb8cp5KLcf9zre6LZZJ7Gyj4nM+0m5b/7CZBfRugJsY3EXRb2/OnxPUlcvYQSUEbBCQfTy7kXJLMvcBHPzat/KbYdxLO6toG5hRsG8YyOjuLSpUuJiUdH1wlML1++bGwXhJQcaayhMOilHWwtmasM8+6uCAYsl4+j5Lnr5OIz4I+7jDPfDaLtD3sFpAAi2iJygVIiSkw7yTDIBr4cnAIcoAldPb2XJNstMEh5WSb3thFnbZvlRfxSCq52kq45ijUnjsGBo9jdfaAk24B4tgqRQnY4aOLRkWkW7ShCGmlUMdyoJiak4UYNw43aY0NIcUjrklPXeYu6MoOxVMbVygOq3byRW4qdyPs5xAmci3WRwJG8epK8WULFhCDeIkrZp44/QnJXMaBNYqzvOqml7YsexLk7ew/ximUJiTADqv7rx6KSlhr96ZN1pTwQRjwu0hHn50c8OnIr5WATEgC89dZbKQgJuLJwvSCkLkAJ9UZbmQySAoSgPHjMiBvqNkOD64fvzmMXZu10c/PgLlvc0A/gXl2dJNDVbq5rulHDuRBmrcvJkE1ASYlHt2ykxcQoQ3nwGLa29/wTO/gqw5RxnaJfXYJZEI8knSyJR8e+1BOSJHT58uWCkFIgrbuOUArqFZ4TQgBmHiMEO7sPUKkMqAwKWdVh0UUK7kzGbqJy3b/bHvUHAZnfK6UUHG5LyKVq04lGij58qTbXrvUl3PaTJNqgoJSh7TDA5F9Rd/Xa8mzqScFdiHKfuSwmRhnQFq7iD29/1DdquF5DKPE0khPPJ598orbzxr4XtUtCSCONmpJ+z0ydVa/N5gbWWhsBQmp4r4cdSYJI7fNltUspx97a2kW1fNwMZvVIg3e6OK65RJLMwF057aKR3ayea696D5xCiDy8cTy7hmML2fHwc+Pk2nZpb7u4nf4s2pnXzWfLF8TIZ9DIC+cd113N8tnY2X0oSo3AF9foMUJhrrhO4oOikOZZPSh5dr8Rj44DrawaSki4CQB4dfoshutVNLw/ZKMhtl+dGcfa2gZWm+u4oqULmp0+19OE5Mqa0Kk4IW5dSAw62r21H3+14q8HZVFGQkLM4uN/sJxxgHrnh1hDeSKpYExi1UtPlSdYIndcUHId9lkoJWDtEAvF4a4jlIIyJtRpHtkI1Ro0K4igrVtZlHgTF4eVq1e4TZLh2lPIMcpQqwyq6+SEpU+9YblBkk1S4pFk0yvEo6NnynuHEZLE7NQYRho1RUj1egX1ekVZSKvNdcz1ESHtB2RgqhwkNrd3AQBVLV1P+LXJxQ/qGs0l5+/LefTQxlLOGQjxrTHBr70/enF0bhtFXhfKtjGL95bS0raCKCgYpDKOaC457lk2rk8k3+udcp3DQaiIF7p1+2/xzuCfmP3Q+pg13GVQeuf5OUzEo6NnSEhHGCHNLa4ACBKStJBmp8f7npD0rAlZghKKHW+x16/Vks0PjBCSKs5Fzm7VmlCMXC1rF0fO8Zup757bMBf6QZO5TLkjf6zY774+GBLg/mSRWbWZnPwIstLdc+IcO81OuCqulwikU4QRz43l9/DccHA8iyKeXiEdGz1JQjqSEBIAzE4LMYNOSID4MprN+4qU8ohFkjOoThVJ3WZPUD/qNlf54wihIITDl2gTgAAVK3N2FrFKjLHMfvBSQp0KHQYA7XvcUMbsF9Vc9yUxzHUhSojhquvEUla3YzyUiCTOnPod/OEbl53HsnQh9yIk2VyZv4Y1LU/bjeX3MFxPZ/H0KvHo6HkS0hHlsptbXMHs1Bg4N4NjZ6fHFUn0S4LVJDnkJNIMBptbe6hVgq44+x5JBBCci8zPnHNk7bBPGvMR3Ub0zDjtutDBY397m+RuujIuTVl4O1OHvEY+x7r1IydPYn+SwOfOCOqgXXGra/dxxcvTJomHIJx41lobmF+8Ka7tQ+LR0VckpEMnpHv37uHevXuKkOaXVgIWEhBMsNoPhNQNqPEDptja2sFQdSBwnk1ycQQUOJ8zAP7AYWfSjlMiueKHHKGmgT2qP4wHsiZkHyuUhd0UmWAnI2TbmkucwKj5jPjrQLD2SXEBNV51mAIGT/7NOGpVIU7Y2tqVLQb61u+JQl3EAzwexKOjb0lIhwykchGStJAIIc5YJKA3CCnK4klqqRjxHJSg3YaSt255ooSKJ89Wwasp2o+DzEjQ6UBoWyphx2y4Y5DkPjd57L8VlMEdHcq4tJe6pNm6Mk68irWZeIm2boFnuMboPX+V8nF8eOtvUFHZPfZfSZk1CuIJ4lCQkI4oQorLZwccjhIUlFK0221lgRDizyiHquVM78Us/75PRNkgz9mupMuo3o6M1IEry967LqyhCA7qJnlp+vuFB73qIIBRwA4IUc2Bq2P+fhLYlxTKNUd9cYIu0VZWVUiskL5Pfj7jcyWoH5R1XJCLeGamzgKTZx5b4tFx6EhIh4uQ8kywmnW6lG4gLRL/xyrig3QrKM0g4UqQKmfUjHGUEiYR7RRR5MY47/EZcvQz4RrITGJK5sYTcWjetxQpz5aZFpLVF5KJRcU2BfXWbvQ1nLA+qhxvMc+bMZFhQhU3PvYyvvMH31WuuUTxRjFZOvYLknjWrJIIPIZ4uimJ0K841CSkw859lFfGb/vBT0NKulvMlmrLH6B/3J3QlFAKLhVMWl/WN3dRc6wHZYJEg4NY99mvTMhJ1oQ6my7su6YOQHLCkJAl12WVVb/Cqp9aKYkFpueHcyi29R7CjxOKOMvxDLik3bqCbmNzByC9UQsHAAAOQ0lEQVTUsIIopakt7ryqqEq4iEdlpvbcbvp44CIePVfb44LHhoRsHFQJimCer+whf6TCJQcABJub2xiqDhhrQZ2CEoK2tv4TVQk1cXoUa2xPNcB0aXxyBMUU2SGY5cC+d4etdgyb0CTBCNEBAWVCfGCzTiBoNUKZaa85BvpgkVGgIisF6rVsXcdZQX9OkhCPjoJ4gnhsSUhHL5WgsK0hAAGLSLeGxHGuJYA084NJAgKAibMnjXbSwh6EADGbtAdEqtYKiDqnW/iEFyQKOesPN1DCD3YmozgYa0iHu9/cuRkJ7zxXkLR8pnSRgowXShJQzRkDoRSMc5QSdse/t/j7VquD2NjYRq1W7hmXaxjxhOZpa+5PSYR+RUFCFrIuQdGoVzE9dXCihoBlovnmbZJTKimuufm8QchNcNH3CiMfPVtC0EXi9QnRw7yzhLk+s05IfIkJqCPeibaCohBwl+W01Bjm5svidlGWUNx1ksBcKkl7IpJFXJnevgtrXhaWbogn75II/YqChCLQTQmK78+JDA1zizcwv3hDEdLU5NlUGXzTQkW2W+6lanUw80hzSv0UK0TbB+iqJf81rM5MHgvIuu9dti8H22zUe3Gs1H0Wiiza6VfIZ3Vi/CRee/2Pxb59toRcxBOWLgdwE0+v5WnrRRQklBBpS1DIIFmZz+4na+uY1wipPiTSCzUcSplg3E5QpBCXaod4RCR/t/XaYKoZaVQskp6+BUDoek6aQcOIEcpgsBmfeA2AGEgA4NWZ8+J1dsJ5fi4ihS7WglzCAd1qyZOapEVsZ8xGSM64rO8t4bKUk6LTsg1hxONStAEF8WSBgoQ6QNoSFPV6GfV6GbPTY2g2N7Ha3MD80g1gSbQ3PTkeSkgSUUQkCcN3n2lZDVSABTHa6gRRCqkwF4m4tX4s/4FsoPI8hhtVDNcrmJk8jfpQGfOLK1hY/gAAx6uz57W+keTrQk7O4Y6DCWTPSe+ZIyilYFq9D0E+3HiufFesFKSEt7e98wDl8jHzHtIiJsRpBbvqWumTpaGakGe7age5YoOiyMdlcctJytzCdTS97SjiWWttgBBSEE+GKEioSyQpQSEIqQIAaDQqaDQqsYQ0NFQJ3Mtew7Fl2zqkxSIdZRfOne7+w1rtt7kYeDtTlcUvsgSJLd5CGqg8j9mpMcxMnoH4s3AwxjF1/jQuTJxC/SsvYGZ6wmgrGzKwaKXLRrMOYPVl2m5pdtJEtlKcolvKt+/cxe07d/EPdz8wP7cmepDVHVReOG6eE9iG/7wPeSq5rNZ+OiEeAAFVW0E82aAgoQwRTkgrAICZyTEM1yvKZecipGbrPhaWhMBBt5Ci3HNin2kNie18feiEEFAQcHBwmSAoQqItSjhAEyUQgwzCYoiSDjpz89cwO3UWs9NnwTkDZ8zrG0PbKxq39m8fY6Dyq7hx7fsYbgyB0izXiIKbmbUJOAUEfgZ3T1yi/Q1lbFBk9VXobr5kHdcJixKqCIhoVk+3CLPWowQxYVYQpcRJPMP1Cq4vfQ8jjhIvUcRTkE62KEgoJ4QR0rx3fGZyDAAwOy1eJSEB4v3cwkqAkACOycmzAEwikoOCTUSA8MINOeSt3ZZviIIMJKQqsWX6INU0s14pQphbuI7N5j20GUAgZv6cc9SeewEA8JN/+RGu3rwFALgydw03rw+pNvyexiBfPUJom2kCVZMgLvjVzycHUEbBCTdyyUncvnMXA8ePuq+3UvnYyUrtJKf2tkR9qIzW+nZoOW+xL0hAzda65zoTxDNcr4AAuL70PQzXg56GgngOBgUJ7QOiXHbzSysBQvK3TUJaa21iYelmgJB0q8ggIi7r/JCOk5LGgRDAX35yj85ZZ7MmJDzqhEH8PTgTttnQc18FADz99FN47tdeRK1axlCtjGZr3QsYLqlyFJwxlHIJWHV9imxhpIziEccy7AShxHfD5QSfyEwCCkPr/ibmF8XELRnxbGJhSXgqCuI5GBQktM+IK0GRnpDOgnOOyQviuG0R6TBT/ZhrAFFrAnKBuo22M2AVAIIRHTrMxXt7YDHSsBD3QCOJLE7pJOocibYXlm/iySd/ET/96X/j6aeewuef/xeu/NWfg5YIvvL81wB0WPIhzBrKkFnE2k10opyk8ATqye+t1vu0NigB4QSImcjYFrdt1djiBP38YJmH8O9Fd8GttTaw4CX8bLXWFdlcW3w3JGvBpkoQutbaBFAQz0GiIKEDhAxc64aQAIaF5fexuLyCKY+Izp8/4xNOYFDI3iIyBhLNFafXCSLUVDSJY+HWUxK1kwvN1haGamVwzjFx7gyWr74PAPj0s88AiDE0ijA7zoWQuZEZ3mBnt8pPj3f7zl2cfPml0ONRNYTSQHfDNVsbWFwWFkyrtY6GZ/FcW3wXjRCLpyCe3kRBQj2CTgmJcY7pqTEsLK6Ac4aF5Q+wuLyCyfP+eYRE5/kS4Oo/JXLNSF+s5tZ/uS9+yI4bdDpR1+nkJF1NjXoVS8s3MD/3HhgXUuN//ecf47XfvwhwoFYdAOc8dC0kFfl0zFYHBR6zDsQTpeQx8st5bbnWhKIgEqJSb9sX0MRlQ2+2NrB0VRLPBhr1CqYunAEunMLwUCVgZTU1V1tBPL0LwrNe8SyQKewSFEBQ1CAHA2nhLCytgHNg8arw1deHKlia+wuDhOS5/rUsZJuDcbHG0m63wTgHZwztNlPZEgCA0BIIMS0YQiiOlMT6DS3RQKoe31rSYj9K5qJzyWkJEScJAUCl/uu4cH4ME+fOoM0YAI72Iy9ol3NsbG7h26+/gZmpcczOTChrTV/0tofBXzk2gs/2VkO/o7jjLsT/6LgvpbaECcFrve+ScVOk533fHL56zi+/wVS7qkw7BHEzx7PQbrfRbrfB2/J5EO298ebbAIB33n4TgG/12OmhSiUpPKCO8t7BZKf6++XrH2D52l8DABpDZUx6lv6wFsYg25LEo5MOgCJPWw+jIKE+g55gFZCEJKwhCZ9gGIZGvorJC2cwNXFa7Quex9WgEtz2SUgORpKENrf3UC4fV3m+QMR6jySIUqmkBhtXvjidhJSrjpguurQkxMFQrY/iwvkxnBs/DcbanvUDbGxs4duv/xE2Wv+kyKfkkeR+klCyHxxXRKH2hGZL8Pe4iCiOhMR78XdinAtb1yMf/9WbhDAWOPb1b3wLf/b2mxgcOOokEb+8t00+QSJyXd9a38LMaxcxef4UpiZOB5R2a/c3sbT8fkE8fYrCHddnCMv4Pb/0PmYmzwCAcFEAWFwSlpAkoG4hCUjOkm/duYty+bjzXFXVNWTR314zUujAzeXHyojaOdOT41hYuoHlqyuo1Sqq0fX1TUxPjmvWT1Dqy/ZRIZcWrvWzuDmkWUvId8nZ2RIkXKIE1RYlQn6o3gsZ94/+/hZe/K2TOPnKSxgcOIry8aMdZ9B2ueTqtTImz5/G0tUPUK9VMNyoYO3+JhaX30dTI57RIjN1X6KwhA4JbAupUa+g2drE0vy7qHupT4BklpA4xgKW0BdffKH2AcCL3/gW3vnT72Jw8JgYODQrSLriXFaQfo7Y9s8BTOJyW0Lh60i6wm9+wZPqtkRw4tWl9zTLS++HOejZJLT/lpBprURdbweZ2pYQIL9zrixGZf20mWEJyWNtzcoBTJeccMe1lWUsn5sPf/ARtrf3cPKVlzBw7FmDSI488URiS8i1DYhnYvrVi2jd31TtFhbP4UBBQocI9+7dw4kTJ/Dss88A4Hj48LPc72mQEAhoySeaMFecTUIylskmIUr97Ny6C8/bE94p75AdG2PKvImThAgQKCHQSyRkXxsgIUdytygS0tuQa0PtwEREm5Awhnb7UWACwwHc+sFHuHX7o9hP1y2+9sJv4Eu//Eu4cmU593sVyB+FO+4QQc4GX3rp6/jyl78E5vnwCazSABygJc8CgRiECfUIQYvdKR0poeQRyRNHjqB0RHtcOPCb3zy1j5/ODads22MQSu0s1JLIgokvJfpO9BZDaWGrSFGXxeWR01NDAVAZ20/+3jfx8u/+tlIgcsbQ5gz/+z9fCLEDY564hYG1OThnaptxjvajR0oYAfiTCH9yIgQOhFA8crgSC/QnetP5XaBjjI6O4u7f/dBc7EeYBcEjhzA5yHDG8X+PHqk0OHImPTBwFNs7D9T5RFtn8d+HxQEFVWlif3YUQAg1/lOqpxLimd6rV5HsEyZ3hoTJ7Tk8q8jhzg3cg8O5rZ5ZTWGpE5C0tgml+I///Dxxnwv0NgoSOqQwqSYZGAuSkj4jljJdIeEVrqLtnb1AO64MBLYrztlnY/DxXWdBV1z4p5LXuv7Le8j/wWspOolZSoNcfd8ZNO5MEKolnBXvo9NFMNY2FHXyqG1dRb0LgySmn/2Zn0t0foHeR0FChwyXLl3Cg71PvUwJEfPgDgYsfU2Bg2Nw4NmO+pimyFiWg7Y5wPaqFRSjdkvbWmSAsuv8uL+4tc4WYU0yztw567oEIQQXL34n83YLHAwKEjqkCA70xLkZB265UfQkmQPHjxnuuF6F2/IxF/SN83PvUULELuXkM8AngV2qnTGuAl+lFaTEC4xFxDh5SPhRPv74H0EIxS/8/JPJLijQ8yjUcYcQhBAcPfqMt4Yj95rpaog11ErOMvYTYrwX45P5fmf3IQYHjiqFm/dP9QOObSHJdu0Ptu/4dNZndZ1jXZF27cc6fXX1PkZG6qGnr662Io/7CFkX6QJxP1/zMA85pgX7qp1cFQU0z9etYUAYWt5UhevX+Raz3CGDhtUVgW2vTaPTweePUopPP/33yM9doH9QkNAhxYkTJw66CwUK5AZZ1bRA/6MgoQIFChQocGAo1oQKFChQoMCBoSChAgUKFChwYChIqECBAgUKHBj+HyHlHRS6pqmbAAAAAElFTkSuQmCC;rotation=0;" parent="1" vertex="1">
          <mxGeometry x="413" y="171" width="240.28" height="378" as="geometry" />
        </mxCell>
        <mxCell id="B2emX07kh6PidSc0l1N5-38" value="" style="shape=image;verticalLabelPosition=bottom;labelBackgroundColor=default;verticalAlign=top;aspect=fixed;imageAspect=0;image=data:image/png,iVBORw0KGgoAAAANSUhEUgAAAaQAAAKOCAYAAADpk234AAAABHNCSVQICAgIfAhkiAAAABl0RVh0U29mdHdhcmUAZ25vbWUtc2NyZWVuc2hvdO8Dvz4AAAAudEVYdENyZWF0aW9uIFRpbWUARnJpIDI1IE9jdCAyMDI0IDA5OjI4OjMwIEFNIEVFU1S1Z2VKAAAgAElEQVR4nOy9d5Qkx33n+Y1sQJTEJbl62rf37t1/J45rb2YgiisJA5kTRRIkAcKOa99jAAKkeCLFFcXFUKS0NAAIAhzXZrp7LDwJelESQWnFFTnT3s1A1Oneu6c9mbc6cVeGwHRF3B+ZkRkZGVmmu7oqq+r7eWhMVVa6yoqIb/x+8YtfCKWUQgPzd3/71/in//kPkHIduVwOUkooJaGUApSCAgDHIxICAITznEK4tzv21P+VQJF7F9ituLOUdmeVRsG/QxW+Mz5I2T+xQ959lWvjplB53qW/LfiF8u2VelB6zTe+vXMflfJZ2nEqept49Mq9LfFP9Mb1DM3vYjZpseYtrJf+v//up/89tu9ot78EqSJetW+AEEIIAShIhBBCMgIFiRBCSCagIBFCskdDj2w3LhQkQgghmYCCRAghJBNQkAghjUW2ZzM0NBQkQsgWQwUgxUFBIoQQkgkoSIQ0KLRbSNagIBFSNSgJhJhQkAghhGQCChIhhJBMQEHaKJxJTgghZYWCRAghJBNQkAhpUNRmYyoYk0HKDAWJEGJBpSHVgYJESENBsSHZhYJECKkpKKn1CwWJEEJIJqAgEUIIyQQUJEIIIZmAgkQIISQTUJAIyTwcxi8ffJZZhoJECMke1I2GhIJECCEkE1CQCCENBLMiZxkKUgNCbwghJItQkAghZaIWujq1cI+NCwWJEEJIJqAgkYbB7xtzDCHb8PdpZChIhBBCMgEFiRBSMhyJIVsBBYkQQkgmoCARQgjJBBQkQgghmYCCRAipLzjAVbNQkAghhGQCChIhhJBMQEEihDQU9OhlFwoSIYSQTEBBIoTULzSHagoKUlGwVBNCyFZDQSKEEJIJKEgbhlYTKR7msCakMBQkQgghmYCCRAghJBNQkAghhGQCCtJGEeUbFeD4AikH9TGqWR/fgmwMCpKTrFaKrN4XIVmHdacWoCARQpyI8H+VuBAhFCRCCCEZgYJUNdgtJKS6sA5mDQpSXlhgCSGkUlCQCCGEZAIKEiEkHc5JIBWEgkQIISQTUJAMOGJEtorGLls0s0hxUJAMWG0IaQQau3uQZShIhBBCMgEFiZ0lQgjJBBQk+ukIISQTUJAIIYRkAgpSXmg+EUJIpaAgEUIIyQQUJEIIIZmAgpSXGg3Bq9HbbjzoEibEhILExpuQ+of1vCagIBFCGg8KVCahIBWA5ZaQOoWVO3NQkAxYPgkhpHpQkAghhGQCChIhVYM2eVVhkGPmoCARQhoT9gcyBwWJENJwUIuyCQWJEEJIJqAgEULqClo/tQsFiRBCSCagIBFC6h9G1NUEFCRCCCGZgIJESIPSUGMtDfVlaxcKEiGEkExAQSKEEJIJKEiEEEIyAQWpAAzOIYSQykBBIoTUFexE1i4UJIAROIQQkgEoSClQowghpLJQkCxsIaIwEUJIZaAgATGnM/3PhBBSHShIwAbNINpOhBBSTihIhBBCMgEFiRBCSCagIBFCCMkEFCRCSFXgKCyxoSARQuoYyl4tQUEihBCSCShIhBBCMgEFiZAMwgnapBGhIBFCaoByjwVxbCmLUJAIqVXYppI6g4JESIWgG64yUKdrFwpSKizWhBBSSShIxUBtIoSQLYeCRAghJBNQkCzzh8YQIYRUBwpSChyAJoSQykJBIoQQkgkoSCkI2kiE1Af0w9cMFCRCCCGZgIIUwm4UIYRUEwoSIRmE3SPSiFCQUmGTQAghlYSC5GCzUsRwCEIIKR0KEiGkjmH3sJagIDlgESaEkMpDQSIkK3DYcgvgQ60lKEiEEEIyAQWJEEJIJqAgZQA6FRoH/taEpENBIoQQkgkoSKRmobVBSH1BQSKEbDHsOpDioCA1GGwaCCFZhYJECCEkE1CQCCGEZAIKUgw6tAjJNKyidQ0FyUQwix0hdQ0FLdNQkAghdQ5VqFagIBFSIdgsEpIfCpIDNhyEZJSEV521tZ6gIG0BrCKkbmBhJhWEgkQIISQTUJBisDtISD3DGp5tKEiEEEIyAQWJEFImOI+PbA4KUr1BnwQhRcGqkj0oSIQQQjIBBYkQQkgmoCCBpjshhGQBChIhhJBMQEEipFhoShOypVCQCCkWRjUXgIpNNgcFiRBCSCagIFUTdihrC/5ehGwpFCRCCCGZgIJEapqKDutwDImQLYWCREix0GVHyJZCQSKEEJIJKEiEEEIyAQWJEEJIJqAgEUIIyQQUJEIIIZmAgkQIISQTUJBqBsYcE0LqGwoSIaTmYXetPqAgEUIIyQQUJEIIIZmAgkRSoBOEEFJZKEiEEEIyAQWJEEJIJqAgEUIIyQQUJEIIIZmAgkQIISQTUJCKhlFnhBCylVCQCCGEZAIKEiGEkExAQSKEEJIJKEiEVBWOTRKioSARQgjJBBQkQgghmYCCRAghJBNQkAghhGQCClLZKW2QmkPahBDiQ0EihBCSCShIhBBCMgEFiRBCSCagIBFC6haO0dYWFCRCCCGZgIJECCEkE1CQSB2gqn0DhJAyQEEihBCSCShIDQQHeAkhWYaCRAghJBNQkAghhGQCChIhhJBMQEGqJzhIRAipYShIhBBCMgEFiRBCSCagIFUZTukkhBAfChIhTthVIKTSUJDKDQMLCCFkQ1CQCCGEZAIKEiGEkExAQSKEEJIJKEiEEEIyAQWJEEJIJqAgEUIIyQQUJEIIIZmAgkQIISQTUJCqAmfPEkKIDQWpCCgfhBCy9VCQiANKMCGk8lCQNgLb68aE+VYJ2VIoSIQQQjIBBanM0HiqY/jjErKlUJAIIYRkAgpSg8DOfRngGBIhWwoFidQXFA1CahYKkg1NCUIIqQoUpGKhUBFCyJZCQSKEEJIJKEgbguYSIYSUGwqSTRGD4oID54QQUnYoSIQQQjIBBYkQQkgmoCDVCxzWIoTUOBSkmoBqQwipfyhIhBBCMgEFiRBCSCagIBFCCMkEFCRCCCGZgIJUEgwuIISQrYKCRAghJBNQkAghhGQCChIhhJBMQEHKB4eMCCGkYlCQCCGEZAIKEiGEkExwU7VvgJBqIaWMrX/leeyfbQVSKqjgQXsiO37wXC5X7VsgFhSkjCClTP3M85oqeCf1T9qz1tspTJtHSvcqluZ2z6uuOL322mtVvT5JIpRSDb3+qchQj40QUlkavPnLHA1vIf3d3/01/ul//HfIXA45mYOUEkpKKBW4GYICq2AsXZ6mYUIUEZgnwn8Eol65rhh2z1L31rVwxnrv1sU2Jq0Cwbfb0NHVR8VXnU9pX/Rzlir4N3jOKtguhP9cda9d91OEbS2Vof1KnkKlfqjSPsh/wiJu0zizc+eo3CdP5v7Mf6YqfMZKqth2heD5Kr88C+FBQYXborOr2C0q803wMn5LKvE9lLGTua8QAhACufUccuuu702qScP7Jh797GOQUoZ/aWxFc22KkZT+n1Iy9pfL5YLtKnZM+ahlMSoO+znncrno2SoFqRRy0t8W/Q5b9bzrk1Dgld+Zy+X85+v6089XWZ2DSvP5J79QleuSdBreQvrUpx9FW9su7OnphFKq4i483UjqxrB7z97Y57NXvgPPk5DSg+fRxVgqcTGSuHJ1DqdOT2BmZj6x7/BwL46M9KPJa4KUCp6HyFQiBTEFRgv++x7+MObnl9DZ0YL5hRUM9B/A4MABSOmhqUlAKRlap+W9mcK7LC0ul/+6ZFM0vCABwPr6esV7aVLKmF1y8tRZnB6dxOGhgxjq3wcpczgzfgHde27F4ZE+HD08EFZiKSUH3kvAFP3hkYfQ3dWO7/3Z13ytkSpwywnseevbcGSkP2gko1+Hz7t4tOWTy+XwC7e+He3tzfj2HzyLpptuhud5eOgDvw0p98PzJJQSVTXO/+IH/1f1Lk6cUJAAtLe1luU8pdYts6E8PTqJme/9IXK5dahg6Gqg7z4AwMzMPKRUaMoTbMd+fBLb3dbZcyuGBvZjsH8fZE7C84Q/rqH83+LUU59Gz569GBnuw9HDfZDSg6BVWpDI1Ry5nscnzgMAHv3Pv+NbmQqAEBgaOIhfuPXX8Wd/+o3EOaoddUeqD7t9qHz4p91QXgncR37vEshJBSU8COFhbn4JVw33EqOCSkM3kidPjQMA+vv2YT2XQ05KHH3fb+HYg7+FM+PnAAF0d3dgZOggzoxOVvemaxRzDHRy8iLa25px7uILADw/4EAB3Z1t6Olux4MPfahqY0cku1CQANy4sR76v6vB1StzAHwhykktTApvvfV2zM77fu6RIw+H96jHQ0g69vM5deYs/uxPvw7flvTw83vfhTe+6adx+7vvxNjERUgJCNGEw8P9VbnfekILzeLSKqbPPwshPAhPQEFAwhf+amDaX0353A2kalCQgDDyp5p0d3f6rjoAUgFSRdVn7969yQPo3SgZpQRkYIECwLe//W088sgj2Lt3Lx546MOAEOWI6m5IXNMWdLl9+IO/AwUPUglIJTA00Iu5ucVq3CbJOBQkAAoSEFZaE5F4UQE8CNGEm37sdXjjv/3pcOvLL7+M7u7OCt5HfeJbllEA1ssvvxz+29XVGYaAk9KJ5slF9UU/357uTnhNN6Op6aYgOCS5LyEABQmAb757nogiqVLqiSpT/bEjto4e6cfs7Dz+l//1f8OPve51uHHjBv6/f/jv+OM//Ep5LkjQ09OF9z38oXC+2R9884u47bbbwoZ0cOAgFMTWhCA3GLbQ3LixjhvrN6CUQlPTzTg7dQFdXe15jyGNCWsfgJtuujkTDdHf/s1f40f/+i/I5SSkkvjABz+Czk6/4h4Z6Q/vUQjBMOQC2M9n/MwTmJ9fwsLiEgQ8eJ4IBf9P/+QbQXYAgTOjkzg80gch/H0YYVc8/vPyg3E6O9vC7W2tu6CkP+752muv4tTpCXRbglQZzFB+WsJZhK0agB9/3Y/FN1SorPrC4lfinp5OHHvgg/42ITA1dQkLC0sQEDg80sce5AYxn/H8zHfw/g98BMIT8ERTJDZKABAYG5vC6NgUenZ3xZ43xT8/+vnq154n8NSTnwk/P3/had9dqiTOTvrh4MNDvWH6oGpQzSAmkg6TqwqBybOn8LO39KDJE8jpXHZBHjtlJOwK89mlaENxvekol53OmQf4gRWdPbcCAAb6D2Di7PnwiNkr3wndivo6XpPnOusGqHWhszKdxXKr2XkCJQaGH8LMzBz6evehr+8A9t72dgz0H8Dc/BLm5hYwd/U7gXXkP2c//5pnX64Md5yypUZz2emQbz+XnZ+eSeYUfv4X3wYAOHTwPiwurmB+YQmDAwdCQULQYSh7LjuVfHJCJ5AUAus31vGLv/g2TqPIGOz6Afi5t9wSt0DytNHlGkcKLyW0yPg9+COH+0Mx2t3TifmZP0mKEXvsMdKalGRiWoHx0c/jyEg/fvx1r8Pe294OAFhYXIHneZif+VO66jaIaSUJIdDU1ISmpiYMDh4EAEyfuwyvycOf/9dvbdA6KtfvET/PbbfdVqbzknLQ8BbSj/71n/Df/vqvkMvdAJTyLaRg1rnLQgLyJfsuzUIqnO07Ho0Uy/hdlkzfmzsyG6RbSJroGcvw4/A5G/vHn7P/AbN9u06WP9u3QvCsY2U5GKUTOtt3IF5e+LG1Z7Qt8Qw2ZSH5FW/9xjr++Z9fxdve9q7ENyfVg6mD4DfwSnmQOYmoKarMUJLneX5eOyGglJ0+JXqdT+xqXVIqhX6Gsees3PsAQbmo1M3VAZ4nQqEXwgNEcpwmC8FDmje+8Q3VvgViQUHKAKYoxeHAejEUEg397KT0l6wuxpLl894YOj+glMoSn+Sv5O9bPcl/w7+hIGWNhhekoD/n/My0lraaqNFM9irZOOan2N/JtHjs55x8xrSNNoPnCcicW4Q29mjL+3t4XhNuvrnhm7/MwV8kY8QbRjrjtorwOVdBd/SvWu+SZ09VqNz3LXwlTqPIJg3f9VZKFt3uswgTUj/8WyM9F8kGDS9Isc4UFYcQQqoGBalgMHccahYhdQIrc+ZoeEFiTitCCMkGDS9I1YKdM0Kqi2AtzBwUJEJImagxbwP1KHNQkJyVqFFKaqN8T0JcsPxnDQoSIbUO29UNwceWPRpekBKJJVlKSa1RY56yzMC6njkaXpB8WDJJDcPiuyGa+NwyR8ML0hve+FPWlhoopcUt3UQIMUnPXUwyQsMLEiGkDtiA25Jh39mDgpSXLSqwrAeEEJKAggTqA6kDWIhLhsvUZw8KUiosrKSGaNhIu4b94nUJBQl+kU7KDws6qSHYfyodWkiZg4IEoLGzNRDSeAgAUMnVmUl1oSABoPgQkg0q6Zf4yde/qYJXI8VAQSKEZAZ2DRsbClLDwqpPCMkWFCQHIvUNIYSQrYKCpBF53xJCCNliKEiIxIciVP/wN84SGwhh4GyMuoaCFMKmqhFge5Z1+As1MhQksAoQsrWwhpHioCAB+PGfeH21b4GQ+iLrGkSHSCahIMWorVJaW3dLCLIvVKSqUJCqBOslIYTEoSBVCVo3hBASh4KEuDhUSihoIRFCSBwKEiH1AHs4paP40LIGBQlZrct06pESYHHJi+vxvO4n/k3F74Pkh4KERqzLAlmVYbJB6uTnrNzXaLxaXwtQkFA3dblEWCEL0ZjlgpDqQUEyYRtNDFgcMgh/lLqGgkRICrSQ6hfqWjahILnIcmnN8r0RQsgmoCAByOVyEGzpCSGkqlCQAPzLv/xLtW+BEEIaHgoSgH/6p38u4Aqj9UTqiQYeHQtX42SdziIUJAD/+I//WO1bIKSCNHZj7H/7BhblDENBAvAv//Ij452rstZb4a2371N78BfYIGV4cP4pGluUswoFCcDf//3fR2+c5ZSFl9QTlZfDrb5iqednjc4mFCQAf/M3f2ttYXElhJBKQ0EC8A//8A+pn2VVmjZ+X2JTRzcS9fuU6vebkdqGggTgn/+59sK+OQax9dTvMy70zSrzzev3+ZKNQkEC8Nprr1boSuXrmbKPu/XwGdcn/F2zCwUJwPp6zv0BSy4hdUK8Mr/xTT9Vpfsg+aAgAXjt1UpZSKS80OlTt/CnbUgoSAC+8NTjoDlESIbY4urI3JXZhIJUJapXHdj1JIRkEwoSzCaavSZCCKkWFCQAUI5kItQmQmqSYnwAzK2aTShI8AtwYxTQhviShBQB60IWoSABgFKQUoZ/pB7h2FlmqcZPQz3KJBQkAFJRhIgJxaveYZRdNqEgAfiJn3gD2GUiEVtfFljaCElCQWo42BQWhhZSvSMaY9C45qAgNRRsaAkh2YWCBIANNSENBi2kTHJTtW+AEEKk9DuFyuwcKsDzShcOgXgXU4T/s7aRzEELyUTE/qkz6vNblQqfAgHCufAkY1CQEC+cbLDqG7ZDm6WyT1BbTqVQzBFveMMbS78ZsuVQkFKhNNUj/FWJD0tCFqEgNRT1VAlp65BSCcq/AjyPTV8W4a8CoDEat0b4jqRu2Oriyii7TEJBCmEBJaRRYG3PJhQkTWoJrYeiWw/fgZAywiqRSTgPyYGUElIpKCUBxTQjhFQTP9Iu8OHF/8HGh4JYp7MILSRN6sSE+PaNhKGWDeFXI1YlQjaGsP4l2YIWUkGKK7pSKjQ1bX0xV9hIZWJAQ9mw0wCQkjA7dMo2dzZ4vo1kc2hiVzyTUJBg14dk4bYX7Uuzksz9tjqs1LWQYP5rsk9YFupMjOrs65Aah/0EAG94w0/l36FG2nKudlsBMloWpFR5/0gcIdj0ZRFaSCnYnhlVxKqylSrkFJ4qUva2feMntIXGLKOx5KLCC/fdiHuLkEpBQbKJJnOHKCPgQVrBDx4j8BqLjIwhxcZigmhQu2wae4edJX/MpQI3SMgGYNHUiHj8moAfeKfFSCrlh4JLiaGRh3Hq1ARUEB6uGwJVZAphKaXzb2ugYNYzSslY2ZS5HIYPP4xTp8+G5UoFUxi0BVVvLrwNfR9Wi0xCQXJhFdZwrRYp0b3nNkDmcHp0KmwECKkkYXkMxEhJiVOnz2L3z/4S9rzllyGUxOjYFPb87C/hzOhUKEr1TL2JbKNCl12R+JV+CgBw5sRncWpsCrtv+SVc/f4fw5MS0vPQZLjvtMWzsWi7cnbfWFHrCZcYAcDo2BSe/Nwnsbu7HUIIeMKDd5OH3W95G4aHDkFKGZRFyYneoIGUVWghpaCUgoDfAGhXx8zsHEaGDkIJYGTokL+fVDHf/WZ6ommuvM2781j96pUzo37H6HOPfRydHS1QSvkWkQBkDjh94rO45S2/jDOjU7HjGt2ieN2Pv77at0AcUJAsfEFxzEVSCjOzCxgZOgSlBKAEerraceTYb0T7bGEl3/qxJlKLzMwuoK/vfnS2t+J97/9tPPj+3/bHQ5WAAtDZ0Yae7g7MzM6z7JDMQ0EyKMaOUEoA8CAV0NXVwaWQ65ys25YzM/PoPXgf9v7Knfir//v/wezcEt76i7cjp6JsWCNDvZidXQCAMMABqFcrqR6/U+NAQQoQRtOT1+0mfDGC14Th4V7Mzi1AydKCGyrXyGW9OSXlYH5hGQDQ2roLb3qTXprbA0QTIJrQ09NV8Bz1MIk2NhlYqVgEbAxWi8zCoAYHQoi8/SwV/G8j1pGUkmuDkbIyN7cEAPjhD/8nfvjD/wEAkFBhu1u7EqMp8zeo/QdSt9BCcpDPQpLBGFNOSpwZnUJ3VwdEntnvlZlrRBqZ9vYWfONrz2F5eRUA8O0/+gpkTmF9PQelgDOjk+G+jRhhJ5Vl+TXeI6gZKEgl0NPdgaPHPoiclFBSYW5+Hj27O6t9W6SBMFP/eEKgp6cT584/DeE14dOf+jgAICdz0YRu6c9JGh7qDacg6KwNsXNVKKWQ54nEHyEaClIR6Ap8+tTjmJ2bB4JZ7/PzS9E+GcnHkrTCWOHrEV0mz5z+HBYWlvGbH/ooOjva0NHRCgHhW/ICeN9DvwkAGBnuLfrcWU/Mmv+OWN5rGaHqfQp3kfzVX64gt/4a1nPr/jyOYHZ7LiehoKBkDlIp7L7ll9DV1Y65uUUA8CfGCgHheRDwe3zpbhF/e2GvScoOIu+nIfHJuPVaQZX7XWppVo5XafunnLvgNUpDuU6W+tbIp2jlsZNKoWf33nBbR0cbhADm55fQ3d2B0ycfh+d5YbnU/3qeCMdD48JjXTXlgemWI7JyVOoxrt9Hb5W5/Gskqfgb56+jlHNvAxE8A/9dV+dbOBcpg2SjW58BfvwnftK53fOi+DtPiFCAero7wtfmvqRSNNKzthL6Wq4uDwIzV17GyHAveno6sbCwBM/zMDLc6xAjVnmSXWghBfy//+2v8M//9I9YX49bSEop5KQE4A7tNl11TaGPPr+F5Opix4/ZnIUEmFZSvTbcjWQhpS0IGeVYBKJs30pKKMAYMzKSBgsPiWeR5wvSQiKVhGHfIekNt+cJSKnyjhOZlpJSquRoprRjdH+hEaOjSH7CcqmDFBB0mJqaEo1yvVhGSklrrSfh/lxlZ1yXFA8FKUBbQ6Ww1WshmfdTushlZOGeLaPev19xeJ4ILQxTdJSSRYmQSFgclWJjV01+J5aBeoKCFPDqq68il5OpdlLtLcRX7xW13r9f8ZjjSdqNV0mLyF/0rzL1o5CFVBy1VpcbB9q0Aa+99hpyuVyePUp3wZUVUZoV54d/s+I1GomAhwoJhR0qXtWQcfZVahYKUoBOuRIinC9LolRR0oKTT3g4lkSKoWyTTuu0cWdAQzahyy7ghz/8IV7/k/+u7Od1CctmNIVyRIohKxNa/ftwRdmlRcNtPaxD2YVh3wHNzbvw+tf/BDydWFXZlajUxyRKLvnF7E4LqTQ2XLjzHljdKrPlVy8cF5//kJKvkzw67Xx2c5WIstOh8DCDgJIT0mdm5ku8WVIJ6LILWFu7ltiWxaaf/QeypeQpXrZLuZgxzZmZeXfjX8ViPDu7gNtuu616N0BSocvOYGriJITnQeZykMpPoKqgDGspqkWuqLvC1otvNSmHOyXu73ecxzEptqjrOfDqYn5GI02MLXBRx0e5vC67fBNNrasqhAv6mZ+ZToMooi85oXZ0bBIzsws4eeKxdHedaxJsysRYPelXo+uA1kWlcuFrYafQEn7WlYfe95uJb0yyAQXJoJRQWamUU5QK+u5TPHmVDJ0lZCuhDU82Sj10lctGU1PT1l+EtZXUCKUUVRVkwI9bU2W+SImoIAVYAgHceuutW3dhsmFoIZkI602BaeymlSSVgiimclXMCKK1RSqDS4SUkhBb0N9lpob6hhbSJpFKhUktN32ujITq1juNINXVdP9qgYr+LbZcs/w3OrSQMoZLlNIaF7OiMxy8eBql2dPJV6vJ1U2GV5fn7lk3agUKkgshzHz2VUdKBYj8vV5mBS8epmUtnuLHhPI/UaWkM8puK9x6abBmZB+67Az8eRXS/SeTf+nnkUUN8ha7X7mRUjqWOieNQYGQ9o2eVW0sY3414KTY7EILyWAz1oWSMjUnUCQ2+c9faMkAKRUECltKtJJIOSimk+QSIGcZTNEpfY1yZCevZKeObA20kAy+972ZkvbPZyVtlGKspXKNC2hLyfwjpBiS1pBKfJ4V/NWfJd20NQAtpE2yFaJUTaSUdZLJoXFwdVA23vhu9MjCI3ORSPljSCK2yrL0j89jKelxKJfTMa/+ObKckGxCQTJQQbqgNOzw7q1ctK+QK2MrMztQlGqHykbRbexaPd2dxV9BewdiGYRo2zQKFKS8iMCNpZw9MC1Q2VtNNmv3Q7aCaod0F0JbRGnBDkr55g7HPImGgpTAFyEli5/wqvcTCk4t2Ixg5bOUdIO0FZYSraQsEZXDSolQJQMEig7EKeNX37t3b/lORsoGW5wNoqTK694rlmKXeq5GBBEDHRqbcndzorKePHOWgiBI9aCFZJLaS4sGbG0RUlJBFLBQYpaWSs/2DRQK6XaHhdvjSQz9JhvFF4Z0cShWOKSM8jwqFe90yWBZF7usK6U2t5wyqXkoSAbplS0pRjKwWDzhhbLASZ8AACAASURBVNsLCdNWshWiRJdd/VMoeCZfaLeNFh1lvXecNfpcoSKdqXLMcyJbD38lg+9fmUmsVyQgoGRUMaWSoRjp9xrtxrP/SkG7NdIqMyf/kTRcGUYK7W8fG/8862600u9vbm5hC+6DlAtaSAF79+71HXOxyiyc4mOKjPCifZpEBdZTKgFXg1JK71OPH9FSyi7xHHEpnwcI4W1JhyZf58mPsLPvI14GXda9GX1XHqspOhfJLmxp8uCv6eJjipG2ksJlzqWK7ZM4j2kxqfQ/m2IDHkhjoht5vQSK+ecqV6WKkaM7U9LxQniYm1ss6ZjY9Y3798eXkLe+kNqHFlIB9ACskgpQKhSh8HMvsCKkF1pL3gb91X5PMHt9BFpK2cMUI50tJNZIBxaF53lbGuSSr8OUJoA6jY9Z1v3z+BkcilluJf5B4fsslCeSZAMKkoFScavErmxajKRSeN/DH0ZXRxsGBg7AEwLSkxBSQDSJhKVUikDZlVgIL7H8RP7KVe9RSo3ZM3Y1/FqMzCi2ow9+EADQ092B4aHeRGeinLqUV4yKmC5guhsT4qQKz68rVWg5/pp92GVIYCxJHmzRbjolFa7OzuMXbn07ICXOTl2EkjJoGJLWk8Z08bkSmsb/4m46c7DZ3p64Dt17DYFSMiFGP/vWX8GRow9DyRy6O1owOjaNW97yyzgzOhnsU5nG2B1MEQXqpAXtxJKfWsU43JcTY+seCpLBlSszhn0RHwTVltHc7BK6Olrx+GeP4/HPPIJfvO2doSiVk1jFFXCKEqkvXI22q4MCIBSjK1fn8bNv/RX0HboHn3vsd/H5xz+Jgb778Of/5asYGTyA0bFp6/jiyo97v8hz4BQUMwDI2KfYMR87OjCft2Kj34FjT9mGLjsLGUTXxdK16GghKTE5fREv/+GLUFKio70VHe0tkEqhCYFoCQlPunU+bZ5SoUqiO7eeJ0MXnueJRASVv+/WpRMi2cDs/Bx74IPoPXgvDu6/K9iioCAABQwNHgCEwFve+iv4/p//UZAOqvCaXKViC5Gytivl1yEv7P/6+wRpIkNML7TLLe1KKKwj8vwxKRFG9ZHahBaSi5Q6qxsCpQR0XRIA3v+Bj0QDy4HrzoUdZeefS/cAI7ddLpfD6dFJnB6dxMzs3KYipRL3wNpaN5wZnQIAHDxwN6SSuPWX78TZycuYX1jB3MIKjj74IZwZO5c4Ll6e8kd6AknLLX6uZHnUVo7ed35hEZOTF2Ku67TrFDo3qW8oSAZ2fYxVXADh+BIAwANEE9rbW8PjzJ5rocpnn9/c9nM//39gfOIcrlyZDf3/SsUn2W6m8jJ0tvbRv11nRyumzz+DX33bvQCAianLeOChj+Dogx8CIHDqC4+ip7sTR479BoAoYrKY37/QtAO7zEmpQiHK5SSkzAHwJ5dPTl3C7OxCOP0h9DpYZbHQNfPfj2rQkJf6gS47B3E/dhCoEBsUFoAQUFJCCIGFxeXwE6kUPBl3z0VphtwTZ7XgAMDMrD+TvL2tBf/5Pz+CN73xDdGgtOcBEmgq4/zbUiKVzIFxhoCXH88TiYH7tDQ8QoiwrMwvrCTO9ed/9i0IIeB5HubmF3FlZr6keykkRPanphj5AhNZSHrfqenL6Oxo3UBknHKEiPtnLiYSD4gm2W5mXhTZetiqmAhRVKofZfzt3+/3TOcWlvzPjKg7O3VQPmtJMzfvV5jFpRUopbB+Yz0UrDDqr4jz5HOzJL5PEZN0STZRAA7svye2bWDgYDA51v/86szG0uXMzW7sOFOYAN+K03drbk8eF/cAFIoq1fvlNhn8QLIDBSng1ltvDV9HDbm7EiwsLENJhfWcxPS5S+hob8HD7/8IHnz4Q2E4rp4xD8BytclgQDcaMwo/CxqRzs52AMDiworlzpCJSmuST6iKFSdSO5w++RgWFpbR1taC9vYWAEBnRxv6e/f7v3VQBmdm54tetdUsI6Pj0zh67AOx6Le06QamCEX/SvQeug/z80tob2/FwkLkSbAznoTbrQ6Rngrhf1b4PgrBUJ9sQ0GysK0YZQgL4Pf2pqYvIZfLQUmFhcVlLCz6LhOZk3j4/b+FXC4XfC5TRSmNibPn0dXZFr7/1x+9Goqj6Wd3h4FXrrq5BJWUysY6B54QEJ4XuqEuXHgGn/nUx/GtP/giHnv095ELxm4AYHx8GgAwPHSo4HnN3/LM6BRmZuYxO7eIYw98sOh702NDMnBnHzq4D/MLS2hvawaAmHs7FeESpuIXzEw7J8k+FCQH+VxXnZ1tWFxchgKQkxJLS6sAgH3334V7730v5heWrQmzblHKR2dHGzo723Dx0rOxewLyi5m/HwWiURCeh6vf/2Ocv/AMLlx8FlB6zNMP0BmfmMbo2BSGh3rzjtvYHQulJGZnFzAy3IeR4T7Mzi1iLBA2f/+kOzgcO7LmHk1NXwQAHDxwT8JKit1DitWTEKZNRZxSlbIOgxos9Hwjv2JL2HE7vQfvw9zcEj78Wx+DWR/uvecuKCXxyU98DL/90Y9DKWCgbx+k58GT0v83mCeh50uk0dXVhs6O38Otv3Q71tfXsX7jBn7sdT8GKSWampqCHmhyXhKpf3TGbk+IsHEeGe7FmdEpTJ+7jI6OVogg6GZ+fhHf//M/iomRGYziW93x8+tGfnZuAT27uzAy1AsFYHR0EkoJDA7sT9xTlFcvCgSSUqGpKdnfLWQh2dnLo/rnhdtVcFovnDBeuF8dBu8IZmnIMrSQLGQuWLDM2Gbn5Xr80U+gq6MNXZ3+YO2999yJnMxBKoXFoMItLCwjl5MxCymax+QWo4mz58PxI83Ssm+BmbPenfddxAAwqS38scbkuJ+OONOuu8Mj/bj6vT/GyHAvbrrpJnhNHo4e6ceV7/1xKEae5xWMjDRdwgDQ3dUBqRSGBg+hu7sT4xPTGJ84bx0TD2CIvAtBBOrCMvbtuxsAcPDAvQkLqdg1w8xxoyi7fjS2ROoDCpLB1av+An1SGRUrSN1jugqEEOg9dF/4/p6774AKJrSaFVMqGYpSvmSTZkhqT3d72NBo/vXV18JzAki4V0qFgQ21Qb7fyRQlAKEwnT7xGM6cfBzdXR3+5ylCZLt+bTECgO5u/xxKKpx46lF0d3dgfOIcZucWY5NfdVmXuSgfI+B7AVwW0fz8cnje8Pp50ibF0xAl1yQzvkX4HRjAU5tQkCxMl53GHkzVlXf6/NO45+47IJU/EfCZZ1/AM8++iObmHVhcWkEulwuiiFRiPMl1vllrjkRnZxsuXX4OMpeLzYvSxySykbMC1jylNKamKJnCJAIRKnWumN3oHz32gVjmkaFBPzDiwff9JuZml2JiFLq5lQ64UVgIpkK0t/kRgB3tzSXdT6H7A+JWUlrkXdy7QNd2lqEgJYjWMDcje2wrZ/rcZQDA3XffEaQE8n3fd95xO+6843YAfk9QR+PZrjtbmLQYDfQfMO8kJLeeK+i2MylkORWehV+8uGU/4q42hHojHQpzwqgpTKWQlppqdnYBxx4MMjwoie6uTpz4wqMAfPdyeIyREsssV4tLviXUEYSke56Hjo7WsO7E76G4shPVgVwsgMI8T76QcMpRtqEgWYRLQDiEyIz4mZy+jPvuvTN27LPPfRFKKWzf/uZof6kCS0klRM0UJts6AoDeQ/vCKD7XfUZzPuLJLTX2vA1XZS23VZVdUSL5MMtBNIbUjtnZBYyNT4eWUmdnO4YGD2FufhEPv//DgVvan+agy2JO5qCUgFJAW1tzrMx1tLfFrmvndXTlerQ7R7F5SdK9X5owkWxDQQrQkTeh5SIEFGQ4fhRaN1Jhatrv4d1zz3sB+IX/2ee+CAB493veAakUdu7cjoXF5dBtZw7Epo0ndXdFAQ2eELHoqH99LRpHcjX6aaJUDShK2aWQJavdcJ0dflkc6N+PiYlzGJ+YDsvw0GAvhod6MTe/hKkpP6xbi1IuJyGUAJTE4uIKWlvibrrOzjbM66wm1gRYG1cSWPM+Xa/TLPtgMRmmDso4DPsO0IL0H37+V4va//777gpfS6nw3PNfwnve/Q7IXDQp8fLTL+Dy0y8UfQ+DAwcB+OMASkp0dfm9yaXlVSwtreLS5eeKPhchm6Wrsx39vfdDKYWJs+fR0dmG3d1dkJ7E4IA/njQ6NoXJqUuJY7/8pctYXFpBS8su65y+++6XfvldW/8FUmDYd3ahIFn82Z98E1JK5IIxISnXgSClj1QS584/g+lzl9HaGvX8nn/hSwCAd73r18Pe2o7tb8a1a6/gxefP4eabb8bNN9+Em2+6CU1NTWEEnTkQ/R9+4W2xDA2ariCw4fc+8TEMDx3EzTfdDM8TaGq6KUyeGYX2BudzLG/uNcW950J4MX+654nESIvL325PsNTDxMraWHry1c1Zde6OcTFjbcUfY3/HjaEcr3ykVImLFHMZ2+J2Bc5II3tD/FgVhpcr5bvdcrkcZmcX8YEP/kfkcjn0HrwXCgoPP/xhPPHEp0JRGhrqxczsAmZn5/F7n/wYWpp3IJfLwfOawukK++5/r/O6vYfuw6FD94fTLMLoufB/wfpGxhPwgnIdOOmici+EsR5SsG9YF/w5WZ7nZyR++OEPxdKEkWxBl53F7Hxk0rt80NPnLmP/vnvCyCFlWkeBD10pGY4jLS+vhWNJZrQdEDUc2o3Q1dWeuF5HZ1sghvEsytEYUjylUNp9J+ayGK8VgFyezwvB2KXqkRgT3Ex6HQdzc0tQUqF3/73o7GjD2bPnjUAdhZMnHgMA/Mff/jgWg/FOz/OwvByNfQrhxToyHR1tmJ9fiUWMxu5fRN8tlsvRkfcOiAJ07NVmgaSkl/nxkDJDQSoCGQjC9LmnE589+/yLAHzrSBkh3tu3/0xwrI6wk2G0HRDv1boCGjSd7W1h5f7Rj16NTa51+d1diSjNqEEThWQvXSC/uNi+fOe+Na1Olb/5MDKtxMbSzmpQKmnrcQFAexCirZQKx4ce/cxxQCk89P4PxcZGT554HIDvojat89bWXYnzAzr7d3y+ntlZ00FA8TRBpmglRQkobuxUh6KTbEJBshBBgySMLdq1du780ziw/x7s2xel+3/22S/ijve8M3wfLUCmsGPHNqwsr4bLUZgVz983CgUfHIjCvV0sLa1g3XBvmCHg0fyP5ORGvb9GSn8ZC9dSGDWtIxVgq56P54mSUz85reASuv9hFFuez9rbWjB17ulYJN2B/fdgfn4JE4GlJJVEV2c7Tp38HFZW1vA7H/skpJS4eOk5tLY0x9YFA/zy19HRhoXF5VCMwuvqDpZxU7GIO+kWJWmJkivxMCPuagMKkhOReHXOmjshpcLTTz8PIIisC0QotEyCyrC8ej22RhKQ9PmbczpsdHoifdyNG+vGdZJWku3GKCa9SiGriGwN+pmXklVgI+HMm4t6jDpYuZxEW8tOfPbTH8fk1AWMj58Ly3RXVzuGh/uwvLIWBvKIYF6UL7heMOYpwsCG+HIUVjm2pkiYohRFrEYuPFfYt//dzRByilLWoSBZmGNIJgtL/hIT+/fdG257+pkXcOcdt6eGcetxJNttp7eZdHUmx480nR2tuPz081BIzjmKJiS63RgmSkkIRONFvssnfr6NplxJDtBXu/LXzmBBsRZSuRrUtHk9NgcO3IOFxZXYHDqpFNpaduLQwXsxOXUBY+PToSiMDPViZLgPl4OO2v79d/lBPMb4kS5fHR2tWAyWbYlNiUiEd0dh6ra1pKRbaMwxJUDERAlglF2WoSBZuJqFqXOXsbCwjIMH/Px1SkpcftoPwb7jDt9dZ1pF+v2O7W/G6uq12Lm0284mWlUzjlS+iwPwK9qPfvRaZHElKqLVYIm8bzdlFbnGkezzmRkc8mdzqB3xKCf6W5cj71qauy7Ngo4+t4JZrPlvALC4uBpeI3Td7bsLvYfuw9nJ85iZmQutqOGhXvT0+IsBXrzkC5MrEtQ/b3rm72KFKdo/GSARbefy5bUCBclg7969YYp6F/uNpaIvXX4Od7333QDSK7nevrS8FlvWHIjGjyYmL6Tej7a82ttasLy8BgC4sb4eX5VW2pF28Uprp3MJXRz0r2+IrXBtbnbpEHeYd+EJsHmTt3oeOtqjTpJtJeVyEgf33Y3Ojja876EP4erMbFimTp96Aj09nbh48VksLq0lLCQAaG9rhVJI9Rho7MwNCWEKv4dKiFLa5FmSXShIFrOz88ErvxJNTl/C1PSl0DqSSuHipWfC/fPlfNu+483RfnkW6nPNP3JV0OXlVSgl8dprr1lJJW1BzB+wUEzzxwpcgDIqU6Wedb6ymtYpaWtrxuLySvjeFCYdedfV2Yax8XOh9a+kxMhwPwDgNz/0O5hfWEmct6OjFYuBG9ysF/myfedyEqaL2gzmSWQDd4wnaeiyyy4UpHwYjY4WJMCfy3D3Xe/BnXfenvdwJRV27Hgznnn2i8F7GQ7E6ko4OXkxXAMpbSyqo6Ml9l7KeG/VtpLse9cvKTHVpjZ/gaUl3zo3kwNHqYJyeOwzv4v5+UU88OAHw5Dt7q52nD71BAB/7p5pBZrlVIsSkP507PlF5piQK/t9WhotBu5kHwqSjRBRAy6BqelLOHTw/uC9woWLT+PS5efyzqF3uWBc1lE4JwnJ7N/mPkoqdLS34JlnX4SUCq+++ppznobLdZf4eql3naRQz73gfCSy5TiXMykhoCTf7+Z5Hg7suycmGmb0pnbd5XI5fO7RT2IuWOpcjyd1d7VjZLgPCwtLeP9vfNS/tzCk3J+jZAc2uJIBh3OUzG2OgB5blMLyGXzJec5ByjwUJAM7pcjUtJ840rSOAKClZRfuvus9wTyK/I327e/89TCwwRQlJRXmg7DX/kP3h/unLeanr6KUwo319TCLuJKOMOBwIqwfVadUlB5mK6nN/n9WKd/TtOeouTLCF0JbSbHzGq67trZd6Ou9DxMT53BmbDIUmJGRfhwe6cfCwhKmpp8O7sEXi/b2FiwtrRjZ9JNZJ2JzjMw5fIm5eBwvqgcoSBazs/P+ImfwraNeQyykUrh48Vm0NO90Tiw1cQU26HNoFhaTvvU0Pv37j2Bl5Vro8ruxfiOWjig+3yIenaShFZM9yt14lmIdAYVlr62tJbEtTF+loqVVcrkcDu6/B31992Ni4hxmZufC1ZKHh/tweKQf0+cuhaIEAG2tLbFzahLWv1TxPyUT92EvpZ42QZbjR9mGguTA8wTOTvnRb9pdJ5XExYt+MMM997zHeZw9K10pGQY2+GHhMjaO5Kf5b41FzRVibfW6fz9GCiLTSnIJkEJcjFw94kIrbqY1nKkD5RVSPwV/TK9W2UyE3Wbz1sV/73inxqStdReWVlZjx9iipF13vfvvRX/fPjzw4P+Jmdm58B6Hh/vQ09OFc+cvh0EOB/bfHea/A+LWmy1A9rhQFOAQjaXarjz/PlXkJajhctIoUJAMot6TwNnJC+jr3R/7/MLFZ3DvPXcGQQXuXHI2OrDh2edeMvJ1+X8LC8vhHKNSUOE4UjwVkU4LBLjmY7hCg8tfQytthdWG1VehKLoCawrlS6VTqCxol50rk7y+tk6P1XvwXnR1tofjSfq+Rk/7QQ4f+vDHsLAYCdHi0krMo2BmYjDvs9QsFfHvpJjHrgagIDmYODsNADGxuHDBdzXcd9+dzmNcRJUMAMyK5lfcBcfEQNtnbtLe1oyVlWiibTyNSvAvVGLsKLZKrdXwuPLecV5SZSnWSkoTgzQiMdqcILa2NsO1MnpokcioY6QzgT/x2CcABRx94AOh604qhTNnPg8AOH/haeM8xliQMjwIKeHfscAGbRFZrjtncAOS48QkW1CQHIyOTaO/bz86jflB584/jfvve29qT1I3FnajoZTEO9/xa1hdvR5UMv9Pz35vb2sJKlMkHPlcMWvXfJfdjfX16BqW265UirWUCu1XrLVS/bRC1WDzVlIpv2++jAzheVThCbKeJ9DW1oLFpdUwybCNOTdJB9vkchJ9h+7D3NwiRsemwn26uzpweKQfi4sr+NBvPYK2tmYsLa8hJ6Ps4dqqspc0tyd6m+KjM6WEbrww12O0n6gRe7qRoSAVwfQ5f0XM+4JVYu3Kbi4Ulo/llbVQbPRkw45YyiAR/vmWj4j9tbY1x/ZaX19PpCLKu+5RnsmC1aMRHPvlaQhLtZA0xWa9zjdxFgCWlq/l/TwMsAksnI6OFnz+8d/H+MQ0Rkcnw3J6OIi8W1pawdLSKlaWV43xong4tyvjhB24EI0dJQMbzGPmUvJUkuxAQTLQY0gD/Qdi40fnzl/GvvvvdrqzPEeOLptt2/738LV2LaS1w/mipNpbW7EaBDUAwHouspJikUnW3Aybskd2GYPIJR5Z1vvIFuVxl4Vn22JXqmv+mu5odQRrIy2vriXKeSzSzbCS9F9nRwsG+vdjbNwXJe2606IERBGotgiZ4qSXugizQWjRCucoqYQomVYSqQ0oSAaPPPJI7L2SKrSO7ncsxexaptu1/gvgZ/5eDcK2AWBxaRUH9t8T+b5jqYUcqX88ES6atrrmi1IuZ/cc7Wgkc8Lg1ltEpYhSdt122Wy8NmsduSLViomc9JOtemhr3RXmUyx0L6aVJJVCf+/9GBzwRenqzHxY1o+M9GP37i4AwOWnX0yIUPym4mOm7vu2vreAcc6sljdiQkEyOH78OACgrzdaLG9q+hL277sbQHqDKyxhSquwK2uv+OeRMrbEs0l6xobk9pzMxXzuwMadQ/kW9cu3X82TeGDlGmewF4mPY29xWdixGLFNjB/ZJH/rwr9pS6vfGSrklrYnf+uyOdC7D91d7Th67AO4OjMf7j966gns3t2FZ5/7YixgR5/L/Avv1wiiiBbEjI8ZJZY/D74z5yFlGwpSgLaOBvoPQKcrmT7nZ2ows3xrtCWk3Rq6J2m68Mx1bnYEayPZwuJaMdNcztm+XntbM55/4aVwey6XS9ybK9eXi426gconShxkzkcsIW4Bq8RlVRfK7eZ/5p5EbdMeBDY4r2247fS92FZSLpfDk5/7fXR3tWN0bDLmEThyeAAA8PHf/bQfaKHLv/HdYiJkuAej90kXXfSvjC0GSLILBSnAZR1NTl3Egf3+gnyuRtheN8aF6bJbC1xti4Hro7XF73UqqzLHjk/tvQqYWhIlWY0P5MbvRSZ6jBulHKJUaImE2qd81qQrrU6p2GUjbUkH68qxd0vL1+B5oigXomkl6Xse6N+P2dkFHD76gVBQero6MDb6JIBAlMLjrVVjjfcqpb7YopTqAiSZhIKEuHWkmZq6GLxKjr/YQmQHNpjjSLYrZnllDauBa6K9vTl0NwCIiVJacENrW3MssOFHwQRZE3cmhnSh0lTeHbdV16t247MFE443OIa0YYyv4HkCba27gvvI3wmzM47EAhGkRFdHK048+WnMzs7jdBDkAAA9XR04cngAq2vX8buf+Ix/roJh3/p9LhG8EI/UU+EAE1122YaCZGBaRwBw8MC9obvOFhYvaCB0YIMeR0qbj6RTCK2tvQKlFFpbdyFIfAN/0qyMWUpptLVYucWC29Iui1DcjMpZ31ZIbVKgWU9uKdK1Wowl4HLT5bMidFlqbdmFi5efj92P6RaMCYIlTGbexc7ONgwOHMDo2BROG+HgR0YGcOTwANbWruP5518Kz6+XuZBKIaeUP3Yay2MXZbq3Q8H1vdFCqg0aXpAeeeQRHD9+PLSOlJI4O3kBk1MXklE7Fq5xpNjnhijpFEIra9exsnYNrS27osHY0EryxUm/Nrf5PUlHYEMwMx4pC92yIpafaox8lctCKuSmM8cv9XZXwEWx92MGHfjvfet/sH8/hgYPYnRsCleuzoVZFo6MDGD37i48/8KX8cILXw7Hc+2w8nA5CmMcSapkmDdddrVFwwuSxraOOjpaceBgPJhBBy7Y24B49JEnRCL8GwC2b98GwPceKKStZRP52/V70yWn15FZvXYt/FwHNtiDuYVwDXrH7oVphLJNmdvYNOtcl5P77rsTS8tRklVXeXMlCo7ESMXEZSgQpSNH3x+LvBs7/SR27+7Ci1/8qu9RCEQtl5OQuSCCLnYu899khgbAd5WT7NPQgvTyyy8H1tHB2PbJqQvoaG+NbfOscaE0X7rdmxTCC0VsRxDYoNdHAuJRd2bFzUdba3OQisjf78b6etTbTXGh+NsKz0cqZRzJte9GeqL16VLc2h55ofDrYlCGZVHM+KWmUMYG57Usdx7gi9fwwAH0dHfgzOjZ0OoBfFECgE99+glcu/aKEcodZWWIZQPXY0qGKMUzOiiOH9UADS9IQDyYYTJYduLAAT+6rpSoNHs+Uj5am3caFVM6RSifMOmIPf/eogpujiPlw/5e+VPKpH9WLlHaMJu8FAPPI2JJeLVAGb9laxDY4MJcf8g8n8tS0ufXbsETT/rh3iNHHo6LUhB599KXvx4LBY+NFVnXNkXJdU8k2zS0IB0/fhyDA3Hr6OzkBRw6GK0QK/KkBvKEB+EJeJ7nnI9kuu2EJ7AjCGwAgNaWnc57sq0kW1xkEBChFPyZ6AhWkE2EeMd7h6YVkmaRuBY0sz8rH+UTrWyJygbDscvtfgs7GnF3rv/aCP83Ev76783lTKK1j3RD39K8M1wbKfrMygBhzaGLjyHFP9fjP8ODBzEzM49TZ86G593d3YUjhwdw/foP8NlHnwr39z83AxjsbOCmmIrg/rJVSoibhhUkO00QAExOnQcAHDQEyW7o883BcLlR7LGkHTv8cSRzBroZ3OB/FqXgB5D4vLWlOWYhAUBu3V/OXKfk9++9uPBvlwCliVLR40olNrD14bYr/KVdyyno7aVQyjwkc05OvudsZ0NIu6+VDbjs/HNanSZDmLo6W3HqC49idHQSJ09PhPv4kXeDeOWVH+ClL38d5jNWhnj676N7VtIUJb+jyKUnsk/DCtLx48cxNHgIA/2Hwm0TZ8+HTaowdgAAIABJREFUK8S6MIXItJgS85K8eKCDLUotzb515PLX25W20HhSuF/Y43W77dKspHzutUJLE5j7kcpSjjGkNNeukjJ0jQHx37elZaeftT4xPpkcsyz+PnyrpquzFSPDh3AmECUtMEdG+nHk8CC+8pVv4itf+aa7s6Y7d4brTursDlKlpuoi2aIhBSmfddTb61tHusAnQ7njQlRoPpLNu27/daysXrOCGezQ2PgMdxudZNU8/rUbNxK9ZjvSSFOJDOD1TrUdQJtdvjztfIlMCOGkbb9xb961IzzGXgzP3KbPGYZlG9a/nVDY7JQNDxwMRen7V+fC6x874oeDf/nL38BXvvxNAMGUBxWtwaTPm5O50HVn1NayPi+yNTSkIB0/fhzdXR0YHIhbR72H7i+qYU5basI1H8nuyeqKvrx6LRYCa4qS68+mrbUZLzz/pfC9Oc9D5hGzQhQ/ATP/fqUGNrgyp5OIagzOS8vtBQDNwdhnoTDqUgXTnOA6PHAQPd2dOHzk4di9TIw+5YvSV76BV67/AHqBQVM8bXe1HmMqclFeUmUarhXQ1lF3d0e4beKsbx0dOuRbR1GerPQJdUJ4sVRB9nwkl2hJpcLAhjAhpNFLNLMX2xaSK2x2NcgeDiBcJjp+vc277Ujj4VrwMVzFVfpW0vLqNSuJrzvKLn7eeFSpbSWZonT6xGexu6cTQ4cfio0NHT0yCAB49LEvxCb5xoIcwomz0bbFpZUteFKk3DScIOkkqoMDh8LKNnH2HPp69yX21UKjo+h0QEOhfF6F3HY7dmzDyuq1WI4v14RCADFh0p+lhZfr9ZFMX3qa264SVELoaklKK/UblHIVO7GvdAiMLqc6gzeEwNrqdSuazY2rPBd1X0phePAQZmbmY6K0p6cL42N+xN3jT5yI5lIlUgfFtwHMY1cLNJQgaetoaDBy1Y1PTAMADh1KD2bIRzEZv038CqrCBKt2/jozzb69DoxJa+uuRKSdTVrlN8N+49vd0XmbaUjdaVtc166HKDs3xQaHZBFXOWnetRNpGlSOuT/6mj3d7Thz8vFYODjgi5IfefeX+OpXv+EfY92DPk89l6t6pKEESVtHQ4O94ba5uQWndVQIM/w7bT6SHW2n2b59G1bXridyfNmz5V1zQzR66QoTHdigx5H8Y9PXwvG3scJuhNqQlw2OIxpWtXavaXcdFLCr2S+/9nLj8blOScvLnr5gYnsI9Dm7u9owMtyL02fO4uTp8fAax44M4OiRQXz1a9/CV776zUSYd7W8AmRzNIwgaetoeKg3LLQTZ6cxN79Y9mt5sUi85CPevu1nAADLlpVkWkcaU5xsoSqE7bbzt7kraTGrjNpzZ/It/Fbq+csHGyFNeo5CxxwzZ5mKXMWhuw6R5b1mjGFuJUeGe3F4pA+nz5zF1dm5sKwdPexH3n3ta9/C177+B87gH99C91/TZZd9bqr2DVSawYFDsQrZ17cfvb33F/Rte54HKSU8D5DSC2fAe55ALhdNviuEkipciiJMc+JJeNKD9ABPW0XGOJFrzklbqx/t9Ilg7Rj/+kBnRzsO7L8bQil4hRY5UApCiOB7+deTUsHz/NntRS3CZuynj60YKvZPXVLJ6LpYeLYjoGd17Tqee+5LcIVQSynR1NQUWCYempr87UpKhG9i14qXeXNcVCoFLzinrneHh3w3+9Dw+zA2+iR2d3fB8wQmRp/C4Mj78NWv/gG2b3tzOPE8ytDQhGtrG5vISypPQ1hIeomJ4aHIVTc+MY3xiXOpx3hGY+wSGtMlZ89HEkJAeOnBD0oqfwXZa9eNiKP4ekimNZRvLAkAmnftCP52ork5mieiw7/zRdvls1y2rjFkDG6WMX/3mLsOQEtzM5p37cCuXTvw3Itfdmb+0OdwzUcqeO0U61+L0u6eTpw8NRH7TEfePf65E7j+yg+SB5dhEjGpDA0hSBpz3pGmvy//+JFrGYlyoceRbFKXAbCCHfQif3fe8U68973vwp133o7Wlp153Xr5XGtOV04ZRamwW7D0a5Xl18lUexVv1LfyMnZeOfsW7I7Mrh3bcdedt+PO97wTaXbpZsZtEhF5RqScZvTU4xAAhg6/L9y2p6cLE+NfAIAwyMFcKqbUwCNSPRpCkEzrSBfusfFp9PXtd+5fSgE23Vr2fCTheWHwQyKwIRhHApCwksy1XsyFyRIY9Vd//tqNG8Z5k+HfxbCVg8FZnPNUjeaq0FOoiKvO6GzZc4/MVFR6/MisF3e8553hGJL9m8bGFh1h386xnsScpXRxOjzci6tX53Di1Hj4+Z6eLhw94kfePfrYU+F2X5gEx49qhLoXJB3MMNB/MKw4OtTbZR3F1j1KS6JqrRRrr49UTNaB7dvfnBgUNjM1mJNj7bQumhZrOQBzNc14YER6+HcxlNI4NlRkU413vP1yES8ntrvOJkypFbxfWXVPPShXOXCFbu/u6cDYmSdw6vQETpyaCOv1sSODOHZ0yE/E+tLXAPh1cTXlHkn2qHtBsseOAN866g+sI3MgtxTKtaT0arAiZqE1jFxjS63NO7G29kpMgHKxtP/p4d/JWe7xMSVX8sxiKdwYbZVobeK8NSQu5chjV7i8RdMR/H/jZXTnzh3O40yUcY60JSnseXjmNfOxp6cDRw734dTp8ZgoHT3sh4O/9NLXQ1GqoZ+24alrQXIlUdXWUV+BsSMbM2ODiW1RabedH+ggYGZ40GskCU9g+/Y3m2cHIIJKCyiZXJ4CyNcQ6eMRJpo0Kc5tJxJC4hIlc9VOM/y71hdCK8P6q2W4i8oTS1mlpDO6Tpc/IbzYuNPOndvx4he/6u/jyIwAJMtQoQ5gfEE/8zzJ7AtHR/pw9Eg/Tp0ex5WZuXDfY0cGsWdPN770pa/i2rVXuPREDVHXgqStIzOYwbSOiqVQYIOZ1y55bPoj3r79zXj+xZessaO4yw4wK7EvOv5mEVZYO2ODSpnTZBNvePRrEduetn6PazG/xEJtjeS+2wKKfXp2hu5Y2p+UrAUuyyR+TnMcM+hw5Nm/GoEDUiocGe7Fnt1dGBx6MFZuJ0afwp493fjEJz6D1VWGfdcKdStI+ayj/mDJ8nwVspgKZue1s8eRisnaoEmuDBufhOi/jg8Wt7a4l5R+7bVoKQoz+3e+ZZ1NF5753nmvgdjo9P9pk2XJ1rCZtZASCXYd1pHTnee45rVrr2DtWnGBDYUS/yZdesZr69x25N3Y6cexZ3cXBobjoqTDwQtlJifZoW4FybXExEasI1dggykwgNttF71Pz9rwznf8WiywIWkZRdZSPvG8ds08RzIIwoy2C/dz9JyjXnUkSoX+XL1x13XI1lCKdRT7N4zeLC75rl0PTMt/NSVjg935secjpaUScrnt7BBw2z14eKQviLyLxpPMcPDvfOc7eb8fyQZ1malBW0c9PZ3hNtM62kgvXngCkFHGhsTnwgOQSx5YBM+/+OXoPBBhZ1RELyCgra2k9ba6FmVeFkJg7dr1iqV1IY3De+98l5ErLv5ZJV12OsOIfi2lH+QwMfp5DAw/BAB44KhvHelw8JOnxnHbbbfh29/+dsXuk5ROXQpSlES1LxSfsfFpDASuukJ4nj/AL0R8PKWY48w0Qp7nIZfL+b1JKWGPCujAhmumeAjzpWldBR+KxG7+wG3Rd1lZ9uzuwvjoU3mXfDcpbaE+lXyV+nM59nXur/K8y3f+dOwOTBG3aLi00idJ+5NbI0tBGmV9fOJ86TdagNXYWGV0X2vXXkHzru0JkdAZg6RUgE6LFWzUKbOaEE8rpKw0QvmwU171dLfj6JF+nAzmJ2lROnZkEEIInDg5hkceecTpzifZoO4EyUyiqoki61ImwnoCSio/iqgI68nOawdEYiOEgAcPucBaEkKE3UlfsOLn2r7dnyD7Wx/+gL9PEInnv9bLogvrddSgP/PcF7G0tIqPfOQ3jO/j4eDBEXzyEx9FZ3srmpqawj99rqagYUjOqfIAw0rT3PJzv4LuzlY8+cTv6agKSCnxC798B7733W/557bWjBoaeQhXrs4F+0Z57sweLtk4rvBoKVUoRgP9B9DX6y+rol1eOSkxOXkR5y88g3vveTf233uHP97pebh4+UVcuPQ8vvj8eeSUP7Ugl5M4/vFPobl5F+684x3BdRWee+HLWFt7BTt2bAvHkfzryxI7FRv87paVpF8fHekHAJw8NY5bbunGnp4uAMADR4dw5eps2FmlKGWTuhMk0zrSzMzMF20dbRSX2LgQwgNU+o5SKXhBOyODF34SShmKklQqJkqJgWVr0FoEf56SEEGPVCdFjYRCIOr1KvjDi/77M6PTGOzfh4G+fcEYgISA34t/4rHfxc++9VcxPNiLwyO9Yc9YwB9UvjL0IAaHH3Q8h8oI0kZGsPbs7sKVK3Mpn1Yvi4Xr07gLLb7HQP/+0DrTYy5KSpy/8AxefHYCQgBeU1PYCTqw/y4sLa/hox/7JI4f/0h4ntW162hu3gVPeNHEWOEvNLlj+zb8xQ8c+eOARKJVQJfvpKUUJloNyoXez7aWbMFLJgaWgSgJDAw+gInxL4SiNDl+An2Dx3D8+HHs3buX2RsySF0FNaRZR7NzC0WfI1zjyJE4VVgZGVzH2suae54XphGKpxXyX7/j7b8W62HmwxX91Ny807nvrp3bcenS8/HjrWSr8flJflh5RDSYPDYxjb7eff4y6f63w0Mf+Chu/ZX3oqNtFzo7WzE6PpW4h909XX7jfjWtcd96hPVXDFeuzqUcuDVi5F7EMEkx32Nuzl9OxRQj89zT554GAHz0P30K77lrwLdoPQ/CuwlCeDiw7+5YVNpqkCm7pWW783o7diYzjtjXdAVN5JuPZEfbhfPx8kSC2tc7OtKHPbu7cOLkWOyYY0eHAAC33XYbXn75Zef1SfWoOwsJiFtHADA4cBD9/fs3FfFl9g41vuC43XZm22W67dJYXbuOnTu2+e5A7eKTvrDpVP2ha9Ex5+natVeM1PsRSkooIaCEiC0D4FpmQvv+/e1Jt5pCFLk1t7CC/r792Purd+Hzn/t9PPT+qEetlIRUHrymyEoCgLPjT8XO5xL3ot09yn5ZHrGIfqbC54sbJfnD5J3HIugUpAxquc4Yi6BU+jfzQ/DHJs6FgpS26OTC4goAP+VPW2sz3v6uA/j6V58Ov3dbW3zhx9UVf9yoedfOmICsXXsFO3dsC3/D1bVX0NJcOHvDRtlIqPv4mSfQ3v2L6B96AGfHvgApJW7Z3Y2zEyfQPxBZSiQ71I2FpJeYGBnuC7eNjU9idCzZcy8HhRrOtPBvewKtHkPSJAbAY/OQzHBZ/3VrioW0c+f2xPwLHf5trnkDOOamuHqgEOHfw7/xUQDAQJDtQlnHhccoid09XTh2ZABXrs7h+1dmrYm0GxSRuo0kL+2L2WH3E2ejsSMgfxmNC48HCOMvQCoVCaeVOkhPxt4VdILscST/3/Rw7mibtP7NE8RRBPZ8uLNjTyYSsd6yuxvHjg7h5Zdfxm233VbUeUllqBtB0gwP9SW2DQy4x49ic4RKWGYizW0XpgiyIsp0w6D94bE0QsLD9u0/g+vX/6KoaxfKQabZtct3sSwFomRX6LABKDICfnZuEVIp5HIKhw7cBwD4hb3+IHdHWyuA9AbwyGE/2slex6YcZFWb7MwWGzqHkT7Knl9mi/n42Whtr8H+A7HfwlVel5ZWsbS8CgDwvKags2FYbkHBWF29hrvvek/sWGEFwuzYsQ3XrsXLrzm3LbZicUpeO/Nfc79iSMvDqJRET3cHzo49iZOnxnHi1Hi47wNHh0JRYoBDdqgbQbKtIwAYHZvC4MDBxL7mBNXNzHpPO6f/XsC1yF+amF277uhhWhMI02hp8ZOsmufeuTPy+dtZG6Lt2s0Yn2xoj1J0d7VjcvJiMEdKoK2tBQcP3AsA+MM/+JIzTNe2BLWVdHVmzsrskFVJKcxWhmWkNcZpiUd1ZN2f/ck3YMq0Fib9b+8h/3e7eMEfW3n+ufP40Y9eDfIfCrz9HXfj3nvuCK6lgjlu7nvcsXMbhCew0+EqLoaNJIndSHnp6e7A0SMDOHnKz3lni9Lx48cpShmhLgRJF6bBgd6woRsbnwSQbh3lwxXYADjccEGggr1f7FzWGknmeTXbtr05tYdZbKXVx9v3sLyUTJsSc9vlSSekGR46hPmFJUxOXUQw/QXnzj+Ngwfvw/S5y7j1tndgeLA3/G6uTOj5rKRaFqXNsNk0S7qsj45PF7W/EAIdHW0AgBdeeAnNzTvxsY990rdichLnzl0CANwTCFKx7Ni5zZqj5FMo0SrgztZQTPbvpFWUbiUBCBKxDmBg8IGEKO3Z001Rygh1IUiuJSbSrCONq9Esp9suud3ttgPii/UVwjWOFN6T9bdr547QLWOmEZIOF0nsGtaYUndXB/7rf/kmpqYvYWr6Es6f9yO1FheXMX3uEr733W9heOig85koI6Lv6OF+XLk6h1On0113G1k1tvxURiA3uoSJ2dArJUPraHDgQJhpXv/ZeELgW998Ac89/xIAYGV1DYtLK/jtj34cly4/jy++cD4sW8urfmfmrjtvd44fNe/aEXwPEWwvHC1ajqUzNsoDR/r9nHeDD8S2T46fCEWJkXfVpeYFydWrsa2jrV6a24W9aF8a/lIUviBdu+62ksL31gCw/1qhJS30u9l32ymHtRXPMSYhpfb36+32MhsehgYO4nU/dhPOnb8MAGjyPHzvu9+KwtsNQXc1O0cOD2B3TxdOBFZSPee58zwR/qWRVgbzuevs8OaxCXPsyN0Bs5dNEZ6Hb33jBXR3tQMAPvaffg9CCHzpxQvhD6ekwtqqW2DM3HVCeNi1M7/LrphxJAAJS8nftokxOEdm+rNjnw8TsZr1i+Hg2aDmBUlbR2aodyHrCCi+d+pyx7ksqVTLyHDz2Wsk2feiAxsS2Y3zzNnQrF1Lukx27khG2sWSW4YNgL6X+PeyBXF46BCGhw7he9/9Fr733W/h1InHEutE5VuKAwDGR58AAJzMYyWVTm0KW7y8FJgUG4uCjBr3sXFfkAYN17SKpZxyuJiDzw8cuAdf/+qz+NpXnsbvffJ3/HMro3xAobl5Z3K6g+P+duzYhudf/Ere7+BCX6uY7N9molUg3Zou5AI+dmQAV67MxoIcdDg4EE2uJ5WnpgVpo9aRzUYDG1yL9sUW5EuJtnOxffvP4Nr1V4yZ9yrhOkvDnBzrWgNpaWUtGWWXkpk7LQTcxkw1VErWBSE87NndhZOnJnDVWFQtvgZTnu9cm9rjJG4hlV4Gi7GO0sq/8LyC5X5t9TpadqVNK9hYIEMarqz65cR81nt2d2Jy/Kkw8k7DcPDqU9OC5EoTVIx1VAzlWqLcFW3nGkfatu3NzuMBv4G2rSTTvRH2GK3GR7tSQpGzXCVagFxRfKkNmTE2YYqRaSG6jvTz2/mfHz0yAMAPcKhnt10+SnEZm0tMmM/LZR0FR4SvCnUW3OOmfnlYXbsO5fg1V4wABv093v3ut4eBDfYSESb5AhvM9+XCtQqylAq7e6LIu6dOjDIcPCPUrCDpwmJPhAU2FllXLGYaIRM7sajttrLTDtkNxfZtP5OItHPh8rNrXMfv2rkDy8trDn99MZU++R01thgVh39NM6WQaSVtjPIKmjD+v5WkdXhSx4+ssaPRsSiyzraOCv0edoLefDQ3u1MG7dypAxp05yo9sEG7GLU42OsiaZwdI2s/1/Mp5MJL44Ej/Th21B0Ozsi76lCzgqStI3MibCHrKCESjvlIwjG2kzesO48rLm08xQ7/Nq+pAxv8xdOSPUwbJd1BDWbFXV6OJseaFVxH3OmxpCjHnT83Ke3a5cjmbFpJLrIRbVcsJWZYQHEWkl1yzLEjHVn33T/9Zv5rbTAoQFs7zTujsuUJD57wwii78D6twIZSXLhp86oqxbHD/bhlT3cYDq5h5F11qElBymcdDQ4e2vT5C4V/p1lJxWCHf2vMPHR2JdXjOhuJONq5axtcDWZaQ1AOF1r6OaLntbunC0eDybI6+Wom5iNtvXEURyVexD92dEpM68gmn3Vkdp5cV9PuWzvCzrlqMpJjrzt2bMPqtVfy/o4uIXYF7bimNbiWNS80H8m+thlxp8vpxOgTwbimH+TARKzVoyYFyWUdAShq7CifleTCtpKKQbvtovciddDWvP62bT+Dl176WuzzhDgZEwlDiyaoWHbWcKmU77JbuRYbO9qqXmmpofRHD/tW0omT4wX2zEf5FaRcZ8yXOqiYMcpCWRn02FG+EPPNLPNhBsvY5VenprKp1ZWKz459HleuzGLAWCqFkXeVp+YEKc060klU7UaxUuvu2FkbiiHfvbmi5fIRue3s6bE+y46cdlrU0iLuotfuXmjpJK8zMfYkrlydwxdOFhEG7nwc5beqXAP5+fbe0DVKFG/trjMDGQb7DxYsb/YSDfksCJPV1WvOCLu160FS1SA1lWkl7dyxLTWwwXQ3Sof1AyDR0Yp/ln8cyYWdtaEQk+NPOcPBGXlXOWpOkDQu66hYd11aJS5moNdMIwQkgxXyXcdOSmlf953v+LXE5Fggctu4hMCsvNcd6yrphsN2gdh1VDmDJYpbp2cz6ACHk6fGq7puUqXZSBTn2Pi5UJCKv87GOmSuVECx8VVPJFzWO4JxJD1x1lV2Ytnei3BDuybQhsenZQZPWUk3Os59vt09HWGQgxkOzsi7ylFTguRaYmJmdn7TS0wUSiNUrhBw/1xRXjvhec7Ahut/8Zep4mj6253RdraBJBC67fxjZCy4we6RmhZTPivJfL3ZcScd4HDi5HhssTrTn+8mA2NOW4gf/JB0++W3jqxxl9QGv/Cza05ZlC+NXXmSrG60Y6PriYtSxNY1ER1Ilt0HjgyEovT9q7PRdiZirQg1JUga0zqanZ0HUJ5ghq0gHsmX/3HrFEK68tqiFJs8avXy0laO1T3Q5ZXV0EpyJ6u0G7L8LqU0149SEkLFx0/0YHLaOW/Z0x2GgZdiJdWzHNnBDGPj06F15Mr0Yc7zKur8KdulUlgJctg1O1x2qyv5x4h27NgWG8s0LXs7lU8x5LOQbPKJXjEWkj7HscN+OHj/wDF878pM+BnDwbeemlox1rXExJnRySLSBIlEYfU84ezZe0KkuhH0Mfp8rlVkTS5ffgFPP/NCYntz884gpb/ys2eH11PYvn0bvvTS1/CZV34AAPj/2XvvPymuLE/0e29kgaQ2O/v+gN0W5T1UAdrZ6VmhlpDBuypc4aqQAaR2ci2PvNQt1y0JkIAChKeAwktCrRaaaSs85Y2Q5r332Z2d2Zk3PT3dElTFve+HG/fGjciIyIg0VVlQX5SqzMhwmRlxzz3nfM/3TJ82Sf1NNvxSXJyPLmt/AuIzUsbAKIVh5Zo4ZyAw4rZ3d4/16iYrO9Ami00b30JZ5d9gzdqNcZ1lxUGT3vUVAXmNLG9YhOUNiwCegjirR7Go+Ct7IKVGTOjo6AabzhzlAYwxGIZhGQNDXC9GgvyXR3dkzpjymOR1yBhLqRRBfn79+l11Tz1OnTqHtes24oZx1Wr55sY1KC3/b6rb7HDH2fRiyBgkOSNx1h1tBuD0jgihnjMgL6PkfN/eTholeTNwxn33G4Tde/ajrLQEZWVipsm5WNbe3ompU27H1Km3g/UzcIgW1JxxmFb90QfHPwbnHAct1t3BQ8fwk4d/hFJLYdnL23Kz7CQKCwuwv/mIaoXOKHeYHc449AWMm6DWAt3QhL3xOWeQnUeDDJV7+Yp7GlQuadzYMcroMcYyLi3jBEE2WUDdO1reEF2FJAwJxb2On8cNAMXF/q3KCwvy0dPT6/u+G8nKdjHOU+plxjlLaNA3bfgFli3/PpY2rETj+rdADbG+bIF+0003ZUepwhWEIWOQ/Lyj5SmE6vy8pDDbJDJwu3YJz+i5Zx8HCCBt2fx5c7Brz37s2rUXMSOGadPvELUfXBglaZAm3TERjHPcccdE9PZeRG/vRbz08uuYNXMqZs2cEnc8Pxqujra2TpSXidbV3PKOKGOAYQhPj1EQwkGoNCSJb9p0YpVMKPt5SVcIEpk7t5CqhDRGfr+JzmITr6MPlpwxwbArKVb5xWQmA4uWroy0/vH3mxKeFwuhvxe3nebNR/Hi5XYr76nH0oZ7sWbdRqxcIXp6ja0e7TBKn3zySaRzGoY/hoRB8orXSu9o+fLFWamHtmv3PsyfNwcgEJ1WqWXMOLBwQQ0qykvx6GNPY+bMKeDEpsRSKsKAlFLhNXGO4qICFBbmg1ID+5sPgxBg9sxpoQtzixIYK8a5Ctv5wStMF7efwBs+3G+0aeNbWNZwL95e24h7VzaoTeV3MhAYeP/IVs6QkM83bHxPFcIub1gUZ4z0SZXw4s3QkybAmxjT3tHl6yG1d3b67uvAwWM4dPgYpky+DT/4/gpxTppMETUMGIYBSgioIVQfnnvhFTz37OO49Y4aVFaU4bVXngk834GGFGJd2iDqk6RRGj9O0MHXrN0wbJTSiCFBapDekR6uC/KO/GaQA1WTtGvXXgDAvHlzRPsJQmDEDBAqb0iKyopyvPTiavzslV/gpZffQCyWg1hODIZ108ZiMYwYMQI58hGLYdrU2zF50m3Yt/8w9h847HnsIGHK1tYOF8MuuqCllxJ4OsMW48aGpYFn3yQkHQjyjhJ5q5wzcKToIVl//TTsALuUQMeBA8dw8NAxTJ06CdOmTUIsZoiHEYMRiyEnJwexWAwxw4ARiyEWi+H5F18RxokaeP65J3H+Qive27YnoRJKkGKDRDK1cvHEHvF63NjRNh1cK+JetXKYDp5uZL1BSuQd+SFqvyP3NnpowK4fCqfasHPXPiyYP8emdFuzwZghHoZhwIhRjBldgbpF89DR2YUDB48iJ2cEYiNykJMjjJC8calBYcTEjT19+iQUFORh775DSlsMgCpi9KpFAsQg0tbg34XfAAAgAElEQVTeCfdA7pyVs7h6JF0Uc6AgZ6GpKTgMfejekbsjsq8yQwrH44yjvSPeA4rrh+RSHjlw4CgOHDyK6dMmY8b0STAMA4RSNbmSjxzLMOXEYti//wja2jrxwvNPwTAoKitK8eLzT2HLe7uweeuu5D9DhnI6Oh1cnyitWjnMvEsnst4geckE6d5RtoXrduwQ3tH8+TUACIhBYVgiq5QaoNQ5c6waU4lFdfOwd99BdHf3YkRODnJiBmKGIZ7nxDAiloMRcoYZi+HhB38AAHjmuZ8mpafnhicN3MMQebUVCKJ/J4vx46owflwVPjt5xnHzJ65LShPS5Egn6hirwytcd+bMeQCiMaJ7v1ERdqBub/cWVZVoa+sUVG7t920+cAQzZkzBrFlTQQ0D1PLwjVgMsRxxzRo5OTByxLJ9+w9hT9N+LJhfIyZb1jYVlWVYML8GW97bpa5rW/R48IeqVffUKyHWz07aNUqbG4eFWNOFwf+VA+AlExTGOxpM7Ny1FwsW1AjvhRKHMVKhO4OCGkSELwwDy5YuRGVlGfbuPSAMlZFj39CO5zFQKrylhx78IdraO9HW3hnKKBUpDyl+xhsGYQ2/V72HuyYpaJ8yrCpJDUvrV0U+16EKfWLw7vr3cNoySHpoOllqfTLh6jDXSfOBowCAObOmieubUuQYBgzpIVEqPCPDQI4RQ05MXMMLF9RgUd08cQ9Qa31KsahuHhYuqMWEm6crT8nPGEWVEEoHNm34BcaPq8KatRscy4eFWNODrDZIibyjbIP0jhbOrxVkBkI0z0gkcg1KEaMGDCpuzJg1m6xfWofWtg6xLCbi7AaleO6Fn2H/gcM4cOAIDOlZUQMlxYUoKsrH3n0HAdhhRS/pISCehRfXrC+k6oK3UkNmvBYZulu2/F7HcsbYkMgg+YmrRjn3P/zul+k7oYAz0H/XIMq3fF+Gi/c3H8bs2dMVYUF6O4bl0UuvKJYjHnuamrFz114sWbzAyjPFtL85MAyKxYvmoa5uLjZv3olz59vUccMy7IKuS/eEKZEn72XMZAv0pfU2k3D8uGEh1nQgaw1SpryjhB00E+SRgrBjZxMWLqi1GvURlbDVjREhBCAEhiG8JSMWg2HEUD22CgDQ3tEJSgk6OjpRO28p2ts70d3Vg337D2F/82FQw1Z2njljCtraOpXuWGmJ1TTN4yEheyN5QeSONBFMK2znRSf2utnDSgmFDeetWtFgh+4cjfzs/WeKpjLQXSgyjbBeQpsUVSWC8Ukp9b6QAOzbL4g1c2ZPV60t5MOw/gqPn6pwMyEESxbPt0kOlsdELRmtmHU/LFm0AIvq5uH7P3oE5863plRzlG5I5t3Jk2fw9hrbU5LMu2Eh1uSRtQbJr8VEFO8oqpyKF9w3gtf+OOfYtm0PAKBuYa3aTrQrJyoJLBK9wgPKGTESObEc5MRyMPKakbju2uswdmwVdu7aD0II2to6UFYqZqoL58/B+0d2o6e7x77RYzEl7dK094B1nv43bZEHM0rCswtnmnJziUJ0gcaL+xMcsr2BX6gQp2sVGZqihChJLB1e4TrncXgcw86LFem+TnRjJXNIYSDp4bohEgbFUM9luFlOvLZt3w1KDeSMyMGInBEWmzRHbG/YivmGQbFk8XxUVpShcdOOuGPrnr3UPwy6JhyyWwEyWV5erZcxHzd2NFatbMCatRscRmmYeZcastIg+XlH767fnJb9x6ltp4EY0NLapr2yVb2lOCSxwnM5OSNxzciRGDFiBK655jp885vfxje/+Z/wjW99G7t2bkVra5vIDbV1KkHU0WPKQKmBuoW1eP6FV7Gv+ZC6gYuLCh3DS2dXt+9ssrjYziMBfmQGnzCTj1eT6Ur1cdVjsHJFAz47eQZvr4tn3WVj6C6dRJugXkfy/WThl4MpLYsP2Yl6Iudw0dHRhdKSIhACUVdkUHWusZhhPzcMGJRg+3aRE1pxz3KMyBmBnBE5iMVyQKkhShxycqyQHwUgPK7XX3sRjDPc+4NHkv6cmcK9KxqUUdJJDtIoDTPvoiMrDZKEl3eULjJDumuSystKAQCPPLoaD//kScDykGSe6JqR1+Caa67Ftdddi+u+8W184xvfwre+/W1c+43rYBgU3DRx6euv7XOzTq9u4RyRbzIoRldWWOSHg9bNTzF79lS0tnWK2TUB5IZ+RqmtzUnrlYOSuxWA3tbcqfqdeLBNt5FYdY/tJemhu0x6Sdlo6LwQ1fjJsKx6rU00Wtv9w7k6SrR85Ny5s0QvMMAi8FgPQhVRwbBCd5RSVFeNBjUoYjkjMGLECIwcKR45OTkWq1Qsj8VEPkqE+Bbi7LkL2Lg53lPy/ZweHmKQlxR2f25Io7SsfmWcURpm3kVH1hkkvxYTqXhHYcJ2fvVIYVFeLiR5KirKcKGlTdyQRgwjr7kW3/rWf8K1130D3/zWt/Gtb/0VRo4YgcuXvsYf//j/4Y//9q/483/8O/7jz/+OP//531E1ZjRaWtrVfrdt3wsQCkINjBg5EuPGjRXnCNg5Kb/PJPNYhMQZKJ1B5SyQDQp7+L8XX5iY4pDu2nxz49sAhl7oLllIht1Aoq1d5iKDSQ2AnT+SgWLDygHJ54ah55QICAHOnWvBmDEVYKYJs79PCBRTA4YhDFEsliOMUywHI0deYxmmGKrHVGDJ4gVo3LTdcQ7eqvXJXQ/JlCnIY91r5TrdzLvNFslhmHkXHllnkCS8Wkx4eUephCzS6SWVlRUDACoryjC6sgwP/eQp/NV//r/wV3/1n3HNtdeBgOBPf/o3/PM//S/88z//b3z11Z/Rd/kS+i5fwqWvv0bf5T709fWBc4aW1ja89MJTat/XXvctGEYMnNueGLE8MDl47GlqTjiQFBWKkJ3MD4kOnU6WnXwuyQxqXZeX5NV9lDGmdPnSjXHVYzSCQ3x+Zegic76YX41YmJYOegM++bep6YBjndLSYs0jEsZIPqeEauFGsezc+RZx3ZgmOGPo7+vD5Utf4/Llr9HXdxmci+s6JydH1S+NHDkSI0aOxJb3hHd0+syFuFBjlM7Kvp83xVzzlsa3QAAH8w6AYt4NkxzCIesMUiZEVNMNQqinISwrK8G5Cy342cvP4ty587j09Vf4P//8T/in//0/8cd/+xdc+vpr9Pf3gzET/f396qEUEsAwZnQFCKjSbauZMxP/+i//B3/+85/xl798ha+++ot1DkRRy0sC1JclGOcO6rdOWpADFGem52Dl8Ka42xMK8pria4+89uOk4vobNElwkLVJ2cO7Sg3pGFA5N4OPEdJzKC0tDrVeR6dXR1nLMKmiVlsMVbWMAMAhCqvlPwJY98Rl9PVdxqVLX6Pv8mVLPxFo3LQt/vNooWaJVMoQUinklli1osGXeQcMG6UwyCqDFNRiYqALYRN1kRXrxA+JF863qQH8P/78J/T1XYLJTJhcqAwwbroGXMsAcA5wa75sGZqFC2rRtLcZ723dif6+Ppw7fwGTpszBvLmzlYcEQtDe0YW2NhH/7+jo8mQX6iE7SWxwN+zz85LE6+QkhJiLSh68XjAkwQEA1qxrjHwuUZBpYxf0fchwXXVVZYbPwom21g6UJTBIsvVEe3uXWNerxsDvAaC6qsIiR3DtAedrzsG5CdPsQ9/ly+jv7wcgwuGbtuzwvV4HA7rxGz9uDLY0vj3MvEsBWaX2nax3FKaNRDL9jOQ2cjAPuugJISgvK3bQZjljYISAcg6Tc8AwQDkBo5qBsG5WxrmlDA61fNGiWixcWINJk2tUAeyhgztFmwpLCTzsZ2KcK+q3lwciFb+lzL+7X5JujIW+HQWltlEOowYOhG8BEL8/DoBYjdPOYs3ajRg/tgpjx45OuK+hAjXQpph/Cxsy5S6Kc1t7Z5xBCqy/s5TsxVNiXcr2P0F2EGol9noRPoc1YTp77gIqKsogrwHxHksoJxT2mvRCsg0nx48bg1UrG5RBWrVyueOvLGcZNkzeyBoPKVkR1YGG+waVat6ACNmdv9Cq3uNceD4cHOAM4KIZH+cMIkAnbjh3+OHChVbHxPLYkd04cngXjhzepfZJYN1w1rFKSorU7DVRBXpbe5fweKwckmf4w1oeZnDUcxVRFMDjw3/WNr6bijdsL2mj4/hDGfqsX3pIVVWVvmoPqcLhXSSpEdjW2mE1uoPnA1bITYbl/CBJpepBtL8EGFMpjFHdwrk4e64ljhkaFLaT16TXdZkupp0bQXTwYSHWYGSNQYraYiITiDIjcueRqMZ427ZdFMmCiQSueDDtuf0AY+qhezxyIOJc3nR2V1nAyrW4qNphUFRUgHYPeq+j0NA1OPlRwOV5uJFocEtugLW/67HVo1VtkgzdDZjwagiko64tFfh5BZxzz98XgAr5lpT6E2PaNCVwu2usHT3gzP5rLxfP5XUir3HdCLmp2UQ8EdswhvplC3HhQpvax9mzLYMWogsLybxz08GHhViDkRUGaTC9o3Qy7ST1+4LlJXEwMCuBy8BgmgwmcxojpkJvFrGAABUVpdZNaalqy1yO1llWJf+VgUo8g+P6ugmYdmEQfYYZTG4I2DJuyUpLeXnN2o04dWpgapO8kI3EitAhO87UdSR/+1Ifg+TfNVZXSLDzQIybVi6VgzMT8jc8c/aCfgLOFBPncQZKXJ+m5+cKwxb0POMUvKQo2NL41rAQa0RkhUEaaiKqxFGzZMsDEUJQVlaM8xfasGhhDQDheZhmv6i9YCL3w6ywncnEc5OJ9zg4zp1tQXlZscMzYspDsYwWt70lOWudM2ta4DlL9pMuIeRk2rmZddw3bOctAZScIQhPt40/5oq76wEAb2eib9IgWRp3vViQSkOygymHnT+Sv5usQdKvNy9IRmdJcSFa2zqsCQUHY6YWAmYWa9N+zTjDmNHlUKQFLYRmMyvFfri1vmn2W8xPhtGVpdi+Yw/Ky0uwZesuT5aoCuUl6T2lg2nnhmTeDQuxhsOgG6RsazGRTLhF6NQRi6ottq+zDBJgx7GlYWKmoH0zkymCgnzIWo2+/j6YZr/1MO3nzLRuVLE/SaLQB5EgT6e4KF+JsXrBLwyoh+3ka8CuSdI/q/t50MAZbhCI/0045xg3djTGjR2Dk6fOuma96RlYMm+T7HPWE/Sy7q66KhOEDR73+zKL5ennHQXuTcvRMJPBtLx+k4nn8jpnpjBcZ860WPpzTBgxx4NpYUVTGCPGwU2GxQtr0dLS7igaHwxENXaSeTcsxBoOg26Qhpp3pMOrHunFF55EWVkxHvzJagi6szRGttHp6+uDaZroN03099lGyjRFaGJuzXTxfp9mjJhcx7VMzjQZV62lO326xuqQRslhZJiTYOGeeSZCWgxBxMlt44Y3Uz/mEIRf36lEsD0T5vBOWtv8ZYO8wnWzZ00FALS0tIObJrgpjAo3TZj9/dbfPmVszP4+LFpYi7PnLoiJmXZs+8FUiM7sF8ao3xS1eiWlhfjgiNDCO3e+NameXulCXOgwQf5SMu+G6eCJMagGKcg7qhrgGoxUoNS8rbDd8889iQsX2rFt+14Q2Iw4GWqTRqnf8oL6+sRjy3vihuvr60O/+2EpOfT39cHsF0aJmSYOHDyGmTOnqLAI4LxhwobEHG3LE/SRCYMobLtg6LUqQwcpERvSkNd0s8x4CMZkaXGRw9N2h+3cOojFxYVo2nsQ8jfilvcuowFmv/Mhz+n06XPqPhAsUytE12/aD87Qb/aDW14XZyLEXVFm09ITKdJ7KYlkEkGGaZh5Fw6DapCCWkxENUhR2kW7EaT+nag/kvSSZC5Janc9+8xj2LZjL7bv2m9VT3AVtzdNQXDo65NqDcI4bd+xF3NmTUVfvzBQl/v7canvMi5d7sOlvj61XP5tPnBMnIyVa/L/fPZnKCq0c0i2N2QTHILgZtvp4Ta/sJ06Vog8VBjIrbKRTJAunLakkaqro0/KkmWfRWk7oaOtvUsxQpm6vu06OTsywFBWUoiK8lJsfm+n5SVJw2UbIcYY+k3xur+/Xzw37QnYhdYOLKqrTepcwyBRu5RU4CfEOsy8szFoBinTLSa8kKxelZ9RckP3kioqyrBv71Zs37EPO3ftAwcslQbTFb4TxmXbdtFtduqUW3H50mVcvnxZVKn39Ts8pT7rNWO2RzRt6iRFgLBP2uMB+6/dztxpjPQ8VNiwXeqFnH4yQgzJmp5soYD7IVXttFSgF8Qy7bctLilIJLTgwKyZUwAIOrisfZMPd27UZMKoVJQV4dz5NrGsX4bmmBbWtqS1zH7rPO197Ni5DwCwaGGNb740mbbmQddvJozSsBCrPwY9h5TJFhNRkAz9mzjqkIhaJr0kSglqa2Zix65m7NzVDHDrAudMERuUnh1jmDHtdm2ZCNGJ0F4/+vr6cPnyZcubEu8fOfoRpk293VGQ6vxM3j9vYWG+Y0Yc7yl534Rh+iTFn4e7bsnbUAQbJW9keyAv0GNP68knt7NUjDbjDMXFBSguLkDT3sPK65fXr/5cXLt9uNzXh9qa6QCATZt3imvb7Edffx/6+kVYut/y/s3+fpE/6utXBmvnnoNYuGAOgAQKElmOYSFWfwyKQfJqMQEgo95RVEQtkhV/nbkkSg3MnTsLNXNmYOfuZkGt5RBMJItlZJom9jQdxN79h61wh82sk6E83QjJvNORox8BACbdcauigktD0tHRrUJqumoD5xqBAVJQVSc0MJVDcHtH6m/EItkgZLIGJB0YyLNz14KF1bGLQmhIdOzSkiLHdaDDzwDMnDEF7R3d2Nd8xNJkhJZDEsQcReKxvPznVj+MbTv24szZC4K44wjPSfYdA+s3Ldae7cXVLajxPI9UETQJysR1OizE6o1B1bLLhIhqGF27ZKBr4VFC4rwIYZRMlUsyYIBzDsOgmDdvNjg4Hn/qJTy7+mEUFxWIuiMrzLav+QimTZ6IyZNuhmk6WVBKrUGjV394/BN8cPwEfvQDMcNinINaunl+UMrbjKOwIB+HDh/Ds8+/omIxSmuMECunTpTXKF9L7TL7MM7n9rpuj9P5nnu5/R16n7uX9+o2fuWjv+u98RDF6TPncc+KH/u+Lz+9/TW4JwfO5U6lBLFctgrhsK+NRJAKDZRQ4SUVFWDGjCnY13wERYV5KCrMVfsxIa5lwomlPUfAOENhwSiUlhRi6/a9KCkuUBM4oXgPRWQQNUkAIRyza+/EAss7ivsuLP1FaunbMc5BIa4bxhgopZC6dvJ1VCSrbecHSQdfYinXuzXv1qzdgNWrV191RIdBMUhDocUEEN24yfUpoWCUwTBsidJ5c2ehvb0TT6x+Gc889RCKCvNAQPDsi68BACZPusUaReRAYRshkfwVN3dv7xf44PgJ3HH7LRg16jswTVMYSEpBHIMOhx6R0b2jadNvx6HDx9TgIjTDRKaAEpugQaRRsoyUEMy0XoPYxksZKtuYif0Sl4FS1k9BNzZeRkyenxu6PTp56ixazv3ag5ySSgCAy/8SrMZ91/EMceq752Yczf7d9e9h/YYtqK6qtIg9foNgvKGxTgf6E0Gllh6xXYag/21t7UCJ1UsrDJ2aUOIwXjNnTEZnZxeef+nnePSh+1BYkOsMB5p2nyQwDkYIamZNxurnXsP2nfswf+5MQJpF/fxMBhBgd5NoBlg3b3bCcxtKGBZijceAG6SBaDGRrJckZmnRtnPfnJQSmKYwSpxwa1CmMAwDq596BKuffhF79h7C008+iNXPvoKOzh5sXPeKCpURtU8KDlPpGxMAHxw/geO//BRvvPYiAGuwYVR5SFwpb4uBhSaIyMqkNCCVHCgMQ5yr6HhLtR434q9hGBar0CoGVixDqimYE03bjzt0/qjGTtRfAwDRzle3JUpRXC6Qg631cu26DCg1pAGpeOtVVZVY3rDYe1bONY9XKSU4839u2rfJmPA8ZP1bf79GOGDo6OjyDdO5lUm88JOHf4gXX3oDL/z0TTx8/0oUFoxylhJw4cEzzmAYFPl51+PJR3+IZ154Axwc82pmKLUGaYykEW3adxjz582K/B26vSK/197bsgEhntxrCQW/vWYDxo2rwvhxVQCEUTp56sxVZ5QG3CANtnckL7JMyITYxxCGTYbuJAyDK6M0e664EIsK8/DT19fFDbJq5q397f38S+TnjYo7HmccjAKEcxQV5UN6WYwyVdTItNyPHCja27tQXJQfJ+MvtyWciFCgFQ5RXhgDKGUgjiYVyUEPhfgNAtz13QyVdHa25MhUHY7lJSt1BSvv2N7eidJi4SG5W43I60dONkpKChzvMcpAGcBA8ZOHfoCXfvpzvPzqGkybPBHTptxifwcMMAwqrmcuogdFhaMwe+Yk7N5zUHhOHKiZPUWFEQmApn1HAAAL53uH6wYLQcYsaljw3hUNOHnyLJbVr0Rby+/V8s2Na7C0fiWefvppTJgwARMmTEj1tLMeA2qQsqnFhF9/pLBekp5Hkl6S6p9ECRgDKKwblsuLU3zd0ihxbl3YmkA/kaEYEHs55+j9/AsU5Ofi3lV3apRdDkoZGCegjIITkVQ+dPh9HDr8fsLP0HzgCDqtsN0cq/I+CqThAqPWeTiVK4SBkcYmWm+adMfsBwOZymeG3aejHQiTZBVRG9TS1oHdu/crtmVHRzf27j+U0nkRSvDQg/fh4EFx/R06+hGmTZ6IqZNvsc+bMHFlcwCcY+a02zBnxh3Y1/w+9h44Bs4ZZs+abIVLOfbuP+LwjoLKLuTnTNQnybF+xOsyU9jS+BaW1N+LpfUrFQUcEEKsy06uxE033YRPPvnkijdKhKdeSh/+YITEtZgYd8OEjFG9E924/hRk/yLOOAaOXhCqhVHskIqtzm2aplU8aBcLyvecOl4iZ8S5TaXt6urBm2+9izd//lPH/gGoMJphGHjj52vR2dXjOMfbb7vZPkdxUgCA3FHX4/OLX+DD478CIARaa2tn2Np86q/Ytx6+ixk0PmwHqoRmxQyRa88tFqIrZAdoYTsul3Pncv3cYXtI8nX56O8OwRyS3VoEsHNI96z4MU6fOY91a17zLYxlpisU5lDHtkN2erhO1v2cO9+CHTv3orW1A4WFecjPzxPGSts/gfiteno/R1dXLwDRb6u9vRO7d250lAk4hH+t5zIUePjIcRw5+gEAEQkQzZG4SgrafBhBqWnv8Ja8Oty8zREyltec/dwOKQNwPlehYur52rnMTbJxdV0O0THauX606++zk2expH4Vxo2rchilz06ewbL6lZgwYQI++eSTSPscahgwDymbvCOJsF6SPtMN23nWsQ0lVsjCAGACVqiLWBRxSTjQk86EilolgZi6uC9e/BKjRn3H2o+A6uBKxPZFhfl45Cc/xoFDR9HcfAQffPhxqO9j7/5D4rF7c9x7Mk8Fi6jBGIeRQsQuaozezxhlMyKTYlKcqSeeW3I8+tiz6lVXV68yOH4oKSnEnNnTUVpWjLlzl6nzTFSASijF1Cm3YtKkW9SylasewEMP3IfCgjw776hNYAzDUJMWmXd15BhTmmBkP3Tm3dtrNihyg6SDr1m7QXlKVyoGzCANZRFVN6K2Q5exdmmUCLHosIRZJAgThBFwIgyTvEFNIqnX/VZuyPYyOCeeoTsA6OzqAWMMs6ZPweyZU1G3+G5s3vR2ws8EAEuWrnAsl/kpL9sjejRRO2xHGLjV2lzE0eMHWK9QXHweafBDKBKCljEAx6EUnDHVLdbXOwpZNGyvw1W47uFHnsbCBTWYWzMTTHruqs7MnjxRQtC07yBaWtvx5BMP+RoCQkWo2IRgepoeX5Q+ucvPz0Vndw8KC/J8PpvMvSSpzsG5MuryeRS6dzaEiRMx7650OviATDkGq8VEmIsr7Czdb19es1qdQabCAcQZzlJsNmogFoshJycm/sbEX2q9Lx/UMJCfn4ujxz70PUfG7PCRe7ZMCIVBDRjUwMGD72PpslVYumyVWkYJUZ/FlhXStOq0ws1kmqJJhPlNZDFvptp3DxSinLufoK37odYPYYzcSgyydYMkLbS3d2L1My+hdt4yPPPcT2EYdkhW8vll+EsPhwH+uo7ytdqPC91dnyc8bzf8DKK7T5hEsg0n3cgk8SkIV7MQ64AYpKHoHaVzlk5cN680SoQQh2EydCNEDWWUqPVa7kZvB2DXHHG5QL2n35CyQR+hBM0HjmDn1jWomT0Vi5bcg+YDR9V7QWA++06EMBI1zHQ2jBMfxVYhYIwnnDcPYDo0I3DnI91KG+q9NAiAUkLwxFMvAAD27dqAkuI8zJm7FB2d3eJa0dYjhLiuYRrp95fbFuTnhl7X63zTgYFS/k4VV6sQa8YN0mC2mEh1dh3VKCUa0Kk2g5RGSRomVdtjPTeUERKzTUoJpky+HV3dvda5edGj/W8ymQiuW3Q3nnj0hxgxYgQWzJuF5qZN2N98GJ2dvZ59b/RZaNx7Ib7fRASR+Ae35GM0lYo0yOMkhRTHwCBvkHt4n6dPi3Bd1ZjKuM/sZ5y84KlraJ1LZUUZKKGYNnMBFsyfjRefexw5I2JYOG8WSksKsbupWeVy7IJpO0EvDUNYA6Gvl5+fG0e4CQNd3FfvouyFVL2ibPLI/YRYr+QW6Bk3SJ9++imA9LSYiIqw8eBMFsDZrDKv0J6z4FA3Smq51h5dLu/pvRi3Lz/vwK4jodi3/zDmzJqCqjGViOXkiEcsB2VlRdjfbFN+29o6FUXYcQzVkjq5mzZRB1npIUnlZ904Qe9Qm9TRBx7+g5uHceeuzrvKIHuH7Oz9O5Ua/PpQXTjfqp5L41S3YI7wwmMjYMRyML92OlpbOzRvOZ6Rlg7ISVVUuMOaYaSOQu034HoO8kYTeeTp8MK8hFiv5BboGSU1rF69GidOnPBsMZFt4bqoRAW3th0gBhXlJTG7AFdnW0kNMF3hgVIad/FK4gLn9mAgiQ3JgFCCfVadyYiR16Bu/mzrnKVCgjgnKSckIWuNDJ8iWEVsIObriYUAACAASURBVAygFJTI5LD8axXmBiSVhcEB3tmwGWespL6crNy9fIkIEcliXEKzIvkcBvIcw866z5w9r/7+9Xdvi3v/t7/+UH1Xznov7/3rgrtynYryUvW+oO2L39iIETy++qfivB2U/PQZo4KCxCE7cZ4R6tW4uDYlC9Qr3+SuNUpUexR0fQ3GtbdqRYMH8676imTeDQjLLltaTCSCl1HSWUJuGm9UI+Z9zMSFuJRSdaPl5+eip/dz5OZ+B5IVLgd7RzhMo2i70dLaDk6tJmeMo6ysBOcv2DNondQgByfOOGBoN7XP/m06d/DA4h6kx/6376nnVaPLwVg/NjbuwBmrJkc3ShjEXkJR4GuIePz3Iin/Ep98tFeFzmKUYuOW3fjv370NDfV1aFi2yHPfUWfkd0yZ6/segdN710EJ0YoOoiE/PxeHDn9gUb9FuYJheF8nspwBFHGKIYLYKYyRW13Czzi5J0WJJkmJFETCIH6iGX0/8UKsdzr+XknMu4zd2UOhxcRAw31ju3NO7rCd/VeKnlIQAnR7hDxUqCYgoCUFNFc/+QiYyWHQGEaOvAZt7Z0ocXlGXpBSM1FZTIkM7tgbvoeqMeX47aeHMWZ0OTg4GpbMw69PHBQ0aK1wWJ1LFsX6/RC2i7H7e1xcZ7VYsGbynBDcWV+HtW+9jI2N27Q1ndu5B1t9/xda2uKOe/Kz3+DvPv0IRw7txoH921FaKtqDB2nXpUr2yc9L7CUNhd92oCHp4IJ5d1otX7XyTqxcsfyKYd5lfKqZSRHVoQov8kCYmROlBAX5eY7XOhIN/KUlRSgszMfXly/h0qXL+I8//xl/+tOfcMHyjjjjKC4SWmVhVJ+B6IOH+xzf3bAFAPDz156HyRjefON5nD3XitNnW8AZx69PHMK4v74Fp6y23ibjKXul6UOyA6fLk7Ugw5V1C2tw08Q5+B83z7JU1A2YnGPM6AqxnhXac8Mrf6T6XVmL9F5H//i//l/867/8Ey739aPfZCix9OyShdfv4ja2+fmj4ogNXg0mw/7GSh1F/fVWUkl0bwwFhqaTeec0SlcKHTxjBmmwRVQl0h3vdc96E7U3d6taJyI3eB1LJzYUFOShq9ubEZcIJSVF6OrqQdOeZvT198HsN/HEk8+hpKQINXOmqfVkyA5wirImgtctnSiMdPr0eTQsqwMHAeNAv9Vm474fPmYl+oExoyuwfuN74T5kFiFRHZWTRi8+d2VlKW69o1Yt/5sJ0yydQwKAorqqEo2btiEMdIkfzjkqyksVWWXB/Dl45NHVOH9BtBNvaWlD095mR8+hIGfIlpHyvhe8oBsLL2KD2zAxbfLBPIys/Tm9PXbv2i6n0c52+rcbknm3zNVtdnPj2iuCDp4RgyStdFXVaLVsKHtHXgbDzyipZSEp4J7vudh2QitO5JEKLWKDF9MOgLIKXuG00tJC7N2zGQcOHsX8BfWYO38pQIDVTz2s1ikuLojbzrF7j3CdpGsngjcDzEq8EwrAALMuyWuvvRY33jwThMYGXd47U4d3T2DOnL2gjuZMwgtjlEzuTCp8t7S2W6+FhzSvdhZefOFJPLX6BdTULsbTz7yEo4d2Y+G8xB1Zw4Tt9NAu157n5V0vlum0/ojstVQQpGnnXC97STNbGt/C+HFVWFrvVFW5EujgGSE1SO+oWjNIg8msi8p2Gky4SQ7C2DHNOIm/3T29uP76/wpC9LyKa+boVY9CCJr3bVXv60ysRJDEBsY5DMQTG1TnTjAwRiAK/mViOJ7pJHHuXIsYOJktFEoI8PprL1iq59Y2GHTbFAmJrjuv751zjvnza7BzZxMA4MSvjoJBzBw5RCfZ3/zdBwmP7TWol5UXO2vKTI5DzTsAQHVzTeR5ezFCoyI/fxQOHfnAwRqV3pHhoZUoCQbq+rK09HRigw59PTfS1UFWP+/BkLqymXfrFblB0sGXaS0rhhrS7iFlo4hqFPiFHcJedEGSKu6wnZQTksvcN4YuPin3TQhFQUEuenqiSbDo8i9BkAOZrEVKhFQLEe9cvhhnz13AubMt4viWyfnLX75CZWUFAIIzZy+gutqe3AxE47R0ICnpIw7ULajBiy+utvbBVC2WDFtGHQBFyA6OmKru6epadhK6ArYXOUOXBvLMiXoZA3dITXVFdqrju98P8/n8wnZ+y1JBNkxsJfNuzdoNeHvNem25EGI9ceIEbrrppkE8w+SQ9jtbekfZKBMUpVBWPpzLXTdliFyS2yh5Hs+Hbacfh2iGKd8iNmQirCBJDRLupn5eCLpB4/MCztl1ddVoVFdVYvN7O0AIxbZtuwAAS5cuBKUEjZu3AwDualgc971ku9ZdWJYdAJy1DPKFljZs39mEyvIyABDGyDTBGENj41b85u8Te0deHkyrCtlpoTSr0NkfyV9ffjkfzjhuv+2WwOLYZD2wdBXKRj7uIBEidOadbpRWrVyujNJQIzmkNWQ31L2jbITuTQFikCssyMPRo7bIKqVUKIYTYourJnlTE5cX54ZfuC6pY1nHWPf2a7hn1Y9x0812S/XNm7fj/LkWnD13Aad+/7FnwWPoCQYGRrHbDW9jGXwmVWMqsGNHk5rU3P/g4yAEOH++BfXL6sR3FrALN8NO9x5KS4rtc9OUsaNCXm+ArEmy6oC85L6147kNRkdnL4qL8qxaJLd3ZAdoE9UjBTUujtqwT52vqwB2oFqaR8WV1gI9rd/wUBRRHWgkYtvpYTt3Mzupeye37e39InB/qaDN6iQaFk5JoejD/7q3X8Wdyxej2lJoqK6qxNixo3Hq9x/H6f1FAXH9HUhE8ZB0Kvfvfv0hRowYAQCIGQQGJXj7zZ9hecMi3xCaRDa17gC8vYfc3O94rDe02G7ZBH8h1qHHvEubhzRYLSaGOrykhHTopAZixe313kjy/XTCj2knZVqkd+Ru2gfIhDKxiA12S3OZPNYTyXKwkkSOu5cvsfcDwNAYUV6sxUThuuwamuMhFQ8osXXjqqoqQSjBXXcuxl13LrYlp0IaNi8D0Gq1nSgvKw7RWC8Egy4FUoP01vLyRqGruwfFRXZdHWMchDiJDTSRCxR4LFd/JAQb7GxpZ54M7l3RgJMnz2LN2g0YP27otkBPm4d0tXhH6cgjeZEbnPt0Cqzq9UiS2KD3RgpLw0342bTP0t6ui2wm2HcKsXt57joNl1IKQ/MG/fJwUTwQIHkDleyni+th5LGOO5wkVDnsHKb67T2LqZMfPL3afYeBF/nG8T7VCDiu69iN7p6LjlojCb96JH+2InPkOhP17BpqtUdhsaXxLZw8ecYlxFo9pIRY02KQgryjbEPUm9izxiiDsyi3Arj/MvE67vPoMv3cWdAqjVJLayd27W7G7j0H0nbeQQYvWE3Zfk8f6HSWl3jt0RojS0gN6bgazpw5571vjVxjk22iZcUuWB6S2qdV00YoRVtbJ3bt2a/akwDBNXLpSuDn5V7vkMAayN8x3erlQPYoPWxpfBsnT55RHWcBW4h1KDDv0vLLBLWYyMZwXdSZ9UDByxvRB2RZIOvujRTls3DO8eRTz6O1rQ17mpoxp3Yp2trsfBElFMVFhfAbZmVY0bOGRmNvpYIwxijhPkIsz/QVEH+dcX87Yn3m6qrRwjh4PNwIM4i7FTb0fkZPPPk8HnviWbS0tGHq9PmhPlMYhFERycsbFbfMXWDtNchL7ycKlTvV63EowY8OLjXvsp15l3IOaSi1mHAjbMFssqresoAPQFyOyK0cHn9uogBR5oko5bbQqmGoWV5v7xe4/vr/ErpgcU7tUtTMmYpFC+bAoBQcBFNm1GH3zo2O9aR8kFRSlvkjwMm0k4WwHAYIpEK4k5rtbpUQpSAxqBg2lUlFlC2TZelFmfWfPu30kPSCYgn3NeN+rR9N1hdJVJSXqGuQEoJde/YD4Dh2aDsIAc6ea8HkaXOxcEENFi0MUAH3UKcXDDsrJ+bxkQmlUNL0FqRiQ2dXL4oK8xyETb8CWTfk9WcEqcp7sAmDimP1PNJQaXPixvhxY7BqRQPeXiuZd9UAbHXwbGbepc13dXtHVVWVWekdpQteOR6x3Fm/5L4Z9Pdl0avMGwBw1BupLp1Udpi180iFhXnqPHQWnoTQLHPWDzU1HURJcQHm1063bng7f9De0aOeS1JDvHClx2jD4XrPTiI7uqJqeYFEOmKZDn4M1BCTjCc+buxoZ/5RY1Umi9a2Dnt/1jW0Y+de/Ozl1aBGDJTGMGZ0BY7s34ztO5pSOlZYcMaRlzcK3T3Cy9fb1YvX0QpkvbQWM+kZeZ1PtoTtAODelQ1YtWLoCbGmZJBOnDjhK6JaNSaz3WCvRsiwnXxeUCB6I4nX9qCV7xUOYRxt7Z1o7+jGyBHXgNIYaMwACEV5WQma9obLJ8kb31O40ueGDBxMvGbU7lU8BpuhMHNNV44rHQNdWXlJ3DJFnDAoqBHDlFlLQ59LIiMpJ056iNArJN3dY2syuo2RlwK4pyFwa+Gx8HJY9rGdk6dkkW1GaagJsaZskICh22IiyoCRjqK4KIKrupdkh+1skoN4TtDd3es7OLtvynYrDPeTJ14EJwQc4lFeVuy1Odo7vGuR9DySe5BIpsW5PTtmSl9Pb90dFdliquKU4a2/bgXr02fsGiQl5aM9osK9TYtFaqAyD2ldZ7dNqsFtk2ow8fYa3DapNm4/iaB7clIGi2hyWImQO+p6QPutxbkPfr5nqFK/vTDUhFhTGmWzpcXE1QCnMRJGqjCgFYWXtldJSRGKiwvx0ourAWIgFhsBEAMXWjsc23rVISVqQeGWF5KGyT3A+AnA6gOwl2ESCW8nFfhKgywK9kPk3lNMU0fgttK3/B0/+vAg/u7TD/HZ7/8O7x/dF3q/UUV5vc4LEHmk7gSajEHEBq/9+l2j9vXo9L6yyaPJFFataLCYd7rmXXbSwZM2SFdCi4lU2XZBM6lk+ySpmSaNzx3YagWixqOw0G5FEfZzMMbwxz/+Oy59/TW++uprmKaJ1tZ2lJaEa86Wil5Y2JtfGiJTM0yJZtBr1jUmfV6ZQlgP7+Qpm9AgjQjzePjB6zp0D9hlpSWO/QOAaZr447/9G/7xH/8nLl26jLm1s0J9LnlMXWA10bpB6OzqtX5zO4/k1xdJR6J6o2Qx1DoTJ4K/EGv20cGTNkjZ1mIiG+A2Cl5GKWw4w94HcYTtZEiEEoKionhPpvfzL8Bh3cRaOwfTNDF71jR0dfXg8uXL+OrrS/j60iVs3bYbADBr1hTVO0cOWG1tnXFsLUDOtOX+nYOFlxCrO6ynez/ytddD95h0o3QlQR9QqywPiVneoNsr5FyIoUYJa6luwJaWnPw9y8tK8MBDj6G/vx+macI0+9He0YW6hbWal+FvEOVvl4pByMu9PultMwk3YelKgGTeZTsdPCna97CIqg0vGmz4bQWdXNJ3w+6LElvbTRIb3L2RADhCFABQXJSP2bOmYemyFZg+bRIMw8D+5sPYuWNDXKW73qtG7suv/wxghUsog2HNcaSskF9fGrWd1hdh5X0PWk3qbDTUL8KdDYs0Oq4BSrNT6NKNqH24uDYhWHXfgwCAMWMqQAjB8oZF8OMfhrlmSkuLHB5Fbc0MPPHUC3jsiWdRWlqE9rZOtLV34qXnn1QdZjm3adDp7LCql0Dk5V2Po8eOo6gwz7oHuBJa9eqRRKklSWVopQXWtZmkwlAcrgTqtxfuXWkJsXrQwbNFiDWpu/rpp59GddXoK0YmaKAvuKACWAAOCjhge0m2jIztNenEBhX+8zim9H5mz5qKnTs2oKf3c3R2dePxxx6Ml13hDJwDbR2dvi0K/EJ3iXJNfoMn4xxnzl5A/ZJ5AIDffHIAv/n0EDY2bnWE7vScUrZ7TE7Pwv9zy/c451i56gH89Xdvs7wgBsIZNmzcipWrHvA9TlBITFdpkHkU0zRRUlKEfU3voby8BB0dXaCU4lDzDpVj4tr5Bhk8v5CdfQ07/4YpmvWWEoqfbLlh501tL92LZJPsBDI+H5rd158XdOadTgfPFuZdZA9JWk+9YdrV4h2FKZB1Fyvq2+iFsn77lLNRL9FVVbPkyiP1dPfCMIy4okkdnDNRm2gAMIFHH/mxWM44+vr71TnYBoUDnKjCQr0IUXSOlYKVTLUPCC5jdc429WLE9Y1bsbFxG37+2nOoGl2OM+dace8PH8ebrz+PEx/tw6r7HhATIKsnkhGy7UWq3UBThdtDcheuSkN/+rRg2Z09ewGmaeKNV55GVVUFDEphGAbuXF6HG/5mktgPD+d5iWJUFmes1ABtFarWzJqG2jkzRFGraYJwy6O1dp3II+JMFEIzirji2EQtKQDgtltvxttrNihPSFyHybs6spAbiN5iYyCul8G+JgHBvFtSf68lxFqtlmeDEGvkb+ZqEVHNNKLmktR27jxSYT46u0RRq4OJR5yhMm55FaZpP/r7+9Hf3w9mmjBNE/19/ejr74dpMhRYTQDdM0yb8s0cIyyPY9nZIpdeRbKAlTviDBsbt+GTjw+gsrIMpmni9VeewdnzrTDNfjDOsXTxPGxs3BZIhT516qz47K7lgymkGYbUoH9nZ85ewM9efhKVlaXab0dAQLHurZ/hv3/39kjHl9dYRXlJ/LVgPcS1IH5/+XuZVkPAMLTzMKQGvRbJD909F7XrQuat3FJCzpylurYilBro6wUx7fyIDWHyd0OBuWcLsdp08Gxg3kXykK7UFhOput7u3E+QLFCQl+TOJUkvSR5DNEYT61EiZs+qN9LnX2DUqO8AAPILckEoQU/PRRw+KjqMLmu4N6nP5sgFqbYTVhsKbntE4pmQGKKMJjHJpeBWoGjLe6Jr7I0TZ2NxXS0altWpc5G7DZKUifsMmlGKPDtNVjcI4XNIshfSoroaMMZw00Qh3fO7vz8qrg0AY8aUo7qqAvd+/yGseetnwadMCGBdY3V1tZg0uRbTZi6IfP4lJUXYs+cAamtnqGVhBltxzmbC9YDsJTZcDdjS+DaW1K/C22vWK1khybxbs3aD8pQGEpEM0rB3lF749UAKWk8YLTt8V1JaZC2nKpTV23MRr7+xBl3dvSjMH4WfPLASRVrfGZ32yzhHV/fn6Or+HN3dF9Hd+wUKC/IwbdodKC4qEIM5pbYh4NwZtmMcRBEdbAOla9/pCEoSi9MycO58u204rAHZ3p6psJ3qJDpUkOCnXriwFrffUaNe//XfTsbvf/0BiApkhLeOlBBR/EwI5s+bDcYYdu9pBgDMmTUZ4Byzpt+hJjw6UUYWYRNCMHv+3WjaewA1c2Y49i8nVYlYdrLnkxfkPnJzncQG90TDDnO5NBINdziS+5Ju5Lkm0z32SoWueQfYWnfy75q1G7B69eoBJTmENkhDqcVEVOgDZLJCq0FekmSEeeWSpLEJ4yXJ48Tr2uXj4OFjeOiBHwCAUgEHgK6ei3jpFbthVxAKC/LwwP33orAgLy75nI6W5UFtoDdt3okli+fBNE0sXFCLh37yJCoqyrB40Xy4fxJprLKZaRdOiZs7VBo882/EsHuNQLDuwoJQCsI46hbUwDRNzK2diZ279qFp70EAwN7mY6H3JaWldjcdwNyaGeoaJpT6GiVKKEzLHBFCAk0pB9dETxk4J+DcLYrqbNjn1SAScBomP7ZnuprxDXUWXhDzDhh4IdbIpIah0mIik3AbmAE5JiWQjWFVUa0WtiMg6LGq3jdu+IV6X8q5yAFE5nqYlU/q7OjGa2+swQP334v8vFwA1mBKrdAbtWaoVodYofItvSOrC6zlMTHKQRlVg4FYhrgBQdzENjusob4OGxu3YVHdXBBC0dLaBgAYXVkGEP3z2s3hhvIgIOHOqXAOHD60G1OniZDdp58cg8lFp1PDMHD6zHmHQfIKDcvQLmMMsJL6ijbNOebNnYWaOdOx+umXUVJahDmzpmrbOsV8DUtVXp7no48/F/cZvIxRZ2c39jcfkWtY0UObRi4+K8fKFQ3gjGHixJuwLgsLm68WSKO0rH4lNjeuwbhBpIOHmmKuXr06TiZItpgYhj8yOWjKRm2EEMyaNRXtHV2IWQOPYRhiMDEMGNSAYQjDZBg2IcINWSkvH4w5i2TDhmiSQcOyOvz27z/AAw8+jq3bdqti3SWLF2Dr1t246eYpaKhflBbl64FCUB8jHTJ/BAAPP/wUCICXXxIDAOMMzBSUd3mvLa+v892X4QpHUUJADKKUP9TkRXqY8O5EGxWMc0fouaOzB11dPSgqzEdhQT4K8vOQn5+H/Lxc5OWNUnmjNWudLU+6uuNlhLxIKfHF2N7EBr9weBCxIV0iq0HIxo61kg4uw3cSmxvXAsCA0cEjeUhXW4uJwUJQ2E72cTEMEdowDEMNRB1dPQCAWMz+WalmgDjj4ITD5DKcwpBfkOt5DlHotyKeH0z59j6GM2xiGBTvbd2pXt88cRoA4He//lCrxQpui50tCE+UEZ9lecMibNi4FTt27cXiRfPUPjjl2Ni4DY2btlnFsf7wPCKX+SQKRriVe+No7+hCWVmxda2FN0pSoDcIBw4cwfRpkzBj+iSVpzRNE5xz9Pf1g3GG67u/g7VrN6L34pfIs8g44jPLHmCySJaoAtl05JHCwIuarYfmgkLP6jwShASzgf7thqSDL61foQwRAGxqXINl9YIOnmkGYcJv5GprMRFF387d+yjZgdIugPVvl26H32wvQXpJNrFBLJceknhQ1QbA1sjTQmBqX9HOPaj4FbDrmfRZapzYqvWWPIc1b/4Mv//1h2ioX4SG+kX43a8/xO9/c9xVCJwaBmp26vSQ4m9iqQMnPxIhBGveegU7djTh9jtmAwBuvmUq/seEO9C4aRt+/9sPA70j3/PQJKvE+VDt+on3OPXC62SwzwrVzZg+Ka5Vie5d5+Vej9zc6/HRR4LFlZt7vWqlEgXJCrx6Icpg6xb6HYpFsl5IJMSaac27hB7SUG8xkU1IVCSrI1FHWdlFViR+DZSUFCoWlV/hKGUMnFBwwsEpAeEEhFPHPrmimUcbkILkW2RiOYjhpOdT7mpYpIZwfQCVzyl1hprGjR0T6VyTQTLs7zCDlCQ1VFeNRtWYCvz+t8exYeNWAMCZMxewds2r1ow8vtA54TlbHra7Y6tNCpHfa3o9zhnTJ4v9WqSGI0eP4/CRD5Cfn4v7Vt1pvUeQm3s9Pv/8C7Vdj9YbScJtJHT5IHmZq87FGsFB5jnFX+JYR16HYboXZ1JGKBu9JCnEuqR+FQAMOB084bcx3GIiNQRdwI7OoAFeUvw+pYyQlSuyeiPp+/V6EErjvCSJblf8Pow0j94FVsJLXDUKdONjGyDqMEZDBX7etu6hytblkjVpGAbuWr4Edy5fgrVrXnWsHxZ+Ho6edwSAsrKSOM/TKSxKHZ51uUeTPzcOHDiinksPqau7VyiK9HzuyF9Kg9R78UvkDtcjZQ0GU4g18EofFlGNjkznN3R9O/mXEIq5tTMd5+AVjgkiJHB3OC3KOXksYxqbL/5Y3sbO3brdb6AMwlCokvdCdVWlI7Rqh/w0w5bgKwjb4ydT39G+fYcBADNmTHIsv/9HK9HV1YO33/ypY7ketsvNFb2RUvUYdIKFV08wfb1h+EO2QF+zdsOAtkAP/PWldzRcCBsNXnF5+70w/WNs+q3SrbPkgOT+RSGsyGGJvzo5wPAkAPiFzAoKcpVhC4203M8euRUqCmHdYbpEOGlJBw0c0jugCe/V9pzsSQUNfSwvQy7BYck7aQNxaUmRxVgDhLVzP5zLxW79mY6EEMyYMcXzvbVrXo27/ighuPXW7znCdp1ddg2d3knYqw1JJgR206lqPtQxGEKsviPQ1e4dpRoaCmuUoog/ivVdN7UVfquoKAUgwjDu44cZ0KPMmh3adtprv1mnW9cuaH86gmbL2dDqOiz8rqVTVrhurCZUrBsmtUwrhg66Lv08JM6Yw7lqaWmT7/g+7EvGXrZwfg3a2pzdhXXsbz7s+15YJENsSCeGAoNzICFboK9x0cEz1QLdl9Qgi6HeXe+sNxr2jjKHKFJCYFAFkJQCjFGUlRWDEF39QSuSDIAcv/QZp9Jh4wyES9q4n1qDVmVv0W6T07O7EuEl3Cl+D71TrBu6UeIsnC5cGDjrbID4OCDx+EviJkKAUxZo335hjGbPnALTOt/Orl4cOnQMnAPd3b3Iz89FXu4ocM5w263fA2CH7Y4f/5Voad79uRY+NiwpIa+6ueCyBD/pKsApIeQmNqRLweFKwqoVDVhSvyqODj5uXBVOnhSFs+lSBvedgsoDbNu6AT1d59DTdQ43jB/rKOS70hGWAp4JCZtE+5QUcK9kv157FBbdltzQQJMG3HktZ+vqcDmRoYCg71Vv5RKIkF+D14CqU5MdHm4S362DOm4RH9o7ujBrplB96OjswUs//Tl+9rNfgHOgID8PkyffppRAPvjwY/zo/sfwwYe/AgAVtssdNSrunOU5Bk2q/FqZx/X5iqAK7nusiMrfifeX/Z6+ZN5JOvjS+hVYVr8yYtVhOPh6SDfeeOOgNmoaavDSuAurb6ckdbjdy0Xq24ntZCzd2g+oJ1mgvKwEO3ftS+lzpDMmHzRL1YVYBxPJ0LkHAgNxXnIwlH8TEQqCJjkdHV0oLirA8y++hs7ObkyfNgkPPXgfTJMpQ8CsItnbbrsJ77//MT48/jF6P7+IlSuEdA0HR3fP55qAbrQC7aiI2i/JC0FFsleSt6ULsa5a2YD3Gt8GACypX5VWO5HQQ/rss1Nq2X333YMzZ64eDynb4faSystL1XIvRJH9iZNncW1rG9rsGc7D3vrM6kA72LPT06czQ8Rw9PJx55MCPAR3/6GwaNp7CAAwa9YUdHZ24+GHf4gZ0ycFbnP7bd/Dq68Ibbz7H3hche0AuzdSVA/E0X8rwsQqLufmIja4+0L5TdqSLZDNhmsxDKTm3fhxVXHvpcsoJYw1/eEPp+KWXU1GKR29kjIB7VZdNgAAIABJREFUr5i+rBNp0dpWpwNutYUoNiiVmqRkkZUhvoBTGusbspOEguDt3W8P1KxcHmfvPqEeXrfobjz6yI9RXJQfeh8r7l4WVyDrHvz10N0wBhfjx1Xhs5Nn1OtVlpFKFxJ6SH/QPKQbxo9N68GHkR64CyFbWhMbJPfsk0OP2TtlUdTzuKp5Fso4+ckMJRPP94rhjx0bMgfjgcEc4iTLLt1IduDWC5ElCPUmNMjjtLV1qdePPXo/CgvjjRHTPAyvCcrddy1VzSUB4Nj7H1leQ3yuS6d+u734+OP6X3de0YKh4KVkA06ejPfs09VhNtBD8mJO3DB+LDZsfC8tBx8KSHeS302U8KOAE4919LoksT51rSeq6VtaOnwHEa/jAiLcZbdAD0/SCDMZ9zsXr/j9YEipDIQ/YQZ4iqFIDQlOUn87WQ8pSshOGq/2DiG2OnvWNJSWFFk1VDpDMNwgf8stE+xtoBkwS30++Lx5gpKD5NVDUjVSV5pX55bpGj82PnyXCkLd/bqXdDUiithqMvDbzssoJUJZqbe8C3PNUOVNzhlDQUFunIekU8CZq6BSHyDC3HDxM9Ur6yb1h//n9PKOdLHblI6a4Ddpa+/yXJ6MgG1Tk+gmO2fONMdy/drlHgw3d+1a7qjvYOItQrhTatoNxGCeyEtPdYJ0pZAaJNwhO7lsQHJITz31FIBhYkOq8Loo3UbOS4E7yj7la+EhtXltEgqJZqPp7IfkNRhEHYL8wovZOjN1f79e+aNsH8R27RYivrv3HFDLdM07/fp99fU1WLnqAay67yHc9/2Hcez9j/D++x879id/q1tuuVEtc/dGEiE6JyswLuyc4Nr0C9UFbjMcxvPEZ6fOxC1Lh1EK5yFd5cQGIFpbinQiUT2RX81RmDxSqpAp9+g3LUmrYQvDgPI/k8wT0JkZf06nMiB15CUdlA6PC7CvQ6kIIlFaWoSamuna8ewhpWH598GZiR+uqsdbrz+LN197GgQMHx7/GB9ajDo3Rrl6I7mZa3rHWbGOK6/p8sYStUnxQ7KtKFLZz1DA+HEiZKd7SePGpU9tP6kc0tWMRIbJ3SPJXp7YS3K8F6AEbud63PJENJQis1c8XRbGxq0bQP12Ix2zyStrRprYGIQuis0gooal2tqFfNCepmaUlBTFvd/Z1YOly1bhlu/9Le5eXodRud+xDATBpNtuwpuvPaMo3m5MnCjDdvESQlEHd7+8kU0NjxZ6TmXicyVh/LgqB7FB0sDTQWxIeCVOmDAhLod0w/ixV52HNFRACEFZGgpkfWHdh26GE9dyAokTyNlxM2eeQJHK50yP35YpVeuWVkFmkDlLqdhAKMHzL7yK55/+CW753t9asjxWkTehINQACMUdt30P9z/wOC5+8Q+OiVWu5SH1fO7sjeTlhYQVWfVTnVf78WhpPgx/ZJLYEPqOdBulq0lCKBlkQk4oaL9RpYIccN3LXvTvgaonSsZIOHv4ZHf+RSIR5Vt4yKkaNP+QXVlpvGeTCHo4rt3ykspKCx3H2GsVyVqiimAcjofUz5t0+83Iz7M7xuoYNeo7ns364s5niPzWVxoySWxIePffeOONcctuuOHqDtsli0RhO7ex8aOB69vpbSkk5s+b7SiODRvqcDDrmH94IplwRVg9sWRmqGvXbcKKe5ZF3i4bIEkNbsORefMffTBnnKHSUgNpae3A3NpZ6j3ZALKjswvfm/BdpVDOLSMk5YCgPe64/RZHQSwgrlUZtutyCK16nI9H/igI8hocRnqQCWJDqJAdALz55jq1bPxwyC4UwuaS3Nskak/hziW59y3/trV3hjpmVIjj8khDmmRfydCO/76jeUjr3t0EAFhxV32k7QDb+A3UPFsfWKWH5JVDIkg8uKbugSc/MLe2dqg2FG6qeHt7F26a8F2hXWcVxHIrfyReQxmk/PxRnvsfdf1/9VwumXa62GpUpl0Q/CZuzCfXlG6h1aGC8R4khnQRG0IbJAFNygRXH9NuKMCL2JAK08fLGwrynvyQqZDfunc2p8U7yui82WXxkpqlp+0E5Y6SM8MV5WWeywkhaNp7UL4AAQXncoJlNRuE9Vz7l583Cuve2eS5Ty9igzxWJvJ/fhM3h3KFT3g4UyH6bMX4cVV4e81Gx2tgADwkIJ7YcMP4agDDBildSBQLlx6FX57IHbbTiQ1BITCvEAbXZrXpZhKJkJ2ZtrCJ2zuKmlMYDFUIADjtkT9yfydR6drhv9H0+YOyGWTcEZQRolbIjoBzYhMbtEcQenov+lK/w7SjiHqdpctDct83Vxr1OwiffvppSttHuiP/8NlpyIZdV1tvpGSRaXKDY5bmUP8OER6kySkDOHovDVBi2X1Tr3t3U9q8o1QRNNwwxgFuD1j6IOkO19nvpTfXwaGXDqT2e+l1SOVlghhBKRXXHAiu/85/AQeHyYWCtYip2P+g/i8eeXneYTuoNV3LvDoOB2jaBXnm2aZpN5QYfqtWNDiIDeli2oUaLZ3EBnEpjR+uRwq9bpxuHCFxA4OXcoNXLklWw7v3K70kaZQWzK9BS0u7mE26ZFokFNHAp8jQD4zZQ0XavaiAhn06Tp06j3vuXop7ksgd6fuWj4Hka0kPqbqq0uNdj+8zma/Yd5vMztZlobTwjDhMxpwPU/x1t3QA4tuCJGLaxW9/9Xgi2QKd2JAOpl3okB3gJDbccMMwsSFb4GUcFbGhTRAbgpK9+QGz1CCo+XzU2bzP6vrioH2ue3cTTp0+i7HV6asQTz+SGxyH+pj65Zf/tzPVbD3nTPNGuN1Woqf3InJHXQ/ADqHqodRuzSgpL5P5h8eA+GvdLa4aVkIolE5jyLDdlQYvYoNEKkYp5XjSsFEKh4FKekovqbJSJJ+56+ZjSlQ12QFTjDCJPAq7dXR4peWwhm3dO5txz91LA/oIhQtNyVDTYOWSModw36P+ub2+g0SK8bt273e8nls7A4BQNmeMwWTSQ9L/2l4TB9Dbaxsct1bdMLIbfr2RMm6QvHsjVSd90GGER1gKuHjuzCeVl5co6neQgkKeRr/VwybuGhDuMxuU2wV2I00TLfad9ZsBAPfcFZw7yuZEsqR8BxnUdCAZkd4wkHmkVov6DTiNyJdf/oNwjCzygXqY1kN7DQhRVX37X35sJ8aPHjvueQ6+BASf8LRYFk6tIRPI5usxFXj1RkqF2BB6amgbpdNq2dXWGynTiJSXSlAoSy2mk1+rAf9zyE5vQQ6c77wrvKN0wJ2zyEQeyd1jihKiDFI66sP8dA11EJ/flCR4wPU36GzldVNaWoRP/+43ME0TjJnCKJkmOOMwmSkeplj+wfFfOrZX4rABR3KWHNi1SF7EBi+mXTrKD65U4xIV48aOSTuxITtHn2E4kGyhbGVFGaIwtvzotJwzz9mld41SYpq5Lm4ZhaIb1jsaKvATVh0qagKtrfEeUs2cmfiHf/h/RGGs9XsTSq0gIlHLGOM4fvxXmHjLTXHG9OIXX6rn3T61SIOJbG8PMlCQtUfpJDaENkiyN5LeimK4N9LgIqguCQAqKsrQ7uEhpTLgpdJ9MxW8s34z3nl3M+6+a2nobcLMZDOeQ+LxXpIM1b3z7mbvDbIQfkl6KbIqUVZaiD27N+GFF14RYVyTCY+H2zVu4MDxjz7GqFHfwcSJExzbU0px8eKXjmXu3kjOZpED/30Ne0gCmSA2RL4TP/PoHnu1GqVUeyR50b+T35c/tbyjvSt1I5KGe5DQcHkNPy/r7ruW4u47l6Z+IoMIQig2vPtzjK0ejXfe3ewySmHJCImllzI5ix9dUYaysmKUlRVjT9N+x3EliosL8cKLr6K/vw/i0hRkmC8ufon16zfj448/xa23fs8uZ7Cu148+OgEAmHjLTYETBb9rhGleuEQitW+vNhRhyw+udvgRG5JF5BySjmFig4A0TImMk69St0uOxGtffmE7v1wSAMW0a+8QXpLfTRlYPMjs0IvXzDCKhley4pbKO8qAMXIk3V05pUzinrtF2DHeKHnA+kmzJVS0qG4uWls7MLd2tiNsp+OxR3+MGdMn46WfvoGNjVvRuHkbNm7cig2N74FQgld++gzyrFYT7knKLTdPwOcXv1C/w5GjHwIILoBNBXqOTX7H2ZpLzUZ4ERuS7Y0U6Vsf7o2U3fDKJVVWlimDlE6YAxi2e3f9lkihOh3ZGl4ZWz0aG979OYCQRklDUI2Lnej3WieqlE64wV+2NFfdXBkDJRQzZ07Bxg2/QFFhAQzDgBEz8Pqrz+PelcvFa8MAoVQJ7n700Qn88uMTCY9nt0exC7q9eiKFqTfya9QX/D16n0+i5eH2NbQ8sXT3RkpqGjDcGyn9yNTsVxAbbMQVCHp6Pd7LxfbeBIdMYb3F4kzWO0r0veq1SJmsS/IS4hxbPRrr33kDgDRKWyLvK/698CE7nuAfIUQJ/RAq9yklgIR3XlZWjN179vsekxKKGdPvwI9/tBI/+sE9iOXENGPklK6STydOnKDySIZhoMunm/EwBh/p7o0U6c6ziQ029Xu4FUXmELXFude2ktigkxHcrLljH3wEIL6WKFEc3a6c95qZ2kWxqRiwd9dvwV13Lkl6+2zwkOQZeP2e48aOCTRKnLFIjk2UmX2q4Ixjbu1sAMDjT74Q977sIBvLiSEWEw9hjKhljKgySsd/eQLHP/oEE2+5ybGPa6+9FgDQ2dnjeQ5RPArnNRlOrSEq4uvzBv/6GwikqzdSUlPBzxwFskLTbtgohUNUxYaoDfwcuSZt286O7kjH9T6X5D2HZEgV6zeKwTnV3FFgwW5GckjRPmu1y1M6deocOGNxA6aX5qA7fCXobEmetgf0OiQ52KpllKCiohgA0NbWgd17DljLqdJcNKihjJBhGDAoBTXsZZRQfH7xSxw//iuxLQEufvEP6vgjR45wnI8Mz/l68ClMfhLlN/1Uv69mpLs3UuQckhs33DBMbMg03EYpUV2SjjFjyh2v9ZvOa9AD4m88uZ5juauzbKj4OI822393/Xu4687F4TcYMKQ+GLl/w+rqSpUnu+ueH+HMmQvqUEEhVB1hDam72DWoMNbvnCsrStFqdSUuKxNGaU9TM/Y0HVSfyRb7pSpEp8J1VrPG3s+/wFtvr1f7ve22m1Xo7xvfuA6GYWDEiBEDErZLdC/59UW62pHO3kiRp7zDxIbsh9uTqqwsw77mw8oYCaFLbYCznuqFsX6Dm64eHhZ62C4s0056R3c2JB+uSwhtTMl0Dsnz8C6jdPddS7yNkgamh121yYDX7J1xrwYO0cyprpGqfkNrmZQOkmG7ubWzsKepWTXqk147tXoj6SE6SgiOHj2OX7z5Dm6//Rbk5Y3CbbfeDAC4aLU1v/aaaxCLxXD58uVAg+Tu3cVc11jY63XYQ0ovkpEQSvrO0wtkgWFiQxT4NSdLtS7Jr1BWh0OROIJxEdRY7nt+oZLoDsMUPJtfv2GrwzvSvQS9YVvWKyy7vpYgOj8A3H3XEpUze+fdzZ4N4Rz6gj7GCLAMgcex5TKe4BEWMmxXWlqM2pqZaGo6gLnzG7Bv32FlhACovFFnVy9efX0Njh47jkl33IrJkyait/ci8vKuF16KdS1de921MAwjwpn4I1HI2ItpN1gYakw7v95IyXhIsagb3HjjjXEHGj9+LH7z299FPviVCHnThxkc5WDkjnsTQuJuCkqJY5+iG6fYjhISZ1j09xcvno/7739MaxIXTqqHu8J7MILnL7I54O7d+7Fj1z7HewsWzMGihTWgnIITDkYBwjkoY4A26HDOsXHTNlRXVWJ5vTBIjLH0ey0uQ5GRY0SE/B3vtgzxu+u34J6V92Pdmlfj1hW5FK6a4G3atA2btux0rPPJx4d8DYsujJoMKivKcOZci3ot2XbPPfMo5tbOwK7dzWjaewB79x303L6gIA8/+uFK5OePwuHDos4oP3+UMhzXWN7RV199DQDKQ0q2ED3MZE2tOxyOSwqfnTqjjJFk3504ccIz1eOHyAZpwoQJePrpp/HmW+/ghhsEoeGG8dV48611CbYcRiYhBzNCibqpdaMEAB0d3SgqzA+9T6d6ePjBeseufZhfOwML5s0EIWLwnDZ7KermzwEjDIQTGPCe+W5o3IqNjdtw5/JFoY/HOUtIFuHc37vLKEJNtuNXuuvOxeAcWL9hC97dsBXL6+vEmkpIlCtWpMkYzpw5h48/2A3DMECpgc3v7cZNN0/Da68+h/Ly0gjn4nOGjDsG9bq6Wry3bbd6Pbd2Np548jm0tHaitKQANTXTMWf2VJimYHTu23cYnHMUFOahsCAXpinykiZjeP+Dj3DH7RNBCQWjDBcvfgFCBOX78qXL6hhd3b0oLgp//brP3+eSi1/XulbkJEW/dvSJy6BdU1kGP2KDmw4eBknlkPwwnEdKH8Jc6GEYe4RQjK60a5E4Z6ILHGOARc/WiwH9dMJkSEMuI4j3Anfvacb0mQsxv3YmFsyfZQ2eDADHgaZGPPTIajz8yNMqhyX36W4ZsLxhERqWhTdI4b6HoTNwyG/1rjsXobqqEus3bMGGxq2OdeRv9f0fPYLv/+BhvPzi4wCscBcBGpYtwJjR5diyZVfAEcJDp2l7QYbtJPQOx5RQzJo5BTNnTkGxNSGS78uusJMm3eLY/joZriN2uUlXd69vuHsw4HVNxTFhU5AWG0pIF7Eh+RySTv2+4epuZ55tcA8ahFCMHl2Ori7vWg4AyMu9Xj13hAu1pzYpwr84dl7tTMydO0MYK0Kwc/dBPPrky+Cc4dmnHsaFlnacu9CqwoZ66LBxk/COoiIM1dfxmbJ8jJDeKAHBujWvWkbpPazf+J7yjgBhlM6da8H8uTPx0CPPqW0IKDgo3nzjRZy/0JrRc9XFVfUiWR1+1wqhFN09nyM/P9d6LYxXb+8XluGxc6oTJkxAV1d2FshGMTphGZNXCqISG5IySKo30h+c9UjDvZGyGx1WcWGq7Q38tt61ez9KS4vAuXDCTE6wc88BgBDMrF2OXXsOoKy0GNt3NPnuu6G+Dsvrw3tHQwGJhisvGr8ySoTgzuUip7Rh41acPXdBeUebtuwAADz6xAsAobj59lps3roHDFC5JRvpGQTd5ADZfwsQYbu2tg60tXc7PkNz81EsWnIPXnzp9ThP6+jRD1FQkOfwqABB+aaU4Kuvvgqdg3DLB4VqUx6y9ckwguFHbIiKpAzSjTfemNTBriYMtqsuCxMlKivK0NXVY9cPefQ+kvRZPUdhezJOOrjfLdzS1glOqIgKmmLZs08/irm1M9HaZmvquQe2jZu2YmPjdlSPqUjlYycmk2Sdd2Tn+/xQXVWJtW+/AgBYdd9DOHuuRXhH523vp6K8BABw9lwrOCcQt3b6Q1tu71vWIlFCUVFRrLwkJVJKCNo7ulBaWoTOTmdx9pEjgswwZfKtSs9OhvCIRRX/y1+EQXrqqafQGeDhDxRSJb6kU+E/G5Fqb6TUPCSte+x99949nENyId1GKZX9jR4tCmQ7XfUcnDN4Vat4DezOFuYy/8RU5XxZaRHa2jpEm2rO0W+1qJ45exF272lGzZzpKC0tQllZSdy+NzZuR0P9QowZU5n0Zww693DbeRcKDzS8vKSx1aOVp9S4eYdaVxalXrAMw6uvvADGABPOEGsm4NZJdEN+jiefeBBtbZ3YumWdCMVp1/GUyber54RSNVh/85vfxFdffRW3zzBGyV3aYD+PL+xOJ67W/BGQvt5IKZn74d5I6UGYthRhtg2qNK+stBUbMjVA1dTMQFtbp2BWmYLQsGObSHTOnj0dxcVF2L2nOW67xs3bAQD1HkQGd7zdqy4n3Uh3HUgqZ6mzG5fXL0JDfR3OnbuAH97/GJYunofW1g489eTDuHChDQvmz0Fff781CBNs2rI9bn+UUJRbEwJ5fbn/hgElFP9/e18eJUdx5vmLKPkvLPmNvfYw+AAERlcfVdUtzbD7TFfbjMfjGW6QAJ3oRAaDhzFr/GZn1Fpfux7MHDYIHahbLSEhMJY4jGc8YLUY229Rn1Xd1d0S6IAx3rG94+USz/tQZewfkZEZERmZlVmV1V3dnb/3pKrOyoyMysyKX3xf/L7vIwQYKY4qBHPzzTeiWBxTrGEA2L9vp7IfJRRPP/MjECICZ1WRAwCcfeesM/k1ue0quU9yLJzJVRfVfReVdKbz+lEctZGqtJASYUNcCEtKph+ATkp6jjvxTxY2mH4YlmLxWK4VJGV2MGUIF26+RQvno2HRfGz97/+TtwX3B37jDdc4A9KKW25Uju/s2o+1ty13Azan8Y82LPwmFxvWrcTa25ZjaGjYcdmNjh7H0puuR6EwitK5cyiVSujs3Iuurv34lx97JwDKeWIs6MfJbr5duI+fV7jidBx+6jkAwFVXSRYSISAEOO+88/hzTtTlgVwuh8NPP1e2H2EnaWGKRcaN6eyuA6qvjVSxhZQIG+LHRMhZx4+/4rpy7NeTJ8+Yd2aeNwDUZRhLc+N1bLkPo2Pj+P6TT8GyGA4dfgY33HANvva1b2PpsjW49ZYblfWtrr1clrxuzfJqv1p5TNGxQLiyxGRk/dqVSKebsKebX7snvn8YhDCMFEdRKBRRsix0730Mz4cko0rR3NSAYdtVKFs/Qtxw49I1WLrsNiy7ZR1uXbEBK1Zuwuo1m7Hmtjvw1NPP4eqrPu+Qgng98bJbrpyYbpg2V9EzVfBtrrghyOIJ+myyJ0WTUTSyWixuzVQtbCCswivf3t6Onp4e7Ove6VhHK1ZuwHvn3sNDD3ojy2cqorqVTBJmk0VS7ljTj21P13507dnv2T7Z+Me/+xay2WZQaQ1BrtwpMkAI6BV2CcL5740xNIZLyaT/KaVurj/TQczUBDO9OFDvn0zommCEqetAQnTCmIVSycJ/ueJPvZ2fBjj//I/g/N//fbxy8hSeeeZZZ/Lb09OD9vZ2dHc+6DwT6qubyJXaOfNEEUBRCsPNp+fm1XM/twtcSi5E3YLUn8PAbPxGb0bls6LJziRSDsd6B7F67R0YG3az9qxeeweO9Q6EJvjImRoEtmzZgp6eHrx0rN8hpC/euQkrVm2otMkENUY63QjsAbY9eD9KpRIsi6FUKqFklUBAUCpZKJW4NM79cVOlfAAhFLNScgmBlGcg8P6Y7eSlcLM9K21KPzSLMaMrpR5S+0woDL9fPgACpRJ//7MXf2QrIbV8dpoS0mIMpXPnwOz7fc4qgTB+T86VSp7BQgzy/oO4fV8pwWf++Fp865tb0Ni4wD63W3OIMX4+UXtIZG1gFkPJKjn7lkpufsNNm+8BwM/7jrSGJGNs/GUsXHBZddc3QewQwgY5hZBA2BRCVf/CE2FD7aFLRSklzj8/6GtJMmS3iJqZIf5EpfLgJkoQuP+8j99k+PUnEn7WURQQQh3il60DKs341WurknxQxoXK+qOuWVKiWRFOnyQyk8iNSvsAwJzZ78c775z1nKeSeCRBhkms0cRBdttFrY1U9RqSjETYUH+QB6JmW/otu37E32aT2sc1KF4Z06Tg3iSx1OMOocqApWPqDxy16b9O3oKUIJGS+KfLxtV2dJEMrciNJLdTGC56JhKEeuNt9OBXva0TJ/hEafac2Th79l3jGJPL5SqOR6q2erEM/bvVSzqjycaSxVlF2CBSCIUVNlR1FZPaSOVRzpKJo30Bvx+FPFik04344XM/BiDUcZZCEEJhB0DJNxe9X6JN5vQhzll5JZjsheo4oK9byJaS7NI0WZry9ReJeKtFutkVNoSBXiOJv+fWkiAk8T38AvDHx1+umEgT1BaLW1WLKKqwIRZaf+mlPqWISlIbyYuwxFSr5JG6C88v/5t8bpNbTSXA8rNE2ToSbRrPG9D3ODHZpBTn5MQZ0LV1u0qztEeFTnomC8hxKWouQ7d/xLNNFhXoaGtrw5iW8SEq4rSUEqjQY5HEtrDBsVU9rSILr3LyJUlJ8yBEISbvNvMPNajEuY7b1ix3gg+Fq47LSlU3HlDeQvIGrVb3I/crkjbZJFIbVPed4lZwVYq0FHANuKRkcsvKMUlC4SbeA1z8Mnv2bADA22+/7euyA4DRscpJSV/nShA/5BRCAmFIKZa78t3vbXfeJy67+BCnpSQya4vB/cQrp8ocYbaQAP9gSq/stUyNIstVV/mVnJbVY04evSlEUP49DQ5wFogi8ojruphie/zQ3NyA4eGi8TNCVeGFcR97AkUowfjxl/GBD8wGoRRvvWUmpOA+a+ERzDyhkpWAsuhBLociZ1SvFHVZwbjG8KuNFBZVryH5ISGliUVYV5AjbLDcAm9+goZq831ZIrsqb845b1yIZA9Mg+WGsu63CJfWI0IgqiuWhnCzqsdTaU3IvL+utpOtJABOFpG33nrb9zxizBkfV4UN+tpaYF8NcUh+mFGhBjGhmtpIFcchCeRyOeVEf7iEK+0GBvLIZqtPlJkgfqTTjXho2yOYO/ciAHx2efvGNa7LjadC8+QeKwcut6VIpdSBgVkWQN1ynRaznIqxetwRsyxngIhSkTNM1djJAEE05xxz/ouC4AMoIShp2w4ceBIjxXGeWNd0OLFrKxHnD3uz2CbtaDqcEnhOGgBx7+bMmV3WOsrlchgbP1E27VE5svHDdA89mCyEqY0U2y9YyWu3pDURNtQQYVLY62tJfnFJTCMEy3FjVGYhmTMkhH/MFAHENB0Y+DWqvTvHqLTTSNuYnscEZnQyOu/2PfqE076unlPipZyYI9VKEdbRnDmzQRBc4iZs+Rs/l12Y4xJUDr/aSBNiIbW1tTknErdxyZIW/Ozn/6vaphOA/8CrFQvoWLP6Vnxp6KvYuH4VSiULqVTKETX4QbZqBBjjo5RlMaTsj/j7YAtpKkGXxZsQlV4qXVuIK0s7IQTLbr4ey1MpZ/1EXyuh1M68USblDgD8xT1/heGRIihd6nw3SggsCqBkW0tS84RSUMtCSdSCogRjtkiBEIqaWq44AAAfVklEQVS33vZ32QHcQtq6dasnWFxHWIWn6bgE1UPO2GBS35lQtYUkTOtE2DDxiJoJXMfJU2eU7N4mMEONoCgLvVFnm/q5lNiaGe7Pr1jCzWor/w6CIuf2SNLlzA0Ec+Zwhd2bb74VStAwOna87D5B/UlQG1RTG6mmd2fXru6EmGJAnGsjlBAlYwNgmrGXWZMIiE1S39NIfnyGyRs4JxKVxiKZLCQlbkwTJthH+bVW0fl0UMLLmhQKXGkX5rvJz4QgpbHxE5gzZ47zbJVbQwKAUbtUujhnPa4hzlT41UYqR0ixiBoAdw3p2LE+fPd729Ha0sxLUdhii/XreLXL9XbVywTR4Oe6I4QoKjnx45RJRj9WDCKnT5/BJz7+Me5uU1RwDBb1uuiioXK3VBykZFkstiBUYRH69auWKw4mC1O/5yZEcyH6BEmHvA/pZrVyLKUElkVBwd1ylFBY1AIrqb2ihDjfb2zsOD7xiY8FKuxk5HI5jI4dB6VXe84tv4rvkbjhJh69vYPAZnVbOWFD1YQEuEq7Y8f6sGLVBty+cTVu37gaANDXP4S+/rzzuuuR7oScIH60tRvK9PZNhHbq9Gu44lNc9s3gkhEQzrVRqeggqO2ZMXgERCdFXjP0tkUpRcloTQWvdumqRmZZsCgFtYAwc5N8YRTNTWp5ekKJI44R4gbLsgDGnLUki7r9e/PNt4wB936QJx5C5SmefWqvZcrfw6IWqEWlV4AGTILCZpmvV5XnROOYlMfuWO8AvrdtFwDgzs3rQx0fCyEJYYNORgDQ2pJGa0saAN/28I49zuuuR7qRzTYjm2nmrzNMJl5rUgpCOt2Eo0d/av/FtFcuYiCMIBXg1RWihrKwZeT1gnJycsLF0HWPavtoWVYstyWTbiy/kwbVOuIKuw9+8Pfw29++Eer4LVu2oL29PVQuR/W80Uhjpq9bhsWx3kE8uO0Rx023uKUZIwMv4LYN96C3P+/EJdXcZQe4qheAE01f/5BNRM02GbkQZHX7xtWO1fTwjj2Ja2+CkUk3oqvrUVs9p0mBnbIA1FDKQNqvQkvGpNgTcGazMVhJcbrtJgway8gDdyUwxSAFnj5C7JeMTLoRhcKIx0IqB0IpRkfHAQD/6UMfwunTr0Y6vjh6HIsWzot0TKh+BU1YiMEtGJLoKr2+9QgTCXXueACLW13D4gubVuOh7XvQ2x9OSxAbITHG0NPTg56eHmzduhV9UgdkEpIhrCexXZCZcO0J6ykhp2D4rSmEscBOn3kVl116Sa26ZkQ5l10UTPxPe/JsJ0KpIjSQHXBBxOW4xqRtog4Rs5jHQGaMp9ahqZSzzbIsUMZdXSmSUvYXKAwXlWeREL6OxN1i/FhYcNx24k47A3yK4o033gylsDPtE8ZtZrHyMn4/CGtJkIruLpwJLrswJNTbl1dIKJfL4ciRI877IFRcwjwMOjo6cPToUcVM8yMnHbJrT2D9ulXTzrUXxWUXtLYQdBvlc8httOX+DG1X/Gdc+Wk10FBYSKlUCrPeN0up7ir+EbvgnohLUSvHqgXkRKVYOY7FjXFxlXhEqZvkHg8Y0tkQHtJZbpbqfK4xlzNLNV42zWXHRFvU68xTEh0wzzFBFaVM954x732WicbJ/ydqWoEnxLVswYB4DvgaEnP3syynOmypVEKpVHIIScQhuUSi1rGSiyuaSn8DwO7u/RgYGMb9396qqDcZs5xAa7mSrHy+g48fxk+OvIjLL1+CZ5/9p9A5+drb2/GbX/87Ov7mXmebW7yQVzYm2vcIU8bc9OwBpnLm5S2kOJPgTpb70ERCX9i02khCANDbn0cul3PWAqPkJIzFQvJDR0eH573s2hMuvbCuvb7+Ia7cQ+LaiwPpdCPOvPpvvp+XCyT0W0PySyGk7GMxwPB5kMrOtMAc5JarubuuRlO5SoKha70eaTFXDGByt2aaG9HVdQBAeRWgIm4AMDo2jg9/+EOhraPwfWZV6URrhangtotiCQHVkZCMmhKSDEFIHR0djmvv6NGjigVUzrU3HYURUQYSeRZmqs4a1dhNp5twtOdfzecKlVDTP4NzpWQQ1mVXrvVakFFMubRjaSV0S9JOlFKUSnxFidguPkopUIqyysRhMWYr5FyLwgST206o7gQpFYvjWLhwPv7jP36LpUtvDt2Htra20JVIJwtTaR1zskhIxoQRkoxcLqd03mQ9Bbn25M8U194UFUbENbsVg0Lw7NQd8IWwQflcqxXjuC9qVDhQh24hhZXdAtPHjx93qigdjsspIOO38Tjp2dBddpl0EwBV+h30XIsJlLi3TU2LnODasBBiKiFs8JQ/idEKma5qu3ogIRmTQkg6ZOspLtfeVIt5ikpK4scXZvAyBcvyNvj202dew9y5F7rbHZWd2f+t+Nc9BQe9ayzlzBkx2wYNX5Z6Krg9zPCPBRJbw7vs4rG2KCEIdTaLeeJ3LIWUyivtnCBZi9+/xw7+AADwvlmz8Jvf/J9I/Y57MAxCuYnRVJoM1RsJyagLQpKRuPYmDml7VgvwwUZ30wnJN6XEQDzVQxCRU24CKncFkc7UJKPyIEDV5bWDaMq3VIO0pqNsDyEEkJEvFLEShgwidrJVJ0hWCpgFgFnv44QUdbDL5XIoFl3pd9hntJygQUAXNExV1DMJyag7QpIRxrUnrKaZ4NqrBTKZJhzp+Snmrl0uuWPcHyv/gUolBSiVSgmEXO+pYF1Ir5Oko5yF5PHdVxmcyxV2opfVWCYBx7JoLQurWraoZFeYUiDRAL/1Ddf6LXffmPI+nW5EZ9d+z17e1FWUB17b577gD87Hr3/NraNKBr7RseNaTj91DdOksKsUQWtl9YapQkIyair7riV0chK4feNqo2tPhu7aA+qDnCpZR/LN0m24rab27/7SV/DG/30TG9atBCBLvlWZN7Wl36IsgbOuZFtOfBCALfsWEnBXPm6aaadSbtCtLv0WZKSXwHYGS5SX3yqSb42Qosq+XUKSDvJIu8PIvqVsGNr9ELcsrOybwS0Z4pTftmXc/H3JsUJKjMEqlWBZFkq2/NuyGFIEKJVKtvRbiA34tfFK84PLUAzlR/DFu+/D8z8+pJSbd/ooScAFrrrmFrS0pEFA8P7ZH3DiVcKio6MDW7duxfcPdjp9F4RktH6oGq4QZCGZnjsgemBsXNLvMFbaREq0a4G6tpCCMB1de35rPUGotl7SbWuW4667v8LbElmTqSg1bRdYk9x1nvIB9gBgb/G0H2Tl6C67MIgq/fZDlDUo9XxTZf6mrRdCHUhLUqJTETgrJ+yIKgiQ9x/KF5FuXuSQkievoggmFe47EBAavvCeDCFsEOdRLCWfGKRQ38fnmaxHV/FUtIT8MGUJSUYU195USGc0GTnuTp95DZdecjE/v6TCInYKId4vNTBQhmwludvqyI0RwzhSrbOuZgjRqbj6bVpnFMjaOe3y+RGkmxcZj5czSowUecqgCy44H/0DQ1X1qzh6HI0N86tqYyphOpGQjGlBSDpM1tN0TmdkspJMEnAT0QlhA9WsIz9JsCCZOAqd6e6SitupYE0gaKbrN3jXJRlVAWE1RI1DCrr32UwTCsMjAJY5Qgm+psVLUjBmOc/W8DCXeX/0Yxfg6Wd+VNEgKY4pFsemDSH5TeQqJSEAOHLkSN2SkIxpSUgyhPUkk5Ts2gsX82R27QH1k84oSr0knZQymSacPHUGl1xysbt2Q6X1Ic1d51pM+qDOF2rE+pEfql1YjgOVyMYny0Iy56mLvyf6JKScu0u2pAHVWvIL1FaeU0JwwQXng9jma6UDZi6XU6rHTpVAVB0mIpoJJCRj2hOSjqmSzqiWbjtT26dPv6oMQFQKhnVym0mLvC5JUeiiBuc8jssvnMKJEuIMs7rKburGHYWHo70IWBfUE6xWA4tZoFUk1zGl5ll723LceddXlG2u8s9VBQLA8PAoPvrRC/Dvv/rVlBs4a4mZRkIyZhwhyZiOwggTTLNVmZTSzY3o1DI2OMeatpWZgTqBsxGl1laVpFOP0lsVMU4wCAWqELOUz8oQfC2FQk3f32Nl2W47nZQA7rJrbc3g9dd/ic997s8r+RoA3NpI9X///dHXn5+xJCRjRhOSjDDCiOmWzki4NrLZZnR2PYpTp1/FJy+d6wwursKOuhkapBgP1ToSGRwm1oqpOGdevVlbk7RARQkBIwRWSMur3NphOmKxviVLWtDfX52gQWCkOI6mxgUAzG5EATn9URDiCIoNknz39g3hoYd3z3gSkpEQkg9mUjqjTMbN2CCvGcjg5Qio4qrTIX58cmClMf2QX3ZuyWXnOWaaRMyHhTeYtLpCfU47trgAhrJ9Jnegu04Uft0vm2nEnu6DWLVyqX1O10rifwN79z3ufPb667+sanD1OzbOXHZxobdvCNu2dyoktHv7d7BkcVraZ2aRkIyEkEJgJrj2hLDhsssuVSrGBmVy1q0jwJy4Mw4BQ9my42GzRtThIBU3CHGDbP3ALSNvuiBFmCBZyuo+7t9+g36+MAxClvkIG6TjKcEvflEdIQGclA4+fghNjQt8xBnmNcwo6s7Qgdga/EiotWXmWkJ+SAgpIqLEPFXr2qskULYanDx52hEzAHDcdYD6Y6zEVx9FJm5Ss9U/kVR3j6rMbOTbC6IIWAzkQCkne8tSLDBhrepHKi1QavzWXNhwH2+fqFm9BQEWhov4oz9ajP/9y8kXNFQadhD0OxDuuN6+QQBmEhJhKNt2dM9oEpIxZVMH1SNqnc4oDDFVWlV29+59ePHFn+HuuzYhleLaqffNmsVddXKFWMUqUivDCs6YZR9vUtj5JecU7xmgrFlB+lu8ByRXko8LUZmtym91YjNcEr0qrEymymdKeiCtIWPqIPUvtZKvoR8+KYSYZXGyYBZvg7n7liyXRuQqrSXGtzPLQqlkgVmWk+GCp/OxlHOI+5OKcP8EBgbzuPOu+/Cd+7+BdPMi5bkThPTZz92Ayy9fwt9/9k8V9Wsl6OnpQXt7O545tM/pTyWVYgE1XVXYKrGUEg8JtWabsHnjKixudX/3fiS0ZcuWGUtCMhILKUZMhGsvk2lCJuPv2gsqSyEPxjo5ZTJN2N25z3HV6cfQEK4J/pkm+45R5BCUKSJOTFS8kaw4q/ic2kHGcAFKQC2JbCiBxfg6kmUxhbBldxclBBAWsfRqspxkBD2f8vNx4YUfx7+99ovy3zEChkfG0WSXvwgiIz/IJCRv4333klH/QN5DQo88fD9aW5qc/UwkdN7s35vRlpAfEkKqEaK49iKlM7Kxbi1PhrpunVkYUa5ekl8xv5OnzmDevEtBbYvITXiq5q0zWUd+WaLLDgKGdQvn2DhEDHH5w+oQpozfAGJhVB5nRGAxXrZclDEPM8nIZhrRvfcA0s1f93y2p/sgAGDu3Ivw85+/FMugHPfAbiImgf6BArZt7/SQkG4JMcbw8M69CQlFQEJIE4RapTN6ZPdeZLPNyKSbjOQUNvmqUNoRERSrWDrhSSFI2RQ6sWWA2k7Zz0+tN9mR+lPECU5ta4cAHtm37MLSy5JEhWnyc+GFH0cqlcJrr/0itgE6l8vhwMEf+ObRk1GuDpLcd0oJevvzeHh7F/r6XRLate1vHYl2YgnFg4SQJgHCejp69CjefusNLFw4D3v3HawondG27V0AgO07u/HI7r0AuPWUzTY7rpOw1WUzmSY8+8N/xsIFlzllIExiBq91RJx0/wJy6XMZJt+9s7/PIvlkwgnwrSWqbL+arB61qnQqCxsExLNUGB7BxRdf6Kw1xgnxCJZbO3L210IT5LWjvv48duzikz/AJaEW2x1HCUFffwEAEksoJiSENIloa2vDs888hVUrlmHvvoO49y+/iPHjL4NQopBTkGtv04bVzmv/ALea+gfyCjkBQa4986zQJQp1VlzO+jAmZg3hu9chW0lB7pOoqLcURJQSgEVRUvLKvsywP7eGoyVKVY43xCFVi3xh1FPSPJ8fQXv7p9Bz9KdO9uk40NbWhq1btwYq5vRJkIB4xvoHCtj5yF4n+3hLphE7Hvo2WrNNzvPbL5FQ30AhIaEYkRDSJCKX47VcGGNobFiI4ydexrVXfx6EUlx3zZ/jlZOn8I1vfgdn3/2drzBCnh23ZNNoybqEtX3nHvuVW0+ZTJMkjGiCjnVrV+LOL97rG9AqIAfARk2iapLYRglgrCcykaEQiv123ca70Ns3iMWtGbS2pMEAbN50m5HUhftsImthOe1QAOdscYW4vk61QP45hR3cxOz7xZizD6EU0HIPtkjCBjl8Qby/5JKLcfrUmar7LkP8noZHxtDcuNBoHZmUnYNDw9i1ex/6B7jLLZtuxMPf/R9obRWWEEXfQAGUEIWE3j/ngwkJxYyEkOoAheFRAATHj78Cco3rMli0gKfTv/H6q9DYcC+ePPQsCCEe1x5jzLGUZMjWk0xOAsJ6Wrt2hXLciROvYP68T3J3myRmUN12qptDH2PV4MnyxFRN+Qml3Rqo+spBJ5Gm7KcAAK0tzdi8kVumff2D6O3js+7Nm26z268NuVJKYJUCiI3BLtJnu3OZNxNEuYJ2HleXYaKQzTRhT/cBZNJfd/olMHfuRXjhhaP4b3+di/jt/CGIgRCvq05UJxbP3dDQMB7pfFQioQZs+8dvAQBaW7g11D8wDADY8cij6E9IaEKQENIkwn2oCZYvvxH3fXWrm1mbEPzg8DMAgEWL5oFQipuXXQ8AuGXZ9Tjw+CEArjx8+85utLY0oyXbbL+Gc+0JYYQgJwDu2o/PgKlnZXC26357bQ1Jj/cQ2+T3TGo3yALziz8KQi2sK7k8d1//ENZtuBvZTCN2PPS3SIk8gM71oFiUyTmEVEml26ighKLELADcgrEoT8rKXZcUpVIJs2alUEKpfG43bf2Fb/O//oS4azoCXXse4/2iFKdPv1qTgb1QKCLT3OCxjIbyI+js2o+BQe5yy6Yb8NA/fBOEEGSzPAff4OAI+geGsXP3o+gfHEYul8PshIQmDAkhTTJyuRz2PXoQK269CQDw8isnsXDBPD6QE4IFC+Yp+4sB/9abrwezGG5Zeh0Kw2Mojo5heGQc23d2Y/tOvu+mDatACHFcfGFcewBw6PAPsfCr8+wgVW8grNIfhYTMcUeykMHdZg6qDEawfttvcCeE1ET2LZMRAPT2DmL92luxfu1yHrSKFAgYwHgCU0IIOnf9A5qzVyA/8KLThh8RRHHJUUrsoNjwEPcXcC1ap6x4QOxOkMtV3m/92pXYfOe9yqQhXxgBAJw5/WqkvoZFLpdDYXgUhPKwhXy+iK7uAxgc4tZOprkBD/79NzgJpRtAKMXA4DAGBoaxq3M/+geHnXYSEpp4JIRUFyBOlmRhVRBKMDZ6HIsWzkMqlULKMGiLxe2mxgVoaJiPZUt5FP/BJw4DcAlGCCNass1lXXvZJZ/BggWX8Vkl/DJ624vCPkQiW0f6rNrPVVd+HUmIEaIFFVViFdEK1H69fYN4eEcXfvbis7Ashs13fgWDQ3zw5W47fu2Ys/8AFrdmAUjEVq5fmlvNdEBYEiOEIEWBcyUoUbm1KJw4ODSCTLoBADA0NIy5cy/CqVNnajLYt7W14anDT+Iv7/0bDOX59U83L8J3H/gaJ6FMI183yhcxmC9i5+79GBhKSKhekBDSJEPUcpk1axbSzQ04dOhZNDUsAqEExdFxLFzoSrB1v77FLIeUxIBuSa69ZTddi4NPHAZjwONPHEZff94hqU0bVnlce8JSuuH6qwAEu8PUJKrlSSKuNaIoqKUAQreO+vqGkM00wWLA7s59eP2Xv8J5552Hs2fPYtsOfs1lheTD27vQ2pKOKLn2U9Z5CYiLXdzYH1mZJ9R0DO49poTCiiCQCJPFPZNRS1EIgp4790KAcPKIGx0dHU7w+d/fv9WxhCilGMoXMZQvYlfnfgzYfUlIqL6QEFKdoFAoIpNpwksv9SOVohgd5yWZl950LUQFV919Qi2bmKhllAEDnJQsxnDTjVdjZGQMxdHjKI6aXXvbd3bjhuuucgcpaZ3GG3ckl6kw9I951xzCJLGMq2RA5WQUPa2DxRgYY7AYQ8kCOrsew0c+8mFcfNEnMFIcAwAM9vU413X9xrvh5pvjcUBRLbJA4YJmRHGy4XJwbxkLBkJS5lRTVVpLlFC0ZJuwp3s/splvIZ8fFi3j5MkzuPzyK6pq3w9btmzB1q1bMVQooiXdiKF8EZ3dBxMSmgJICGmSIX4UdFYKmXQTOrv2I5VKYXSUE1KKcnWQKbDP5iNOTCm7JLU9rliMeeJKFi2chwULLsN1134ezGJ48tCzYBZTlHfXX69W7vQjo3JQ8uH5rDno7jpPzSPlb0kBNtmZGALAALzw/NP4zJVX4513zgIANm5YjXMlBkp5TaC+/kFs2rimRmePvovFLCMFM4tFIiXT/tlMM3q1AnxXXpnDffd1VJ1Q1Q9ymq6ubl53KSGhqYGJ96Mk8CCXy2F356NYbLt0imPHUSyOY+lN14JQLllVMhRLFS+FZaIqiryWifxe7HfdtX+G+Qs+CQD467/6Mvbv26lYR7KIQSchWchQTiIcFv7DqfkTua+uNWdIATMB/LVp42oMDQ1jaLAAq2Rh5Yqb8e677+LFnh9h9eoVOHeuhFLJtb7kMgRBcF16MaWL8LkW5YhHtsCZVKqCaWUrdLRkmzE0NIzBoRF07dkPALHHH5nQ0dGBI0eOgNnWa0JGUwMJIdURCE0hm2lCsTiG4ZFRZ7Dnn6lkRGwZsSjxIJOCnl6f728IxiQE4+Mv48YbrsaiRfPd7drgJMu8hatO+tT4XaKsR4i269fu8UJxZ9rXuSXbzAddQrBq5c144fmnYTELVqkEy7JgMQsbNt6FjRtWo8VQiiTY8qv+6ghXqo6gYFxRwqJSZLUA7CuvbMOpU7WRe+tICGjqISGkOsCWLVswMDDkDEgHHnsSANDQsEAiGWK0CAAoFlPYrNoA8INDP8Thp55z/lYtDa+rTm1LWETmwUy3lvzWhuTtppaC6tFMPIKtlJ3b/w75/Aj27XvMzl7gJjwYHCzgC3fcg/6BIWza4KZx0tfryiHq2pirTHQhCFTkINz36BMoFIrOZMYPnJyiW2ot2SZ86S94Xrs/vvLTOHXqTE0EDQmmPpI1pDrC4NAwNqxfhc13fBkA0NS0MHQOOFltRSgBtShKcPOaMakIGwB8/ZsPYGzsBA4e2C3tY2kuOy3rtyJkgHMuwCUgh6hMkuQwa0+efbxrR0KOLm/j12BybSxCKbY/9AA2feEe7Ok+YEv5eZ+GhgpoyTaj/9gLZVMzedq1iV8vFaKXnvAtRaH00ZwHD/Z95YrNkBkqmH8MlR9oiuDkqdORjkkwc5BYSHUAOWODGHMaGuYr+4SdSetBirqqymIMo2PHQSnF9x/v8lhF4hzy4O5V1Yl0QHDei/OVgzM7lwNjNTGDcR2oUtSQo3S3HQAs+cMsBo79BBvXr8aS1ixSlCBFCXpfeh47Hn5AjcEy3FNxP4LuMyFm15tf/wCvxco/F5V5ge69vEZRWBFDlCSsovLxZz/7aacfiTstgQmJhVQnyOVyGBgsYO2aWwAAIyPjuPraFWWOqhzymhHgtTRkctDXjdR0QCoZybJvU6qgeFA/RSpEhgRCKCjsMuCU8hyDAHiZEDf+xyXhaK66siAU8Mn0TQjxWFd8G+9vvlBEoVDElX9yQzx98cHn/uQz+Ocf/wRAQkgJzEgIqY7Q3z+IdWtuxc//9Z/w3nvv8YVw+59YXBZ+fMZsdZPtfhGxMDLE3ym77oxYnGYMsOwZrlHsoJGRgKykk5V8HjIywM9dF5gtXJN71zsc15nIGeeAfwedjCYcUjYGZjHn/hYKRaxcsRS33nITAOYEzYpjGOCUtShZzHH5WazkxEJZzIJl8WPPlUqO+o4/vwwMDL/73f8DIQkZJfBH4rKrE7S1tfFqlHbaNQI147InsaUzuJhvocWYM6g4pCYCOAPcLbqIAAgXrKonUS2XSDUMJmNFqJK6S7rbU1Y+yv/EZ84xoa+HKUODLvLQLSCvXDxobYgQqS0p9s2tSaVOTMQ2WW7vnocYFX2zUrPwysunEkFDAl8khFQnELPGgcGCHdQqqml61W0ymM9ninpNsp4qrSzqRfyWiz4868Qp9124m9Rtk2tNmYhJ/qfvI1C+1+GpOSrp5+18b02NDQCYL8F5t4TotfY9U7MoXjmZCBoS+CMhpDqB48ZgQcNPdTZD2MHbWEXW467zChmc9xF4IQ4SqSdSArzChDBChWBU9p3CHCX2aWpa5GyQ49+iNui3CwFw4vhJAInLLoE/EkKqI+RyOQwMFUBSKU49AbE7rjvMPATIwYyWxQyWkXfNyfmkikHd5KIrJ/f2W/uaSFBKYyuTrrZb+STCc2wN1p7y+aLbfIiEqQrs2+QQL/H/voSkcOLlhJASBCMRNdQZduzsQl/foOuSkkpFA+5gzV+YREcMjMnZDpjhnQRncUDdTPR3BJBbdccsIu/i/i+15x3gvPv478v3N3Oyfzv+bVUKpl6/CeRK06lcsvaWofASu7cVdxemtPLl/7rFfmcZTy63xQzbuBhC7QcDk/bhk6eEjBIEgbB68HEkcNDe3j7ZXUiQoGY4cuTIZHchQR0jIaQECRIkSFAXSNaQEiRIkCBBXSAhpAQJEiRIUBdICClBggQJEtQFEkJKkCBBggR1gYSQEiRIkCBBXeD/A5BrEAFUn94IAAAAAElFTkSuQmCC;" parent="1" vertex="1">
          <mxGeometry x="150" y="170" width="244.04" height="380" as="geometry" />
        </mxCell>
        <mxCell id="B2emX07kh6PidSc0l1N5-39" value="" style="ellipse;whiteSpace=wrap;html=1;aspect=fixed;fillColor=#e01b24;" parent="1" vertex="1">
          <mxGeometry x="254" y="280" width="15" height="15" as="geometry" />
        </mxCell>
        <mxCell id="B2emX07kh6PidSc0l1N5-40" value="" style="ellipse;whiteSpace=wrap;html=1;aspect=fixed;fillColor=#e01b24;" parent="1" vertex="1">
          <mxGeometry x="525.64" y="280" width="15" height="15" as="geometry" />
        </mxCell>
        <mxCell id="B2emX07kh6PidSc0l1N5-41" value="&lt;font size=&quot;1&quot;&gt;&lt;b&gt;&lt;font style=&quot;font-size: 25px;&quot;&gt;\(C_p\)&lt;/font&gt;&lt;/b&gt;&lt;/font&gt;" style="text;html=1;align=center;verticalAlign=middle;whiteSpace=wrap;rounded=0;" parent="1" vertex="1">
          <mxGeometry x="375" y="230" width="60" height="30" as="geometry" />
        </mxCell>
        <mxCell id="B2emX07kh6PidSc0l1N5-42" value="" style="endArrow=classic;html=1;rounded=0;strokeWidth=3;" parent="1" edge="1">
          <mxGeometry width="50" height="50" relative="1" as="geometry">
            <mxPoint x="254" y="287" as="sourcePoint" />
            <mxPoint x="59" y="287" as="targetPoint" />
          </mxGeometry>
        </mxCell>
        <mxCell id="B2emX07kh6PidSc0l1N5-43" value="" style="html=1;labelBackgroundColor=#ffffff;startArrow=none;startFill=0;startSize=6;endArrow=classic;endFill=1;endSize=6;jettySize=auto;orthogonalLoop=1;strokeWidth=1;dashed=1;fontSize=14;rounded=0;" parent="1" edge="1">
          <mxGeometry width="60" height="60" relative="1" as="geometry">
            <mxPoint x="382" y="250" as="sourcePoint" />
            <mxPoint x="269" y="287" as="targetPoint" />
          </mxGeometry>
        </mxCell>
        <mxCell id="B2emX07kh6PidSc0l1N5-44" value="" style="html=1;labelBackgroundColor=#ffffff;startArrow=none;startFill=0;startSize=6;endArrow=classic;endFill=1;endSize=6;jettySize=auto;orthogonalLoop=1;strokeWidth=1;dashed=1;fontSize=14;rounded=0;" parent="1" edge="1">
          <mxGeometry width="60" height="60" relative="1" as="geometry">
            <mxPoint x="426" y="248" as="sourcePoint" />
            <mxPoint x="525.64" y="285" as="targetPoint" />
          </mxGeometry>
        </mxCell>
        <mxCell id="B2emX07kh6PidSc0l1N5-45" value="" style="ellipse;whiteSpace=wrap;html=1;aspect=fixed;fillColor=#e01b24;" parent="1" vertex="1">
          <mxGeometry x="525.64" y="487" width="15" height="15" as="geometry" />
        </mxCell>
        <mxCell id="B2emX07kh6PidSc0l1N5-46" value="" style="endArrow=classic;html=1;rounded=0;strokeWidth=3;entryX=0.112;entryY=0.368;entryDx=0;entryDy=0;entryPerimeter=0;" parent="1" target="B2emX07kh6PidSc0l1N5-37" edge="1">
          <mxGeometry width="50" height="50" relative="1" as="geometry">
            <mxPoint x="530" y="488" as="sourcePoint" />
            <mxPoint x="410" y="330" as="targetPoint" />
          </mxGeometry>
        </mxCell>
        <mxCell id="B2emX07kh6PidSc0l1N5-47" value="" style="endArrow=none;dashed=1;html=1;rounded=0;strokeWidth=4;exitX=0.086;exitY=-0.005;exitDx=0;exitDy=0;exitPerimeter=0;" parent="1" source="B2emX07kh6PidSc0l1N5-38" edge="1">
          <mxGeometry width="50" height="50" relative="1" as="geometry">
            <mxPoint x="180" y="165" as="sourcePoint" />
            <mxPoint x="620" y="170" as="targetPoint" />
          </mxGeometry>
        </mxCell>
        <mxCell id="B2emX07kh6PidSc0l1N5-48" value="" style="ellipse;whiteSpace=wrap;html=1;aspect=fixed;fillColor=#e01b24;" parent="1" vertex="1">
          <mxGeometry x="254" y="120" width="15" height="15" as="geometry" />
        </mxCell>
        <mxCell id="B2emX07kh6PidSc0l1N5-49" value="" style="ellipse;whiteSpace=wrap;html=1;aspect=fixed;fillColor=#e01b24;" parent="1" vertex="1">
          <mxGeometry x="525.64" y="120" width="15" height="15" as="geometry" />
        </mxCell>
        <mxCell id="B2emX07kh6PidSc0l1N5-50" value="&lt;font size=&quot;1&quot;&gt;&lt;b&gt;&lt;font style=&quot;font-size: 25px;&quot;&gt;\(C_g\)&lt;/font&gt;&lt;/b&gt;&lt;/font&gt;" style="text;html=1;align=center;verticalAlign=middle;whiteSpace=wrap;rounded=0;" parent="1" vertex="1">
          <mxGeometry x="376" y="80" width="60" height="30" as="geometry" />
        </mxCell>
        <mxCell id="B2emX07kh6PidSc0l1N5-51" value="" style="html=1;labelBackgroundColor=#ffffff;startArrow=none;startFill=0;startSize=6;endArrow=classic;endFill=1;endSize=6;jettySize=auto;orthogonalLoop=1;strokeWidth=1;dashed=1;fontSize=14;rounded=0;" parent="1" edge="1">
          <mxGeometry width="60" height="60" relative="1" as="geometry">
            <mxPoint x="381" y="100" as="sourcePoint" />
            <mxPoint x="270" y="127" as="targetPoint" />
          </mxGeometry>
        </mxCell>
        <mxCell id="B2emX07kh6PidSc0l1N5-52" value="" style="html=1;labelBackgroundColor=#ffffff;startArrow=none;startFill=0;startSize=6;endArrow=classic;endFill=1;endSize=6;jettySize=auto;orthogonalLoop=1;strokeWidth=1;dashed=1;fontSize=14;rounded=0;" parent="1" edge="1">
          <mxGeometry width="60" height="60" relative="1" as="geometry">
            <mxPoint x="426" y="100" as="sourcePoint" />
            <mxPoint x="526.64" y="127" as="targetPoint" />
          </mxGeometry>
        </mxCell>
        <mxCell id="B2emX07kh6PidSc0l1N5-53" value="" style="endArrow=none;dashed=1;html=1;rounded=0;strokeWidth=4;" parent="1" edge="1">
          <mxGeometry width="50" height="50" relative="1" as="geometry">
            <mxPoint x="406" y="220" as="sourcePoint" />
            <mxPoint x="405.58" y="175" as="targetPoint" />
          </mxGeometry>
        </mxCell>
        <mxCell id="B2emX07kh6PidSc0l1N5-54" value="" style="endArrow=none;dashed=1;html=1;rounded=0;strokeWidth=4;" parent="1" edge="1">
          <mxGeometry width="50" height="50" relative="1" as="geometry">
            <mxPoint x="405" y="560" as="sourcePoint" />
            <mxPoint x="405" y="270" as="targetPoint" />
          </mxGeometry>
        </mxCell>
        <mxCell id="B2emX07kh6PidSc0l1N5-55" value="&lt;font style=&quot;font-size: 25px;&quot;&gt;&lt;b&gt;&lt;font style=&quot;font-size: 25px;&quot;&gt;\(F_{res}\)&lt;/font&gt;&lt;/b&gt;&lt;/font&gt;" style="text;html=1;align=center;verticalAlign=middle;whiteSpace=wrap;rounded=0;" parent="1" vertex="1">
          <mxGeometry y="265" width="60" height="30" as="geometry" />
        </mxCell>
        <mxCell id="B2emX07kh6PidSc0l1N5-56" value="&lt;font style=&quot;font-size: 25px;&quot;&gt;&lt;b&gt;&lt;font style=&quot;font-size: 25px;&quot;&gt;\(F_{res}\)&lt;/font&gt;&lt;/b&gt;&lt;/font&gt;" style="text;html=1;align=center;verticalAlign=middle;whiteSpace=wrap;rounded=0;" parent="1" vertex="1">
          <mxGeometry x="406" y="277" width="60" height="25" as="geometry" />
        </mxCell>
        <mxCell id="B2emX07kh6PidSc0l1N5-57" value="" style="endArrow=classic;html=1;rounded=0;strokeWidth=2;" parent="1" edge="1">
          <mxGeometry width="50" height="50" relative="1" as="geometry">
            <mxPoint x="190" y="80" as="sourcePoint" />
            <mxPoint x="190" y="120" as="targetPoint" />
          </mxGeometry>
        </mxCell>
        <mxCell id="B2emX07kh6PidSc0l1N5-58" value="&lt;font size=&quot;1&quot;&gt;&lt;b&gt;&lt;font style=&quot;font-size: 25px;&quot;&gt;\(I_{cg}&amp;nbsp; \)&lt;/font&gt;&lt;/b&gt;&lt;/font&gt;" style="text;html=1;align=center;verticalAlign=middle;whiteSpace=wrap;rounded=0;" parent="1" vertex="1">
          <mxGeometry x="170" y="40" width="60" height="30" as="geometry" />
        </mxCell>
        <mxCell id="B2emX07kh6PidSc0l1N5-59" value="" style="endArrow=none;html=1;rounded=0;strokeWidth=2;" parent="1" edge="1">
          <mxGeometry width="50" height="50" relative="1" as="geometry">
            <mxPoint x="190" y="40" as="sourcePoint" />
            <mxPoint x="190" y="10" as="targetPoint" />
          </mxGeometry>
        </mxCell>
        <mxCell id="B2emX07kh6PidSc0l1N5-60" value="" style="endArrow=classic;html=1;rounded=0;strokeWidth=2;startSize=3;exitX=0;exitY=0.155;exitDx=0;exitDy=0;exitPerimeter=0;" parent="1" source="B2emX07kh6PidSc0l1N5-38" edge="1">
          <mxGeometry width="50" height="50" relative="1" as="geometry">
            <mxPoint x="150" y="240" as="sourcePoint" />
            <mxPoint x="150" y="280" as="targetPoint" />
          </mxGeometry>
        </mxCell>
        <mxCell id="B2emX07kh6PidSc0l1N5-61" value="" style="endArrow=none;html=1;rounded=0;strokeWidth=2;exitX=-0.004;exitY=0.029;exitDx=0;exitDy=0;exitPerimeter=0;startSize=5;" parent="1" source="B2emX07kh6PidSc0l1N5-38" edge="1">
          <mxGeometry width="50" height="50" relative="1" as="geometry">
            <mxPoint x="150" y="150" as="sourcePoint" />
            <mxPoint x="150" y="134" as="targetPoint" />
          </mxGeometry>
        </mxCell>
        <mxCell id="B2emX07kh6PidSc0l1N5-62" value="" style="endArrow=none;dashed=1;html=1;dashPattern=1 3;strokeWidth=2;rounded=0;" parent="1" edge="1">
          <mxGeometry width="50" height="50" relative="1" as="geometry">
            <mxPoint x="80" y="495" as="sourcePoint" />
            <mxPoint x="720" y="495" as="targetPoint" />
          </mxGeometry>
        </mxCell>
        <mxCell id="B2emX07kh6PidSc0l1N5-63" value="&lt;font size=&quot;1&quot;&gt;&lt;b&gt;&lt;font style=&quot;font-size: 25px;&quot;&gt;\(I_{vf}&amp;nbsp; \land l_{jv}\)&lt;/font&gt;&lt;/b&gt;&lt;/font&gt;" style="text;html=1;align=center;verticalAlign=middle;whiteSpace=wrap;rounded=0;" parent="1" vertex="1">
          <mxGeometry x="90" y="370" width="60" height="30" as="geometry" />
        </mxCell>
        <mxCell id="B2emX07kh6PidSc0l1N5-64" value="" style="endArrow=classic;html=1;rounded=0;strokeWidth=2;" parent="1" edge="1">
          <mxGeometry width="50" height="50" relative="1" as="geometry">
            <mxPoint x="120" y="407" as="sourcePoint" />
            <mxPoint x="120" y="490" as="targetPoint" />
          </mxGeometry>
        </mxCell>
        <mxCell id="B2emX07kh6PidSc0l1N5-65" value="&lt;font size=&quot;1&quot;&gt;&lt;b&gt;&lt;font style=&quot;font-size: 25px;&quot;&gt;\(C_{vf}\)&lt;/font&gt;&lt;/b&gt;&lt;/font&gt;" style="text;html=1;align=center;verticalAlign=middle;whiteSpace=wrap;rounded=0;" parent="1" vertex="1">
          <mxGeometry x="620" y="560" width="60" height="30" as="geometry" />
        </mxCell>
        <mxCell id="B2emX07kh6PidSc0l1N5-66" value="" style="html=1;labelBackgroundColor=#ffffff;startArrow=none;startFill=0;startSize=6;endArrow=classic;endFill=1;endSize=6;jettySize=auto;orthogonalLoop=1;strokeWidth=1;dashed=1;fontSize=14;rounded=0;" parent="1" edge="1">
          <mxGeometry width="60" height="60" relative="1" as="geometry">
            <mxPoint x="542" y="498" as="sourcePoint" />
            <mxPoint x="630" y="560" as="targetPoint" />
          </mxGeometry>
        </mxCell>
        <mxCell id="B2emX07kh6PidSc0l1N5-67" value="" style="endArrow=classic;html=1;rounded=0;strokeWidth=2;" parent="1" target="B2emX07kh6PidSc0l1N5-68" edge="1">
          <mxGeometry width="50" height="50" relative="1" as="geometry">
            <mxPoint x="150" y="210" as="sourcePoint" />
            <mxPoint x="150" y="280" as="targetPoint" />
          </mxGeometry>
        </mxCell>
        <mxCell id="B2emX07kh6PidSc0l1N5-68" value="&lt;font size=&quot;1&quot;&gt;&lt;b&gt;&lt;font style=&quot;font-size: 25px;&quot;&gt;\(I_{cp} \land l_{cp}\)&lt;/font&gt;&lt;/b&gt;&lt;/font&gt;" style="text;html=1;align=center;verticalAlign=middle;whiteSpace=wrap;rounded=0;" parent="1" vertex="1">
          <mxGeometry x="150" y="190" width="60" height="30" as="geometry" />
        </mxCell>
        <mxCell id="B2emX07kh6PidSc0l1N5-69" value="" style="endArrow=none;html=1;rounded=0;strokeWidth=2;" parent="1" edge="1">
          <mxGeometry width="50" height="50" relative="1" as="geometry">
            <mxPoint x="670" y="310" as="sourcePoint" />
            <mxPoint x="670.42" y="10" as="targetPoint" />
          </mxGeometry>
        </mxCell>
        <mxCell id="B2emX07kh6PidSc0l1N5-70" value="" style="endArrow=none;dashed=1;html=1;dashPattern=1 3;strokeWidth=2;rounded=0;" parent="1" edge="1">
          <mxGeometry width="50" height="50" relative="1" as="geometry">
            <mxPoint x="80" y="449" as="sourcePoint" />
            <mxPoint x="720" y="449" as="targetPoint" />
          </mxGeometry>
        </mxCell>
        <mxCell id="B2emX07kh6PidSc0l1N5-71" value="" style="endArrow=classic;html=1;rounded=0;strokeWidth=2;" parent="1" edge="1">
          <mxGeometry width="50" height="50" relative="1" as="geometry">
            <mxPoint x="670" y="360" as="sourcePoint" />
            <mxPoint x="670" y="443" as="targetPoint" />
          </mxGeometry>
        </mxCell>
        <mxCell id="B2emX07kh6PidSc0l1N5-72" value="&lt;font size=&quot;1&quot;&gt;&lt;b&gt;&lt;font style=&quot;font-size: 25px;&quot;&gt;\( l_{tf}\)&lt;/font&gt;&lt;/b&gt;&lt;/font&gt;" style="text;html=1;align=center;verticalAlign=middle;whiteSpace=wrap;rounded=0;" parent="1" vertex="1">
          <mxGeometry x="650" y="320" width="60" height="30" as="geometry" />
        </mxCell>
        <mxCell id="yYq2u8QDMqbt1aETMLS8-2" value="" style="endArrow=classic;html=1;rounded=0;strokeWidth=2;" parent="1" edge="1">
          <mxGeometry width="50" height="50" relative="1" as="geometry">
            <mxPoint x="473" y="560" as="sourcePoint" />
            <mxPoint x="450" y="560" as="targetPoint" />
          </mxGeometry>
        </mxCell>
        <mxCell id="yYq2u8QDMqbt1aETMLS8-3" value="" style="endArrow=none;html=1;rounded=0;strokeWidth=2;" parent="1" edge="1">
          <mxGeometry width="50" height="50" relative="1" as="geometry">
            <mxPoint x="530" y="560" as="sourcePoint" />
            <mxPoint x="510" y="560" as="targetPoint" />
          </mxGeometry>
        </mxCell>
        <mxCell id="yYq2u8QDMqbt1aETMLS8-4" value="&lt;font size=&quot;1&quot;&gt;&lt;b&gt;&lt;font style=&quot;font-size: 25px;&quot;&gt;\( l_{tf_r}\)&lt;/font&gt;&lt;/b&gt;&lt;/font&gt;" style="text;html=1;align=center;verticalAlign=middle;whiteSpace=wrap;rounded=0;" parent="1" vertex="1">
          <mxGeometry x="465.64" y="540" width="60" height="30" as="geometry" />
        </mxCell>
        <mxCell id="yYq2u8QDMqbt1aETMLS8-5" value="" style="endArrow=classic;html=1;rounded=0;strokeWidth=2;" parent="1" edge="1">
          <mxGeometry width="50" height="50" relative="1" as="geometry">
            <mxPoint x="528.14" y="590" as="sourcePoint" />
            <mxPoint x="498.14" y="590" as="targetPoint" />
          </mxGeometry>
        </mxCell>
        <mxCell id="yYq2u8QDMqbt1aETMLS8-8" value="&lt;font size=&quot;1&quot;&gt;&lt;b&gt;&lt;font style=&quot;font-size: 25px;&quot;&gt;\( l_{jv_r}\)&lt;/font&gt;&lt;/b&gt;&lt;/font&gt;" style="text;html=1;align=center;verticalAlign=middle;whiteSpace=wrap;rounded=0;" parent="1" vertex="1">
          <mxGeometry x="560" y="610" width="60" height="30" as="geometry" />
        </mxCell>
        <mxCell id="yYq2u8QDMqbt1aETMLS8-9" value="" style="html=1;labelBackgroundColor=#ffffff;startArrow=none;startFill=0;startSize=6;endArrow=classic;endFill=1;endSize=6;jettySize=auto;orthogonalLoop=1;strokeWidth=1;dashed=1;fontSize=14;rounded=0;" parent="1" edge="1">
          <mxGeometry width="60" height="60" relative="1" as="geometry">
            <mxPoint x="528.14" y="590" as="sourcePoint" />
            <mxPoint x="568.14" y="620" as="targetPoint" />
          </mxGeometry>
        </mxCell>
      </root>
    </mxGraphModel>
  </diagram>
</mxfile>
